<svg xmlns="http://www.w3.org/2000/svg" width="36" height="36" viewBox="0 0 36 36">
  <g id="accessories" transform="translate(0.099 -0.06)">
    <circle id="Ellipse_198" data-name="Ellipse 198" cx="18" cy="18" r="18" transform="translate(-0.099 0.06)" fill="#e2eafd"/>
    <path id="Path_44775" data-name="Path 44775" d="M11.409,8.22c0,.06-.08.07-.109,0Z" transform="translate(-0.208 -0.063)" fill="#747171"/>
    <path id="Path_44776" data-name="Path 44776" d="M12.429,8.27a.089.089,0,0,1-.109,0Z" transform="translate(-0.216 -0.064)" fill="#555252"/>
    <path id="Path_44777" data-name="Path 44777" d="M12.43,8.27h.109A.4.4,0,0,1,12.43,8.27Z" transform="translate(-0.217 -0.064)" fill="#6a6767"/>
    <g id="infinite_icons_accessories" data-name="infinite icons_accessories" transform="translate(2.033 3.542)">
      <path id="Path_44807" data-name="Path 44807" d="M13.594,13.219a1.508,1.508,0,0,0-1.209-1.477l-1.036-.212c-.338-.071-.338-.071-.338-.416,0-.2,0-.2.212-.212s.306-.086.306-.251V8.844a.243.243,0,0,0-.251-.259c-.267,0-.267,0-.267-.291h0c0-.157,0-.22.2-.2a.259.259,0,0,0,.322-.2.283.283,0,0,0-.22-.314.785.785,0,0,1-.55-.785.248.248,0,0,0-.275-.275H8.97a.251.251,0,0,0-.275.251.785.785,0,0,1-.864.785,1.178,1.178,0,0,0,0,2.356c.11,0,.126,0,.118.126v.628a.259.259,0,0,0,.236.275c.094,0,.22-.047.267.039s0,.188,0,.283a.849.849,0,0,0,0,.141c0,.086,0,.11-.1.126l-1.138.22A1.571,1.571,0,0,0,5.87,13.368v8.09a1.029,1.029,0,0,0,1.052,1.06h5.644a1.021,1.021,0,0,0,1.044-1.037ZM10.611,9.1c.4,0,.4,0,.4.393v.8c0,.181,0,.1-.1.1-.416,0-.416,0-.416-.408V9.2C10.493,9.119,10.525,9.1,10.611,9.1Zm-1.444-2c0-.063.055-.063.11-.063h.9c.047,0,.086,0,.1.063a1.5,1.5,0,0,0,.2.448H8.97A1.5,1.5,0,0,0,9.167,7.093Zm.173.974H10.4c.079,0,.1,0,.1.094,0,.424,0,.424-.408.424H9.065c-.094,0-.118,0-.118-.118C8.947,8.067,8.939,8.067,9.339,8.067Zm.126,1.186c0-.079,0-.118.11-.118.408,0,.408,0,.408.4v.785c0,.079,0,.118-.11.118-.408,0-.408,0-.408-.4V9.779C9.465,9.559,9.473,9.386,9.465,9.253ZM8.327,8.585H8.185a.259.259,0,0,0-.267.267v.4c0,.071,0,.086-.086.094a.652.652,0,0,1-.683-.613.644.644,0,0,1,.62-.683h.275c.408,0,.4,0,.393.416C8.437,8.57,8.405,8.593,8.327,8.585Zm.11,1.406V9.253c0-.086,0-.118.11-.118.408,0,.408,0,.408.4v.785c0,.086,0,.118-.11.118C8.437,10.4,8.437,10.4,8.437,9.991ZM6.38,13.07a1.036,1.036,0,0,1,.879-.84L8.7,11.939a.259.259,0,0,0,.251-.33V11c0-.071,0-.118.1-.118H10.4c.079,0,.1,0,.1.1v.628a.259.259,0,0,0,.251.306l1.452.291a1.013,1.013,0,0,1,.856.785c.039.188.039.188-.149.188H6.521C6.38,13.235,6.356,13.18,6.38,13.07Zm6.7,4.61V21.4a.526.526,0,0,1-.589.6h-5.5a.526.526,0,0,1-.589-.589V13.887c0-.126,0-.141.157-.141h6.414c.126,0,.149,0,.149.149-.047,1.257-.047,2.521-.047,3.786Z" fill="#274a8d"/>
      <path id="Path_44809" data-name="Path 44809" d="M28.4,23.86v-.432a.864.864,0,0,0-.259-.644,1.845,1.845,0,0,0-.44-.33.11.11,0,0,1-.079-.094.5.5,0,0,0-.212-.338,1.342,1.342,0,0,0-.455-.212,4.482,4.482,0,0,0-2.041-.11,2.229,2.229,0,0,0-.864.275.55.55,0,0,0-.29.4v.055a6.021,6.021,0,0,1-.887.479,1.868,1.868,0,0,1-1.319-.165l-.071-.039a1.97,1.97,0,0,0-.361-.251c-.039,0-.071,0-.071-.086A.5.5,0,0,0,20.8,22a1.57,1.57,0,0,0-.51-.22,4.655,4.655,0,0,0-1.743-.11,2.928,2.928,0,0,0-.966.251c-.141.071-.306.149-.338.306a.6.6,0,0,1-.3.338,1.57,1.57,0,0,0-.181.141.918.918,0,0,0-.345.785v.785a.911.911,0,0,0,.29.7,2.269,2.269,0,0,0,.934.51,5.11,5.11,0,0,0,2.528.118,2.959,2.959,0,0,0,1.217-.495.981.981,0,0,0,.44-.707c0-.071.047-.047.086-.047h1c.047,0,.071,0,.079.063a.785.785,0,0,0,.267.526,1.915,1.915,0,0,0,.746.471,5.024,5.024,0,0,0,2.983.126,2.3,2.3,0,0,0,1.13-.581.848.848,0,0,0,.283-.675ZM17.66,22.321a1.515,1.515,0,0,1,.526-.2,3.807,3.807,0,0,1,.942-.1,3.768,3.768,0,0,1,1.248.188,1.02,1.02,0,0,1,.243.126q.094.071,0,.141a.966.966,0,0,1-.3.149,4.161,4.161,0,0,1-2.355,0,1.146,1.146,0,0,1-.283-.126C17.55,22.431,17.55,22.392,17.66,22.321Zm-.079.738a1.044,1.044,0,0,0,0-.157,4.184,4.184,0,0,0,1.57.283,3.988,3.988,0,0,0,1.57-.283h0c0,.314,0,.345-.3.455a3.784,3.784,0,0,1-1.57.173,3.062,3.062,0,0,1-.887-.165l-.165-.078a.212.212,0,0,1-.228-.228Zm-.644,0a1.374,1.374,0,0,1,.251-.212c0,.094,0,.173,0,.243a.518.518,0,0,0,.275.495,1.9,1.9,0,0,0,.738.267,4.8,4.8,0,0,0,2.19-.079,1.868,1.868,0,0,0,.4-.188.51.51,0,0,0,.267-.495v-.228a.911.911,0,0,1,.345.345.369.369,0,0,1-.055.424,1.334,1.334,0,0,1-.55.4,4.357,4.357,0,0,1-2,.3,3.729,3.729,0,0,1-1.452-.353,1.366,1.366,0,0,1-.408-.3.416.416,0,0,1-.008-.6Zm4.216,1.719a2.661,2.661,0,0,1-1.123.432,4.765,4.765,0,0,1-2.182-.086,2.41,2.41,0,0,1-.62-.259.683.683,0,0,1-.408-.785,3.87,3.87,0,0,0,2.308.628,3.87,3.87,0,0,0,2.308-.628.628.628,0,0,1-.29.714Zm1.774-.84H21.9c-.063,0-.079,0-.071-.078v-.612a1.774,1.774,0,0,0,1.162,0q0,.318,0,.636c0,.071-.024.071-.071.071Zm1.3-1.625a1.664,1.664,0,0,1,.6-.22,4.388,4.388,0,0,1,1.994.055,1.484,1.484,0,0,1,.345.149c.118.071.118.118,0,.2a1.688,1.688,0,0,1-.6.212,4.349,4.349,0,0,1-.84.079,3.54,3.54,0,0,1-1.311-.22.738.738,0,0,1-.173-.094c-.1-.031-.094-.086-.016-.141Zm-.063.573a4,4,0,0,0,1.57.283,3.925,3.925,0,0,0,1.57-.283h0c0,.322,0,.345-.3.455a3.925,3.925,0,0,1-1.57.181,3.643,3.643,0,0,1-.785-.149H24.56c-.416-.11-.432-.133-.408-.471Zm-.557.078.165-.126v.251a.526.526,0,0,0,.275.5,2.088,2.088,0,0,0,.73.259,4.71,4.71,0,0,0,2.1-.055,1.774,1.774,0,0,0,.487-.2.526.526,0,0,0,.283-.51,2.048,2.048,0,0,1,0-.22c.479.259.487.628.157.895a1.884,1.884,0,0,1-.2.141,3.3,3.3,0,0,1-1.335.4,4.836,4.836,0,0,1-1.837-.141,2.1,2.1,0,0,1-.785-.408.455.455,0,0,1-.039-.769Zm4.263,1.743a2.237,2.237,0,0,1-.973.463,4.71,4.71,0,0,1-2.685-.11,1.86,1.86,0,0,1-.44-.2.659.659,0,0,1-.377-.785,4.545,4.545,0,0,0,4.616,0,.628.628,0,0,1-.141.636Z" transform="translate(-2.258 -3.241)" fill="#274a8d"/>
    </g>
  </g>
</svg>
