<svg xmlns="http://www.w3.org/2000/svg" width="36" height="36" viewBox="0 0 36 36">
  <g id="Group_5511" data-name="Group 5511" transform="translate(-58 -1618)">
    <circle id="Ellipse_219" data-name="Ellipse 219" cx="18" cy="18" r="18" transform="translate(58 1618)" fill="#e9e9e9" opacity="0.4"/>
    <path id="GameIconsShieldReflect" d="M18.995,19.457l-.015,1.091,10.471,6.066-2.3.781,2.258.759-5.6,5.575-.753-.753-2.018,4.481,4.826-1.7-.686-.743,5.953-5.953.487,1.689.9-2.685,2.222-.649L32.487,26.8l-.9-3.129-.554,1.892L20.5,19.475,19,19.457Zm13.769,2.449q-.266,0-.53.012-.193.008-.383.021L33.076,26.2l4.079,1.1a31.82,31.82,0,0,0,.36-4.707,16.655,16.655,0,0,0-4.573-.69h-.178Zm-1.445.082A7.921,7.921,0,0,0,28.064,23l2.528,1.462.726-2.477Zm5.808,5.488-4.036,1.18-1.526,4.549-.794-2.753-1.531,1.531a6.246,6.246,0,0,0,3.378,3.042c1.861-.7,3.08-2.461,3.842-4.767a18.651,18.651,0,0,0,.668-2.783Z" transform="translate(46.02 1607.543)" fill="#adaeae"/>
  </g>
</svg>
