<svg xmlns="http://www.w3.org/2000/svg" width="14.047" height="8" viewBox="0 0 14.047 8">
  <path id="expand_more_FILL1_wght400_GRAD0_opsz48_2_" d="M260.476,448.3a.909.909,0,0,1-.34-.062.944.944,0,0,1-.309-.217L253.7,441.9a.851.851,0,0,1-.232-.665.951.951,0,0,1,.263-.665.776.776,0,0,1,.665-.263,1.163,1.163,0,0,1,.634.294l5.443,5.443,5.443-5.443a1.01,1.01,0,0,1,.665-.278.732.732,0,0,1,.665.278.681.681,0,0,1,.263.649,1.2,1.2,0,0,1-.294.68l-6.092,6.092a.942.942,0,0,1-.309.217A.909.909,0,0,1,260.476,448.3Z" transform="translate(-253.471 -440.304)" fill="#221f20"/>
</svg>
