<svg xmlns="http://www.w3.org/2000/svg" width="24" height="24" viewBox="0 0 24 24">
  <g id="ayush_icons-08" data-name="ayush icons-08" transform="translate(0.097 -0.06)">
    <circle id="Ellipse_282" data-name="Ellipse 282" cx="12" cy="12" r="12" transform="translate(-0.097 0.06)" fill="#e2eafd"/>
    <path id="Path_44971" data-name="Path 44971" d="M11.373,8.22c0,.04-.053.046-.073,0Z" transform="translate(-3.938 -2.762)" fill="#747171"/>
    <path id="Path_44972" data-name="Path 44972" d="M12.393,8.27a.06.06,0,0,1-.073,0Z" transform="translate(-4.283 -2.779)" fill="#555252"/>
    <path id="Path_44973" data-name="Path 44973" d="M12.43,8.27H12.5A.264.264,0,0,1,12.43,8.27Z" transform="translate(-4.32 -2.779)" fill="#6a6767"/>
    <path id="google_plus_reshare_FILL1_wght300_GRAD0_opsz48" d="M132.339,328.409a.4.4,0,0,1-.415-.415v-2.513a3.333,3.333,0,0,1,3.34-3.34h7.8l-2.675-2.675a.353.353,0,0,1-.108-.273.433.433,0,0,1,.127-.3.4.4,0,0,1,.583,0l3.287,3.287a.592.592,0,0,1,.124.173.5.5,0,0,1,0,.391.58.58,0,0,1-.124.176l-3.3,3.3a.354.354,0,0,1-.273.108.433.433,0,0,1-.3-.127.4.4,0,0,1,0-.583l2.657-2.657h-7.8a2.5,2.5,0,0,0-2.51,2.51v2.513a.4.4,0,0,1-.415.415Z" transform="translate(-126.282 -311.529)" fill="#2e478d"/>
  </g>
</svg>
