<svg xmlns="http://www.w3.org/2000/svg" width="32" height="32" viewBox="0 0 32 32">
  <g id="ayush_icons-08" data-name="ayush icons-08" transform="translate(0.099 -0.06)">
    <circle id="Ellipse_198" data-name="Ellipse 198" cx="16" cy="16" r="16" transform="translate(-0.099 0.06)" fill="#e2eafd"/>
    <path id="Path_44775" data-name="Path 44775" d="M11.4,8.22c0,.053-.071.062-.1,0Z" transform="translate(-1.452 -0.963)" fill="#747171"/>
    <path id="Path_44776" data-name="Path 44776" d="M12.417,8.27a.08.08,0,0,1-.1,0Z" transform="translate(-1.572 -0.969)" fill="#555252"/>
    <path id="Path_44777" data-name="Path 44777" d="M12.43,8.27h.1A.352.352,0,0,1,12.43,8.27Z" transform="translate(-1.585 -0.969)" fill="#6a6767"/>
    <path id="icons8_whatsapp_1" d="M16.116,6.07A7.062,7.062,0,0,0,5,14.588L4,18.246l3.743-.982a7.057,7.057,0,0,0,3.375.859h0A7.062,7.062,0,0,0,16.116,6.07Zm-5,10.861h0a5.861,5.861,0,0,1-2.987-.818l-.215-.127L5.7,16.569,6.288,14.4l-.139-.222a5.869,5.869,0,1,1,4.972,2.75Zm3.219-4.394c-.177-.088-1.044-.515-1.205-.574s-.28-.088-.4.088-.456.574-.558.691-.206.132-.382.044a4.809,4.809,0,0,1-1.419-.876A5.3,5.3,0,0,1,9.4,10.689c-.1-.177-.011-.272.077-.36s.177-.206.265-.309a1.217,1.217,0,0,0,.177-.294A.323.323,0,0,0,9.9,9.417c-.044-.088-.4-.957-.544-1.309s-.289-.3-.4-.3S8.739,7.8,8.621,7.8a.648.648,0,0,0-.47.221,1.98,1.98,0,0,0-.618,1.471,3.433,3.433,0,0,0,.72,1.825,7.862,7.862,0,0,0,3.014,2.663,10.316,10.316,0,0,0,1.006.372,2.42,2.42,0,0,0,1.112.07,1.816,1.816,0,0,0,1.191-.839,1.47,1.47,0,0,0,.1-.839C14.634,12.669,14.517,12.625,14.34,12.537Z" transform="translate(4.81 4.938)" fill="#2e478d"/>
  </g>
</svg>
