<svg xmlns="http://www.w3.org/2000/svg" width="36" height="36" viewBox="0 0 36 36">
  <g id="Group_5477" data-name="Group 5477" transform="translate(-14 -1476)">
    <circle id="Ellipse_197" data-name="Ellipse 197" cx="18" cy="18" r="18" transform="translate(14 1476)" fill="#e9e9e9" opacity="0.4"/>
    <g id="Group_5473" data-name="Group 5473">
      <path id="Path_44772" data-name="Path 44772" d="M16.55,10.515c.271-1.334.311-1.375,1.344-1.385,1.324,0,1.365,0,1.565,1.385h1.2a1.866,1.866,0,0,1,2.007,1.946V24.983a1.866,1.866,0,0,1-2.007,1.936H15.346A1.846,1.846,0,0,1,13.4,25.053q0-6.271,0-12.562a1.856,1.856,0,0,1,1.957-1.916Zm-2.7,8.207h0v6.14a1.485,1.485,0,0,0,1.656,1.645h4.967a1.515,1.515,0,0,0,1.726-1.7q0-6.11,0-12.231a1.505,1.505,0,0,0-1.676-1.645H15.507a1.485,1.485,0,0,0-1.656,1.645C13.841,14.628,13.852,16.675,13.852,18.722Z" transform="translate(13.985 1475.97)" fill="#8a8a89"/>
      <path id="Path_44773" data-name="Path 44773" d="M13.85,18.716v-6.14a1.485,1.485,0,0,1,1.656-1.645h5.017A1.505,1.505,0,0,1,22.2,12.576V24.806a1.515,1.515,0,0,1-1.726,1.7H15.506a1.485,1.485,0,0,1-1.656-1.645v-6.14Zm4.425-.05-.793,3.281h.07l2.177-4.686-2.077.552.6-3.08h-.08l-1.936,4.435Z" transform="translate(13.986 1475.976)" fill="#adaeae"/>
      <path id="Path_44774" data-name="Path 44774" d="M18.267,18.653l-2.007.5L18.2,14.72h.08l-.6,3.08,2.077-.552-2.177,4.686H17.5Z" transform="translate(13.994 1475.988)" fill="#fff"/>
    </g>
  </g>
</svg>
