<svg xmlns="http://www.w3.org/2000/svg" width="36" height="36" viewBox="0 0 36 36">
  <g id="Behind_the_ear_BTE_" data-name="Behind the ear (BTE)" transform="translate(0.099 -0.06)">
    <circle id="Ellipse_198" data-name="Ellipse 198" cx="18" cy="18" r="18" transform="translate(-0.099 0.06)" fill="#e2eafd"/>
    <path id="Path_44775" data-name="Path 44775" d="M11.409,8.22c0,.06-.08.07-.109,0Z" transform="translate(-0.208 -0.063)" fill="#747171"/>
    <path id="Path_44776" data-name="Path 44776" d="M12.429,8.27a.089.089,0,0,1-.109,0Z" transform="translate(-0.216 -0.064)" fill="#555252"/>
    <path id="Path_44777" data-name="Path 44777" d="M12.43,8.27h.109A.4.4,0,0,1,12.43,8.27Z" transform="translate(-0.217 -0.064)" fill="#6a6767"/>
    <path id="infinite_icons_behind_the_ear" data-name="infinite icons_behind the ear" d="M22.1,12.106A6.067,6.067,0,0,0,16.342,6.59c-.184,0-.525.059-.531.131-.079.479-.42.38-.715.387a6.861,6.861,0,0,0-1.423,0,2.932,2.932,0,0,0-1.482.656A16,16,0,0,0,10.6,10.138a1.968,1.968,0,0,0-.2.78,1.409,1.409,0,0,0,.151.407c.1-.111.249-.2.3-.321.151-.387.262-.787.387-1.187l.184.046v4.388a1.39,1.39,0,0,0,.656,1.259,3.837,3.837,0,0,1,.767.656,1.633,1.633,0,0,0,1.968.413,1.581,1.581,0,0,0,.807-1.85,1.522,1.522,0,0,0-1.548-1.154,7.5,7.5,0,0,0-1.049.249,14.271,14.271,0,0,1,0-1.679,1.633,1.633,0,0,1,.394-.9,1.528,1.528,0,0,1,1.968-.216A16.161,16.161,0,0,1,16.7,12.106a2.381,2.381,0,0,0,.492.216c-.046-.184-.033-.407-.138-.538A2.932,2.932,0,0,0,13,10.794a1.076,1.076,0,0,1,.269-.584,3.312,3.312,0,0,1,4.5.328c1.089,1.266.905,2.86-.479,4.119a6.959,6.959,0,0,0-2.033,2.7,1.922,1.922,0,0,1-.374.564c-.512.584-.754.6-1.39.157-.092-.059-.249,0-.374-.039a.971.971,0,0,0,0,.341,1,1,0,0,0,1.312.433,2.971,2.971,0,0,0,1.122-1.1,9.182,9.182,0,0,1,2.263-2.919,3.214,3.214,0,0,0,.2-4.742,3.017,3.017,0,0,1-.223-.282A2.991,2.991,0,0,1,19.372,13a4.755,4.755,0,0,1-1.364,2.237,4.926,4.926,0,0,0-1.718,3.778A2.092,2.092,0,0,1,14.4,21.072a2.145,2.145,0,0,1-2.355-1.594c-.066-.216-.066-.453-.131-.656a.394.394,0,0,0-.256-.2.336.336,0,0,0-.184.2,1.771,1.771,0,0,0-.026.492,2.669,2.669,0,0,0,2.827,2.263,2.624,2.624,0,0,0,2.446-2.624,4.276,4.276,0,0,1,1.22-2.971l1.377-1.528,2.3.59c.38.1.544,0,.538-.42C22.14,13.785,22.18,12.926,22.1,12.106Zm-7.989,1.968a1.1,1.1,0,1,1-1.1,1.1A1.1,1.1,0,0,1,14.112,14.074ZM13.03,9.561c.039-.859,1.561-1.312,2.7-.728Zm2.276-1.39H13.883a1.312,1.312,0,0,0-1.364,1.423c0,1.653,0,3.312.039,4.965a3.994,3.994,0,0,1-.066.479l-.243.079a3.037,3.037,0,0,1-.328-.885q-.052-2.361,0-4.722a1.909,1.909,0,0,1,1.968-1.935h1.777C15.8,7.948,15.791,8.171,15.306,8.171Zm6.3,6.375-.269-.052c-1.312-.275-1.312-.275-1.351-1.627a3.994,3.994,0,0,0-3.345-4.1l-.38-.072V7.128c3.194-.426,5.864,3.247,5.345,7.4Z" transform="translate(2.001 3.971)" fill="#274a8d" stroke="#274a8d" stroke-width="0.2"/>
  </g>
</svg>
