<svg xmlns="http://www.w3.org/2000/svg" width="51.003" height="22.226" viewBox="0 0 51.003 22.226">
  <g id="infinite_icons_bifocal_bifocal_bifocal" data-name="infinite icons bifocal_bifocal_bifocal" transform="translate(-2.459 -14.998)">
    <path id="Path_44918" data-name="Path 44918" d="M-18031.061,6533.337l1.664-3.26,7.516-1.731,6.449.458,3.086,1.273.516,2.483-1.375,6.624-2.832,3.536-7.066,4.051-5.8-1.97-2.16-5.335v-2.473l1.625-1.987Z" transform="translate(18037.221 -6512.294)" fill="#e2eafd"/>
    <path id="Path_44919" data-name="Path 44919" d="M-18011.83,6533.337l-1.664-3.26-7.516-1.731-6.449.458-3.086,1.273-.516,2.483,1.375,6.624,2.832,3.536,7.066,4.051,5.8-1.97,2.16-5.335v-2.473l-1.625-1.987Z" transform="translate(18061.221 -6512.294)" fill="#e2eafd"/>
    <path id="Path_44911" data-name="Path 44911" d="M51.614,20.694h-.393a.489.489,0,0,1-.442-.327,6.69,6.69,0,0,0-3.991-4.253A13.527,13.527,0,0,0,41.358,15H15.464a16.979,16.979,0,0,0-5.578.818,6.657,6.657,0,0,0-4.449,3.828A1.374,1.374,0,0,1,3.8,20.71,1.243,1.243,0,0,0,2.46,22c0,.556,0,1.1,0,1.636A1.325,1.325,0,0,0,3.7,24.947a2.192,2.192,0,0,0,.654,0c.442-.082.556.114.589.523a15.114,15.114,0,0,0,1.112,4.416A7.672,7.672,0,0,0,15.415,34.7a14.411,14.411,0,0,0,8.293-5.921,14.9,14.9,0,0,0,2.7-7.95c0-.327.147-.425.442-.458a10.714,10.714,0,0,1,2.29,0c.327,0,.442.147.458.491a15.016,15.016,0,0,0,3.631,9.127,13.838,13.838,0,0,0,7.933,4.825,7.459,7.459,0,0,0,7.982-3.451,13.806,13.806,0,0,0,1.816-5.643c.1-.687,0-.72.736-.671a1.636,1.636,0,0,0,1.767-1v-2.5A1.636,1.636,0,0,0,51.614,20.694Zm-45.8,2.7H4.538c-.458.082-.605,0-.589-.556s.131-.638.589-.589a10.55,10.55,0,0,0,1.243,0,.511.511,0,0,1,.458.147c.115.147.376.278.262.474s-.278.573-.671.523Zm18.958-2.977a14,14,0,0,1-2.176,7.05,12.546,12.546,0,0,1-7.8,5.741,5.97,5.97,0,0,1-7.2-3.484A14.869,14.869,0,0,1,6.4,25.208c0-.2,0-.229.213-.294A3.271,3.271,0,0,0,8.1,23.278a1.031,1.031,0,0,0,0-1,3.419,3.419,0,0,0-1.243-1.39c-.278-.164-.245-.278-.147-.507a5.382,5.382,0,0,1,3.059-2.9,15.948,15.948,0,0,1,6.069-.851h.851a22.7,22.7,0,0,1,5.251.425,7.328,7.328,0,0,1,.851.262,2.764,2.764,0,0,1,2,3.092ZM29.6,18.78c0,.164-.147.147-.278.131a9.013,9.013,0,0,0-2.813,0c-.2,0-.262,0-.311-.213a3.893,3.893,0,0,0-1.276-2.061c.115-.131.213-.1.311-.1H31a4.22,4.22,0,0,0-1.39,2.192Zm19.841,6.428a14.722,14.722,0,0,1-1.374,4.907,6.019,6.019,0,0,1-7.459,3.092,13.086,13.086,0,0,1-8.637-8.179,14.542,14.542,0,0,1-.949-4.907,2.748,2.748,0,0,1,2.143-2.863,12.513,12.513,0,0,1,3.746-.622H39.2a19.269,19.269,0,0,1,5.643.491A6.069,6.069,0,0,1,49.03,20.2c.18.344.278.573-.2.834A3.043,3.043,0,0,0,47.77,22.28a1.08,1.08,0,0,0,0,1.047,3.026,3.026,0,0,0,1.521,1.636c.147-.033.18.033.164.2Zm1.816-1.75a9.437,9.437,0,0,0-1.178,0c-.245,0-.442,0-.556-.245s-.327-.2-.18-.393.245-.491.573-.491H51.3c.425,0,.573,0,.589.54s-.115.589-.622.54Z" transform="translate(0)" fill="#2e478d"/>
    <path id="Path_44912" data-name="Path 44912" d="M4.15,22.73s4.318-1.423,5.447.147a6.069,6.069,0,0,1,1.636,2.5,6.517,6.517,0,0,1-.7,3.664" transform="translate(-9.768 19.474) rotate(-45)" fill="none" stroke="#2e478d" stroke-width="0.5"/>
    <path id="Path_44920" data-name="Path 44920" d="M0,6.314s4.318,1.423,5.447-.147a6.069,6.069,0,0,0,1.636-2.5A6.517,6.517,0,0,0,6.379,0" transform="translate(41.847 37.076) rotate(-135)" fill="none" stroke="#2e478d" stroke-width="0.5"/>
    <path id="Path_44914" data-name="Path 44914" d="M10.423,20.321v4.531l.7-.7.131-.082a.205.205,0,0,1,.2.311l-.294.294-.752.752a.229.229,0,0,1-.311,0L9.049,24.361a.18.18,0,0,1,.18-.311c.213.213.425.409.622.622l.131.131V20.321h0l-.72.72a.184.184,0,0,1-.311-.2l.409-.409.622-.622a.229.229,0,0,1,.311,0l1.031,1.031a.18.18,0,0,1-.18.311l-.671-.654-.082-.1Z" transform="translate(4.292 1.193)" fill="#2e478d"/>
  </g>
</svg>
