<svg xmlns="http://www.w3.org/2000/svg" xmlns:xlink="http://www.w3.org/1999/xlink" width="100" height="60" viewBox="0 0 100 60">
  <defs>
    <clipPath id="clip-path">
      <ellipse id="Ellipse_164" data-name="Ellipse 164" cx="16" cy="16" rx="16" ry="16" fill="none"/>
    </clipPath>
  </defs>
  <g id="Group_5391" data-name="Group 5391" transform="translate(-126 -96)">
    <g id="Rectangle_1995" data-name="Rectangle 1995" transform="translate(126 96)" fill="#e2eafd" stroke="#2e478d" stroke-width="0.5">
      <rect width="100" height="60" rx="5" stroke="none"/>
      <rect x="0.25" y="0.25" width="99.5" height="59.5" rx="4.75" fill="none"/>
    </g>
    <g id="Illustration-03" transform="translate(160 101)">
      <g id="Group_5109" data-name="Group 5109" transform="translate(0 0)" clip-path="url(#clip-path)">
        <path id="Path_44539" data-name="Path 44539" d="M16,0A16,16,0,1,1,0,16,16,16,0,0,1,16,0Z" fill="#fff"/>
        <path id="Path_44207" data-name="Path 44207" d="M124.7,168.815s-4.893,1.062-5.423,4.009h14.974s-4.009-5.188-7.723-4.422Z" transform="translate(-111.311 -155.419)" fill="#27488f"/>
        <path id="Path_44208" data-name="Path 44208" d="M160.86,142.392l.52,2.381a2.228,2.228,0,0,0,1.592.579c.833-.122,1.592-.517,1.592-1.328s-.08-2.523-.08-2.523Z" transform="translate(-148.947 -131.139)" fill="#dd7131"/>
        <path id="Path_44209" data-name="Path 44209" d="M159.2,146.864s1.613,1.7,2.625,1.721,1.233-1.853,1.17-2.25S159.2,146.864,159.2,146.864Z" transform="translate(-147.444 -135.425)" fill="#b5632b"/>
        <path id="Path_44210" data-name="Path 44210" d="M132.731,81.871s-.449-.038-.464.541c-.01.425.26.911.905,1.523.7.664.833.022.833.022a2.776,2.776,0,0,0,1.272,1.986c1.138.646,2.648,1.328,3.243-.729s.331-1.672.331-1.672.379-.049.711-.976.48-1.654-.285-1.654-.927-1.738-.927-1.738l-3.188-.794-.877.533-1.158.843Z" transform="translate(-123.066 -74.007)" fill="#dd7131"/>
        <path id="Path_44211" data-name="Path 44211" d="M131.129,62.08a3.142,3.142,0,0,1,.044-3.663,3.981,3.981,0,0,1,5.274-1.39,3.69,3.69,0,0,1,1.412,4.1s-.366.088-.454.729c0,0,.036.749-.095.816s-.146.309-.234-.839l-.163-1.654s-2.736.4-4.079-.463c0,0,2.494,1.081,1.126.949a3.516,3.516,0,0,1-1.854-.552,6.208,6.208,0,0,0-.309,1.456c.044.353.6,1.391.486,1.655s-.353-.111-.508-.552S131.614,62.1,131.129,62.08Z" transform="translate(-121.514 -54.216)" fill="#0b253f"/>
        <path id="Path_44212" data-name="Path 44212" d="M102.468,248.332h-9.38c-.119,0-.138-.024-.138-.117q.006-6.4,0-12.807c0-.095.014-.119.136-.119q9.382.006,18.762,0c.112,0,.129.021.129.11v12.821c0,.108-.046.11-.145.11Z" transform="translate(-87.479 -216.031)" fill="#f4f4f4"/>
        <path id="Path_44213" data-name="Path 44213" d="M108.78,209.383c0-.115-.008-.23-.014-.344-.01-.19-.089-.271-.259-.285-.19-.048-.342.083-.357.3a.892.892,0,0,1-.024.34l-1.276,0a.788.788,0,0,1-.026-.336.285.285,0,0,0-.263-.311.3.3,0,0,0-.355.3c-.007.116-.007.232-.009.348H104.91c-.059-.109-.021-.226-.028-.339a.29.29,0,0,0-.3-.31.311.311,0,0,0-.321.33.906.906,0,0,1-.024.327l-1.272-.009c0-.1-.008-.208-.012-.311a.312.312,0,0,0-.3-.333.318.318,0,0,0-.341.329c-.007.105-.008.212-.011.317h-1.138l-.144,0a1.289,1.289,0,0,1-.016-.314.32.32,0,0,0-.285-.338.308.308,0,0,0-.34.324,1.191,1.191,0,0,1-.017.328H99.07c0-.111-.006-.221-.01-.331a.31.31,0,1,0-.619,0,.948.948,0,0,1-.022.342H97.143c-.061-.109-.02-.227-.028-.34a.309.309,0,0,0-.618-.013.919.919,0,0,1-.025.356l-1.289-.006a1.488,1.488,0,0,1-.014-.331.292.292,0,0,0-.22-.308.306.306,0,0,0-.4.305.815.815,0,0,1-.027.342,1.637,1.637,0,0,0-.552.026.257.257,0,0,0-.077.007.949.949,0,0,0-.642.8c0,.17-.009.34-.007.509.006.446-.017.892.011,1.338.048.05.11.027.166.027h18.626c.048,0,.105.028.147-.025q.022-.925,0-1.849a.907.907,0,0,0-.721-.805,3.371,3.371,0,0,0-.738-.029c-.06-.1-.022-.213-.028-.32a.309.309,0,0,0-.221-.323.3.3,0,0,0-.4.3c-.006.116,0,.231-.008.346Z" transform="translate(-87.747 -191.99)" fill="#f4f4f4"/>
        <path id="Path_44214" data-name="Path 44214" d="M238.515,286.108a.664.664,0,1,0,.648.69A.648.648,0,0,0,238.515,286.108Z" transform="translate(-218.62 -262.029)" fill="#f4f4f4"/>
        <path id="Path_44215" data-name="Path 44215" d="M161.053,286a.677.677,0,0,0-.653.67.664.664,0,0,0,1.328-.007A.673.673,0,0,0,161.053,286Z" transform="translate(-148.53 -261.931)" fill="#f4f4f4"/>
        <path id="Path_44216" data-name="Path 44216" d="M186.869,287.338a.694.694,0,0,0,.664-.658.7.7,0,0,0-.664-.679.669.669,0,1,0,0,1.338Z" transform="translate(-171.883 -261.931)" fill="#f4f4f4"/>
        <path id="Path_44217" data-name="Path 44217" d="M186.153,342.2a.667.667,0,0,0,1.335-.006.669.669,0,0,0-1.338,0Z" transform="translate(-171.838 -312.193)" fill="#f4f4f4"/>
        <path id="Path_44218" data-name="Path 44218" d="M212.069,286.736a.672.672,0,0,0,.673.664.7.7,0,0,0,.664-.664.691.691,0,0,0-.658-.669.658.658,0,0,0-.678.669Z" transform="translate(-195.298 -261.991)" fill="#f4f4f4"/>
        <path id="Path_44219" data-name="Path 44219" d="M110.1,342.147a.634.634,0,0,0-.672-.669.667.667,0,0,0-.006,1.333A.639.639,0,0,0,110.1,342.147Z" transform="translate(-101.816 -312.145)" fill="#f4f4f4"/>
        <path id="Path_44220" data-name="Path 44220" d="M186.878,259.664a.644.644,0,0,0,.664-.664.664.664,0,0,0-.67-.65.677.677,0,0,0-.664.656.643.643,0,0,0,.67.658Z" transform="translate(-171.89 -236.904)" fill="#f4f4f4"/>
        <path id="Path_44221" data-name="Path 44221" d="M161.051,341.49a.664.664,0,1,0,.657.657A.664.664,0,0,0,161.051,341.49Z" transform="translate(-148.512 -312.156)" fill="#f4f4f4"/>
        <path id="Path_44222" data-name="Path 44222" d="M135.327,259.7a.64.64,0,0,0,.657-.646.649.649,0,0,0-.677-.664.636.636,0,0,0-.636.67.623.623,0,0,0,.656.64Z" transform="translate(-125.242 -236.943)" fill="#f4f4f4"/>
        <path id="Path_44223" data-name="Path 44223" d="M110.055,286.712a.646.646,0,0,0-.664-.664.664.664,0,0,0-.651.664.675.675,0,0,0,.656.664.635.635,0,0,0,.659-.664Z" transform="translate(-101.771 -261.974)" fill="#f4f4f4"/>
        <path id="Path_44224" data-name="Path 44224" d="M238.686,313.88a.656.656,0,1,0,.656.656A.656.656,0,0,0,238.686,313.88Z" transform="translate(-218.796 -287.166)" fill="#f4f4f4"/>
        <path id="Path_44225" data-name="Path 44225" d="M135.961,286.69a.657.657,0,1,0-1.314-.042.657.657,0,1,0,1.314.042Z" transform="translate(-125.22 -261.939)" fill="#f4f4f4"/>
        <path id="Path_44226" data-name="Path 44226" d="M213.381,342.164a.641.641,0,0,0-.64-.684.664.664,0,0,0-.671.648.689.689,0,0,0,.664.69C213.059,342.818,213.434,342.483,213.381,342.164Z" transform="translate(-195.299 -312.147)" fill="#f4f4f4"/>
        <path id="Path_44227" data-name="Path 44227" d="M265.143,286.676a.673.673,0,0,0-.664-.676.664.664,0,0,0-.649.647.644.644,0,0,0,.635.69.664.664,0,0,0,.678-.66Z" transform="translate(-242.149 -261.931)" fill="#f4f4f4"/>
        <path id="Path_44228" data-name="Path 44228" d="M160.513,259.049c-.065.322.326.674.626.656a.649.649,0,0,0,.683-.674.656.656,0,0,0-.664-.642.631.631,0,0,0-.645.66Z" transform="translate(-148.626 -236.938)" fill="#f4f4f4"/>
        <path id="Path_44229" data-name="Path 44229" d="M265.121,342.169a.664.664,0,0,0-.656-.679.664.664,0,0,0-.009,1.328.644.644,0,0,0,.664-.649Z" transform="translate(-242.126 -312.157)" fill="#f4f4f4"/>
        <path id="Path_44230" data-name="Path 44230" d="M110.1,314.5a.659.659,0,1,0-.666.655A.639.639,0,0,0,110.1,314.5Z" transform="translate(-101.816 -287.125)" fill="#f4f4f4"/>
        <path id="Path_44231" data-name="Path 44231" d="M239.216,342.129a.664.664,0,0,0-.671-.659.706.706,0,0,0-.647.658.664.664,0,0,0,.644.674.65.65,0,0,0,.674-.674Z" transform="translate(-218.677 -312.138)" fill="#f4f4f4"/>
        <path id="Path_44232" data-name="Path 44232" d="M213.35,314.528a.644.644,0,0,0-.637-.664.667.667,0,0,0-.677.656.682.682,0,0,0,.664.664A.646.646,0,0,0,213.35,314.528Z" transform="translate(-195.267 -287.151)" fill="#f4f4f4"/>
        <path id="Path_44233" data-name="Path 44233" d="M238.678,259.7a.624.624,0,0,0,.647-.652.636.636,0,0,0-.645-.659.654.654,0,0,0-.664.674A.629.629,0,0,0,238.678,259.7Z" transform="translate(-218.783 -236.939)" fill="#f4f4f4"/>
        <path id="Path_44234" data-name="Path 44234" d="M264.49,259.683a.629.629,0,0,0,.653-.649.664.664,0,0,0-.664-.664.656.656,0,0,0,.013,1.311Z" transform="translate(-242.148 -236.922)" fill="#f4f4f4"/>
        <path id="Path_44235" data-name="Path 44235" d="M186.8,315.146a.658.658,0,1,0-.65-.647.664.664,0,0,0,.65.647Z" transform="translate(-171.838 -287.121)" fill="#f4f4f4"/>
        <path id="Path_44236" data-name="Path 44236" d="M135.327,315.191a.633.633,0,0,0,.664-.639.64.64,0,0,0-.634-.672.656.656,0,1,0-.03,1.311Z" transform="translate(-125.25 -287.166)" fill="#f4f4f4"/>
        <path id="Path_44237" data-name="Path 44237" d="M110.1,259.023a.639.639,0,0,0-.637-.664.664.664,0,0,0-.673.641.655.655,0,1,0,1.31.023Z" transform="translate(-101.816 -236.912)" fill="#f4f4f4"/>
        <path id="Path_44238" data-name="Path 44238" d="M213.363,259.013a.63.63,0,0,0-.64-.664.674.674,0,0,0-.673.645.664.664,0,0,0,.671.671A.626.626,0,0,0,213.363,259.013Z" transform="translate(-195.28 -236.903)" fill="#f4f4f4"/>
        <path id="Path_44239" data-name="Path 44239" d="M264.517,313.871a.656.656,0,1,0,0,1.311.636.636,0,0,0,.649-.656.644.644,0,0,0-.654-.656Z" transform="translate(-242.174 -287.157)" fill="#f4f4f4"/>
        <path id="Path_44240" data-name="Path 44240" d="M161.026,315.028a.664.664,0,1,0-.664-.659.663.663,0,0,0,.664.659Z" transform="translate(-148.496 -287.003)" fill="#f4f4f4"/>
        <path id="Path_44241" data-name="Path 44241" d="M135.968,342.173a.656.656,0,1,0-1.311-.014.637.637,0,0,0,.645.679.646.646,0,0,0,.666-.665Z" transform="translate(-125.228 -312.174)" fill="#f4f4f4"/>
        <path id="Path_44242" data-name="Path 44242" d="M93.38,216.511a.949.949,0,0,1,.642-.8.258.258,0,0,1,.081,0h.544c0,.238.007.474.011.714a.329.329,0,0,0,.285.336h.179a.331.331,0,0,0,.325-.355,5.208,5.208,0,0,0,0-.569c-.01-.12.036-.127.129-.126h1.018c.028.231.007.463.014.694a.317.317,0,0,0,.285.354h.181a.286.286,0,0,0,.3-.3c0-.2.008-.4,0-.6-.006-.122.04-.153.156-.151.339.006.677,0,1.015,0,0,.238.008.474.012.714a.285.285,0,0,0,.246.317c.062.05.134.02.2.025.233-.033.317-.125.32-.353,0-.19.006-.372,0-.558,0-.114.037-.145.146-.143.341,0,.68,0,1.02,0a6.548,6.548,0,0,1,.016.709.3.3,0,0,0,.26.338l.185.009c.227-.029.315-.119.322-.329v-.222a1.821,1.821,0,0,1,.03-.532h1.138c0,.249.007.5.012.748a.319.319,0,0,0,.261.329.589.589,0,0,0,.2,0,.3.3,0,0,0,.3-.334c0-.19.007-.379,0-.569,0-.114.038-.144.147-.142.334,0,.664,0,1,0,0,.224,0,.448.009.672a.348.348,0,0,0,.285.379h.206a.326.326,0,0,0,.3-.344c.006-.19.007-.372,0-.557,0-.11.029-.149.143-.147.34.006.679,0,1.019,0l0,.074,0,.007v.007c0,.212.007.423.012.636.006.19.07.266.262.323h.183a.291.291,0,0,0,.3-.249,2.372,2.372,0,0,0,.02-.63c0-.146.046-.178.181-.175.323.009.645,0,.968,0,0,.236,0,.474.009.71a.33.33,0,0,0,.285.34h.182a.341.341,0,0,0,.327-.355c0-.19.007-.37,0-.556,0-.114.038-.144.147-.142.339.006.677,0,1.016,0a6.033,6.033,0,0,1,.006.807c-.013.018-.013.033.008.044l.046.066h0l.09.087a.045.045,0,0,0,.057.04h.071a.036.036,0,0,0,.009.014c.025.03.05.027.075,0l.095-.011a.285.285,0,0,0,.3-.31v-.619c0-.088.029-.123.12-.121h.524a.907.907,0,0,1,.721.805.139.139,0,0,0-.024.105v1.638a.139.139,0,0,0,.025.105c-.042.052-.095.025-.147.025H93.571c-.056,0-.118.023-.166-.028a.453.453,0,0,0,.02-.09v-1.653A.138.138,0,0,0,93.38,216.511Zm8.2,1.456v-.707c0-.047.024-.107-.042-.138h-.165c-.046.013-.047.051-.046.089v.809c0,.031,0,.064.038.079a.741.741,0,0,0,.4.016c.031-.021.028-.052.028-.083a.058.058,0,0,0-.061-.055Zm-1.91-.693a.062.062,0,0,0-.034.064v.58c0,.039.007.073.048.087.08.071.12.2.279.131a.251.251,0,0,0,.181-.264c0-.052.024-.122-.074-.125s-.08.062-.082.119,0,.115-.08.112-.072-.065-.073-.119V217.4c0-.05-.013-.116.063-.126s.095.052.095.113.03.083.089.081c.076,0,.064-.055.065-.1a.216.216,0,0,0-.162-.242.246.246,0,0,0-.315.153Zm2.458.828c.083.1.2.042.3.054.074.009.14,0,.145-.1s-.078-.081-.133-.079c-.095,0-.145-.014-.131-.12.009-.077-.033-.184.114-.168.049.006.095,0,.095-.069s-.028-.085-.087-.082c-.076,0-.116-.025-.124-.107-.011-.118.018-.181.152-.16.046.007.109.023.113-.066s-.057-.083-.115-.083h-.319c-.062.024-.045.078-.045.122v.746C102.087,218.03,102.072,218.076,102.124,218.1Zm3.415,0a.085.085,0,0,0,.119.046c.044-.016.054-.061.055-.1v-.208c0-.042-.026-.108.047-.114s.095.056.095.119v.208c0,.069.045.075.095.074s.073-.028.068-.081a1.4,1.4,0,0,0-.021-.285.332.332,0,0,1,0-.244c.071-.19,0-.359-.139-.379a.5.5,0,0,0-.326.015c-.034.017-.036.049-.036.082v.8c0,.029.009.061.044.077Zm-1.233-.134c.083-.052.045-.137.041-.2-.01-.163.049-.333-.038-.49a.268.268,0,0,0-.293-.159h-.19c-.043.013-.052.046-.052.086v.833a.059.059,0,0,0,.038.062.367.367,0,0,0,.5-.128Zm-.86.128c.012-.015.036-.03.036-.046V217.2c0-.016-.024-.031-.036-.046-.107-.065-.166-.049-.164.09a.294.294,0,0,1-.026.2c-.077-.045-.062-.118-.08-.174-.053-.167-.095-.184-.256-.105-.009,0-.018-.007-.028-.009a.017.017,0,0,0-.009.009v.892c0,.015.025.03.038.045.032,0,.026.078.083.042s.074-.049.073-.107v-.49a2.216,2.216,0,0,1,.152.453c.034.134.093.183.218.105Zm-2.692-.973c-.109-.028-.138.036-.151.127-.038.256-.079.512-.12.768-.007.046-.029.111.03.117a.1.1,0,0,0,.123-.095c0-.065.021-.106.1-.1s.1.036.109.1.016.127.1.1.069-.072.058-.139c-.042-.25-.071-.5-.109-.754C100.884,217.177,100.869,217.092,100.753,217.124Zm4.425.863c-.037-.226-.084-.487-.12-.749-.012-.085-.04-.116-.128-.117s-.135.023-.147.118c-.036.263-.082.524-.122.786-.008.046-.03.113.028.12a.1.1,0,0,0,.12-.095c0-.063.022-.106.1-.105s.1.042.108.1.049.084.11.08C105.209,218.118,105.185,218.065,105.178,217.987Z" transform="translate(-87.868 -198.282)" fill="#ec5150"/>
        <path id="Path_44243" data-name="Path 44243" d="M238.515,286.108a.646.646,0,0,1,.648.69.664.664,0,1,1-.648-.69Z" transform="translate(-218.62 -262.029)" fill="#c5c4c4"/>
        <path id="Path_44244" data-name="Path 44244" d="M161.044,286a.673.673,0,0,1,.674.664.664.664,0,1,1-1.328.007A.677.677,0,0,1,161.044,286Z" transform="translate(-148.521 -261.931)" fill="#c5c4c4"/>
        <path id="Path_44245" data-name="Path 44245" d="M186.869,287.338a.669.669,0,1,1,0-1.338.7.7,0,0,1,.664.679A.694.694,0,0,1,186.869,287.338Z" transform="translate(-171.883 -261.931)" fill="#c5c4c4"/>
        <path id="Path_44246" data-name="Path 44246" d="M186.18,342.259a.669.669,0,1,1,1.338,0,.706.706,0,0,1-.664.664A.719.719,0,0,1,186.18,342.259Z" transform="translate(-171.865 -312.247)" fill="#c5c4c4"/>
        <path id="Path_44247" data-name="Path 44247" d="M212.068,286.7a.658.658,0,0,1,.678-.673.691.691,0,0,1,.658.669.7.7,0,0,1-.664.664A.672.672,0,0,1,212.068,286.7Z" transform="translate(-195.297 -261.955)" fill="#c5c4c4"/>
        <path id="Path_44248" data-name="Path 44248" d="M110.1,342.147a.637.637,0,0,1-.677.664.657.657,0,0,1-.633-.669.664.664,0,0,1,.638-.664.634.634,0,0,1,.672.669Z" transform="translate(-101.816 -312.145)" fill="#c5c4c4"/>
        <path id="Path_44249" data-name="Path 44249" d="M186.852,259.7a.643.643,0,0,1-.673-.655.677.677,0,0,1,.664-.656.664.664,0,0,1,.67.65A.64.64,0,0,1,186.852,259.7Z" transform="translate(-171.864 -236.94)" fill="#c5c4c4"/>
        <path id="Path_44250" data-name="Path 44250" d="M161.177,341.49a.664.664,0,0,1,.657.657.657.657,0,1,1-.657-.657Z" transform="translate(-148.639 -312.157)" fill="#c5c4c4"/>
        <path id="Path_44251" data-name="Path 44251" d="M135.327,259.7a.623.623,0,0,1-.656-.641.636.636,0,0,1,.636-.67.649.649,0,0,1,.677.664A.639.639,0,0,1,135.327,259.7Z" transform="translate(-125.242 -236.934)" fill="#c5c4c4"/>
        <path id="Path_44252" data-name="Path 44252" d="M110.073,286.714a.635.635,0,0,1-.657.664.675.675,0,0,1-.656-.664.664.664,0,0,1,.651-.664A.648.648,0,0,1,110.073,286.714Z" transform="translate(-101.789 -261.975)" fill="#c5c4c4"/>
        <path id="Path_44253" data-name="Path 44253" d="M238.6,313.874a.656.656,0,1,1-.664.658.636.636,0,0,1,.664-.658Z" transform="translate(-218.71 -287.16)" fill="#c5c4c4"/>
        <path id="Path_44254" data-name="Path 44254" d="M135.959,286.69a.657.657,0,1,1-1.314-.042.657.657,0,1,1,1.314.042Z" transform="translate(-125.219 -261.939)" fill="#c5c4c4"/>
        <path id="Path_44255" data-name="Path 44255" d="M213.417,342.164c.053.32-.322.655-.643.654a.689.689,0,0,1-.664-.69.664.664,0,0,1,.671-.648A.64.64,0,0,1,213.417,342.164Z" transform="translate(-195.335 -312.147)" fill="#c5c4c4"/>
        <path id="Path_44256" data-name="Path 44256" d="M265.17,286.676a.664.664,0,0,1-.675.664.641.641,0,0,1-.635-.69.664.664,0,0,1,.649-.651.673.673,0,0,1,.661.676Z" transform="translate(-242.175 -261.931)" fill="#c5c4c4"/>
        <path id="Path_44257" data-name="Path 44257" d="M160.512,259.013a.631.631,0,0,1,.641-.664.656.656,0,0,1,.664.642.649.649,0,0,1-.683.674C160.837,259.687,160.448,259.335,160.512,259.013Z" transform="translate(-148.626 -236.903)" fill="#c5c4c4"/>
        <path id="Path_44258" data-name="Path 44258" d="M265.121,342.169a.644.644,0,0,1-.664.649.664.664,0,0,1,.009-1.328.664.664,0,0,1,.656.679Z" transform="translate(-242.126 -312.157)" fill="#c5c4c4"/>
        <path id="Path_44259" data-name="Path 44259" d="M110.118,314.491a.654.654,0,1,1-1.308.007.654.654,0,1,1,1.308-.007Z" transform="translate(-101.835 -287.116)" fill="#ec5150"/>
        <path id="Path_44260" data-name="Path 44260" d="M239.216,342.129a.65.65,0,0,1-.674.674.664.664,0,0,1-.644-.674.7.7,0,0,1,.647-.658.664.664,0,0,1,.671.659Z" transform="translate(-218.677 -312.138)" fill="#c5c4c4"/>
        <path id="Path_44261" data-name="Path 44261" d="M213.358,314.5a.639.639,0,0,1-.649.653.682.682,0,0,1-.664-.664.668.668,0,0,1,.677-.656A.646.646,0,0,1,213.358,314.5Z" transform="translate(-195.276 -287.125)" fill="#c5c4c4"/>
        <path id="Path_44262" data-name="Path 44262" d="M238.661,259.7a.638.638,0,0,1-.664-.638.654.654,0,0,1,.664-.674.636.636,0,0,1,.645.659.624.624,0,0,1-.645.652Z" transform="translate(-218.766 -236.939)" fill="#c5c4c4"/>
        <path id="Path_44263" data-name="Path 44263" d="M264.472,259.7a.656.656,0,1,1-.013-1.311.664.664,0,0,1,.664.664.629.629,0,0,1-.651.647Z" transform="translate(-242.13 -236.94)" fill="#c5c4c4"/>
        <path id="Path_44264" data-name="Path 44264" d="M186.8,315.128a.664.664,0,1,1,.48-.181A.671.671,0,0,1,186.8,315.128Z" transform="translate(-171.838 -287.103)" fill="#c5c4c4"/>
        <path id="Path_44265" data-name="Path 44265" d="M135.327,315.191a.656.656,0,1,1,.03-1.311.64.64,0,0,1,.634.675.633.633,0,0,1-.664.636Z" transform="translate(-125.25 -287.166)" fill="#c5c4c4"/>
        <path id="Path_44266" data-name="Path 44266" d="M110.1,259.031a.655.655,0,1,1-1.31-.022.664.664,0,0,1,.673-.641A.638.638,0,0,1,110.1,259.031Z" transform="translate(-101.816 -236.92)" fill="#c5c4c4"/>
        <path id="Path_44267" data-name="Path 44267" d="M213.363,259.049a.631.631,0,0,1-.642.655.664.664,0,0,1-.671-.671.674.674,0,0,1,.673-.645.63.63,0,0,1,.64.66Z" transform="translate(-195.28 -236.939)" fill="#c5c4c4"/>
        <path id="Path_44268" data-name="Path 44268" d="M264.49,313.869a.644.644,0,0,1,.651.656.636.636,0,0,1-.649.656.656.656,0,1,1,0-1.311Z" transform="translate(-242.146 -287.155)" fill="#c5c4c4"/>
        <path id="Path_44269" data-name="Path 44269" d="M161.191,315.192a.656.656,0,1,1,.664-.678A.663.663,0,0,1,161.191,315.192Z" transform="translate(-148.661 -287.166)" fill="#c5c4c4"/>
        <path id="Path_44270" data-name="Path 44270" d="M135.986,342.164a.646.646,0,0,1-.664.664.637.637,0,0,1-.645-.679.655.655,0,1,1,1.309.015Z" transform="translate(-125.246 -312.165)" fill="#c5c4c4"/>
        <path id="Path_44271" data-name="Path 44271" d="M107.016,210.454a.329.329,0,0,1-.285-.336c0-.238-.008-.474-.011-.714a.064.064,0,0,0,.009-.024.815.815,0,0,0,.027-.342.306.306,0,0,1,.4-.305c-.046.011-.066.028-.022.07a.435.435,0,0,1,.112.35c-.007.292-.009.584,0,.877A.436.436,0,0,1,107.016,210.454Z" transform="translate(-99.943 -191.981)" fill="#706d6d"/>
        <path id="Path_44272" data-name="Path 44272" d="M250.294,210.548a.33.33,0,0,1-.285-.34c0-.236-.007-.474-.009-.71a.1.1,0,0,0,.009-.026.892.892,0,0,0,.024-.34c.014-.217.168-.348.357-.3a.746.746,0,0,1,.129.5c-.012.259-.01.519,0,.778A.428.428,0,0,1,250.294,210.548Z" transform="translate(-229.63 -192.076)" fill="#706d6d"/>
        <path id="Path_44273" data-name="Path 44273" d="M127.479,210.495a.318.318,0,0,1-.285-.354c-.008-.231.013-.463-.014-.694a.056.056,0,0,0,.009-.029.919.919,0,0,0,.025-.356.292.292,0,0,1,.329-.294.671.671,0,0,1,.158.54c-.009.249-.006.5,0,.746A.459.459,0,0,1,127.479,210.495Z" transform="translate(-118.462 -192.023)" fill="#706d6d"/>
        <path id="Path_44274" data-name="Path 44274" d="M209.294,210.472a.349.349,0,0,1-.285-.379c-.008-.217-.007-.448-.009-.671a.259.259,0,0,0,.009-.025.906.906,0,0,0,.024-.327.311.311,0,0,1,.321-.33.6.6,0,0,1,.162.491c-.012.28-.009.562,0,.841A.379.379,0,0,1,209.294,210.472Z" transform="translate(-192.52 -192)" fill="#706d6d"/>
        <path id="Path_44275" data-name="Path 44275" d="M168.455,210.481a.307.307,0,0,1-.26-.338,6.8,6.8,0,0,0-.015-.709l.011-.033a1.192,1.192,0,0,0,.017-.328.308.308,0,0,1,.34-.323.684.684,0,0,1,.13.5c-.009.28-.01.56,0,.84A.343.343,0,0,1,168.455,210.481Z" transform="translate(-155.572 -192.009)" fill="#706d6d"/>
        <path id="Path_44276" data-name="Path 44276" d="M270.78,210.27a6.2,6.2,0,0,0,0-.807.054.054,0,0,1,.008-.033c0-.116,0-.231.008-.346a.3.3,0,0,1,.4-.3c-.024.011-.069.009-.023.055a.46.46,0,0,1,.11.368c-.006.285-.01.569,0,.854a.447.447,0,0,1-.221.44h-.071c0-.033-.021-.05-.057-.04l-.09-.086v-.007h-.007l-.045-.065v-.015A.155.155,0,0,0,270.78,210.27Z" transform="translate(-248.439 -192.034)" fill="#706d6d"/>
        <path id="Path_44277" data-name="Path 44277" d="M230,210.482c-.19-.057-.256-.136-.262-.323-.006-.213-.008-.424-.012-.636l.006-.007v-.007a.389.389,0,0,0,0-.074c0-.025.007-.022.009-.032,0-.116,0-.232.009-.348a.3.3,0,0,1,.355-.3.683.683,0,0,1,.125.493c-.008.274-.01.549,0,.823A.406.406,0,0,1,230,210.482Z" transform="translate(-211.282 -192.009)" fill="#706d6d"/>
        <path id="Path_44278" data-name="Path 44278" d="M189,210.546a.319.319,0,0,1-.261-.329c-.006-.249-.009-.5-.012-.748,0-.105,0-.212.011-.317a.318.318,0,0,1,.341-.329.511.511,0,0,1,.143.418c-.01.3-.009.6,0,.906A.379.379,0,0,1,189,210.546Z" transform="translate(-174.173 -192.074)" fill="#706d6d"/>
        <path id="Path_44279" data-name="Path 44279" d="M147.967,210.491a.285.285,0,0,1-.246-.317c0-.238-.008-.474-.011-.714a.042.042,0,0,0,.009-.026.948.948,0,0,0,.022-.342.3.3,0,0,1,.333-.311.6.6,0,0,1,.131.467c-.009.312,0,.625,0,.937a.27.27,0,0,1-.237.306Z" transform="translate(-137.044 -192.035)" fill="#706d6d"/>
        <path id="Path_44280" data-name="Path 44280" d="M191.61,210.554a.38.38,0,0,0,.222-.4c-.009-.3-.01-.6,0-.906a.511.511,0,0,0-.143-.418.312.312,0,0,1,.3.333c0,.1.008.208.011.311a3.167,3.167,0,0,0-.009.584.582.582,0,0,1-.176.5A.59.59,0,0,1,191.61,210.554Z" transform="translate(-176.78 -192.081)" fill="#564848"/>
        <path id="Path_44281" data-name="Path 44281" d="M150.42,210.51a.27.27,0,0,0,.235-.306c0-.312-.007-.625,0-.937a.581.581,0,0,0-.131-.467.3.3,0,0,1,.285.314c0,.11.008.22.01.331,0,.206-.015.414-.008.619a.48.48,0,0,1-.194.474C150.554,210.527,150.482,210.561,150.42,210.51Z" transform="translate(-139.497 -192.054)" fill="#564848"/>
        <path id="Path_44282" data-name="Path 44282" d="M171.08,210.481a.351.351,0,0,0,.224-.39c-.011-.285-.009-.56,0-.84a.684.684,0,0,0-.13-.5.32.32,0,0,1,.285.338,1.289,1.289,0,0,0,.016.314,3.438,3.438,0,0,0-.01.6.533.533,0,0,1-.2.488Z" transform="translate(-158.197 -192.009)" fill="#564848"/>
        <path id="Path_44283" data-name="Path 44283" d="M212.1,210.49a.379.379,0,0,0,.224-.4c-.008-.285-.011-.562,0-.841a.6.6,0,0,0-.162-.491.293.293,0,0,1,.3.31c.007.113-.031.23.028.339,0,.2-.018.4-.009.6a.584.584,0,0,1-.175.484Z" transform="translate(-195.326 -192.018)" fill="#564848"/>
        <path id="Path_44284" data-name="Path 44284" d="M130.33,210.517a.459.459,0,0,0,.222-.442c0-.249-.008-.5,0-.746a.671.671,0,0,0-.158-.54.285.285,0,0,1,.285.307c.009.113-.032.231.028.34,0,.2-.015.394,0,.589a.543.543,0,0,1-.2.493Z" transform="translate(-121.313 -192.045)" fill="#564848"/>
        <path id="Path_44285" data-name="Path 44285" d="M273.67,210.617a.447.447,0,0,0,.221-.44c-.01-.285-.007-.569,0-.854a.46.46,0,0,0-.11-.368c-.046-.046,0-.044.023-.055a.309.309,0,0,1,.221.323c.006.106-.032.217.028.32,0,.19-.016.388-.006.582a.545.545,0,0,1-.2.5l-.095.011h-.075A.036.036,0,0,1,273.67,210.617Z" transform="translate(-251.055 -192.145)" fill="#564848"/>
        <path id="Path_44286" data-name="Path 44286" d="M232.62,210.527a.406.406,0,0,0,.224-.416c-.011-.274-.009-.549,0-.823a.662.662,0,0,0-.127-.487.285.285,0,0,1,.263.311.788.788,0,0,0,.026.336c0,.194-.017.389,0,.582a.542.542,0,0,1-.2.5Z" transform="translate(-213.899 -192.054)" fill="#564848"/>
        <path id="Path_44287" data-name="Path 44287" d="M109.84,210.581a.436.436,0,0,0,.222-.424c-.009-.292-.007-.584,0-.877a.435.435,0,0,0-.112-.35c-.045-.042-.024-.059.022-.07a.292.292,0,0,1,.22.308,1.487,1.487,0,0,0,.014.331,3.066,3.066,0,0,0-.01.6.541.541,0,0,1-.176.482Z" transform="translate(-102.767 -192.109)" fill="#564848"/>
        <path id="Path_44288" data-name="Path 44288" d="M253.1,210.644a.428.428,0,0,0,.227-.434c-.01-.259-.012-.519,0-.778a.746.746,0,0,0-.129-.5.259.259,0,0,1,.259.285c.007.115.009.23.014.344a3.219,3.219,0,0,0-.01.6.54.54,0,0,1-.178.49Z" transform="translate(-232.436 -192.172)" fill="#564848"/>
        <path id="Path_44289" data-name="Path 44289" d="M255,216.706a.526.526,0,0,0,.178-.49,3.221,3.221,0,0,1,.01-.6H256.5a.142.142,0,0,1-.008.033h-1.017c-.109,0-.152.028-.147.142.008.19.006.371,0,.556a.341.341,0,0,1-.326.355Z" transform="translate(-234.156 -198.227)" fill="#c63d36"/>
        <path id="Path_44290" data-name="Path 44290" d="M111.73,216.706a.541.541,0,0,0,.176-.482,3.063,3.063,0,0,1,.01-.6l1.289.006a.056.056,0,0,1-.009.029H112.18c-.095,0-.139.007-.129.126a5.208,5.208,0,0,1,0,.569.331.331,0,0,1-.321.356Z" transform="translate(-104.478 -198.227)" fill="#c63d36"/>
        <path id="Path_44291" data-name="Path 44291" d="M152.54,216.654a.486.486,0,0,0,.194-.474c-.008-.2,0-.414.008-.619h1.293l-.011.033c-.341,0-.68,0-1.021,0-.109,0-.151.029-.146.143.009.19,0,.372,0,.558C152.857,216.529,152.773,216.621,152.54,216.654Z" transform="translate(-141.416 -198.173)" fill="#c63d36"/>
        <path id="Path_44292" data-name="Path 44292" d="M193.76,216.672a.582.582,0,0,0,.176-.5,3.166,3.166,0,0,1,.009-.584l1.273.009a.258.258,0,0,1-.009.025c-.335,0-.669,0-1,0-.109,0-.152.028-.147.142.009.19,0,.379,0,.569A.3.3,0,0,1,193.76,216.672Z" transform="translate(-178.726 -198.2)" fill="#c63d36"/>
        <path id="Path_44293" data-name="Path 44293" d="M214.27,216.672a.584.584,0,0,0,.176-.484c-.009-.2,0-.4.009-.6h1.289a.107.107,0,0,1-.01.032h-1.019c-.114,0-.148.037-.143.147.007.185.006.372,0,.557A.326.326,0,0,1,214.27,216.672Z" transform="translate(-197.29 -198.2)" fill="#c63d36"/>
        <path id="Path_44294" data-name="Path 44294" d="M234.55,216.724a.542.542,0,0,0,.2-.5c-.012-.19,0-.388,0-.582l1.276,0a.1.1,0,0,1-.009.026c-.323,0-.645.009-.968,0-.136,0-.19.028-.181.175a2.372,2.372,0,0,1-.02.63.291.291,0,0,1-.3.25Z" transform="translate(-215.646 -198.245)" fill="#c63d36"/>
        <path id="Path_44295" data-name="Path 44295" d="M132.24,216.732a.543.543,0,0,0,.2-.493c-.012-.2,0-.393,0-.589h1.275a.042.042,0,0,1-.009.026c-.339,0-.677.007-1.016,0-.116,0-.161.028-.156.151.009.2.006.4,0,.6A.281.281,0,0,1,132.24,216.732Z" transform="translate(-123.042 -198.255)" fill="#c63d36"/>
        <path id="Path_44296" data-name="Path 44296" d="M173,216.718a.533.533,0,0,0,.2-.488,3.435,3.435,0,0,1,.01-.6l.144,0a1.821,1.821,0,0,0-.03.532c0,.073,0,.148,0,.222C173.318,216.6,173.23,216.689,173,216.718Z" transform="translate(-159.935 -198.236)" fill="#c63d36"/>
        <path id="Path_44297" data-name="Path 44297" d="M275.52,216.674a.545.545,0,0,0,.2-.5c-.01-.19,0-.388.006-.582a3.371,3.371,0,0,1,.738.029c-.175,0-.349.006-.524,0-.09,0-.121.033-.12.121,0,.206,0,.413,0,.619a.285.285,0,0,1-.3.312Z" transform="translate(-252.729 -198.196)" fill="#c63d36"/>
        <path id="Path_44298" data-name="Path 44298" d="M292.814,226.3a.14.14,0,0,1-.025-.105v-1.638a.139.139,0,0,1,.024-.105Q292.833,225.374,292.814,226.3Z" transform="translate(-268.358 -206.22)" fill="#c63d36"/>
        <path id="Path_44299" data-name="Path 44299" d="M93.285,224.44a.137.137,0,0,1,.025.1V226.2a.455.455,0,0,1-.02.09c-.028-.446-.006-.892-.011-1.338C93.277,224.778,93.283,224.61,93.285,224.44Z" transform="translate(-87.774 -206.211)" fill="#c63d36"/>
        <path id="Path_44300" data-name="Path 44300" d="M101.548,215.61a.065.065,0,0,1-.009.024l-.54,0A1.611,1.611,0,0,1,101.548,215.61Z" transform="translate(-94.765 -198.21)" fill="#c63d36"/>
        <path id="Path_44301" data-name="Path 44301" d="M194,230.848c.166-.079.2-.062.256.105.018.056,0,.129.08.174a.294.294,0,0,0,.026-.2c0-.139.057-.156.164-.09v.949c-.125.077-.184.028-.214-.1a2.216,2.216,0,0,0-.152-.453v.49c0,.058-.029.081-.073.107s-.051-.038-.083-.042C194,231.473,194,231.161,194,230.848Z" transform="translate(-178.943 -211.969)" fill="#f4f4f4"/>
        <path id="Path_44302" data-name="Path 44302" d="M203.459,230.8a1.8,1.8,0,0,0,.19,0,.268.268,0,0,1,.293.159v.692a.361.361,0,0,1-.491.128C203.45,231.454,203.454,231.128,203.459,230.8Zm.269.836a1.559,1.559,0,0,0,.026-.649c-.02-.044-.056-.031-.095-.025s-.041.04-.041.068c0,.2,0,.4.008.6C203.659,231.675,203.692,231.656,203.728,231.636Z" transform="translate(-187.496 -211.964)" fill="#f4f4f4"/>
        <path id="Path_44303" data-name="Path 44303" d="M221.53,230.809a.5.5,0,0,1,.329-.014c.14.026.21.2.139.379a.332.332,0,0,0,0,.244,1.4,1.4,0,0,1,.021.285c0,.053-.013.079-.068.081s-.095-.009-.095-.074V231.5c0-.069-.014-.125-.095-.119s-.045.072-.047.114v.208a.1.1,0,0,1-.055.1.085.085,0,0,1-.119-.047Zm.176.256c0,.067-.012.152.075.153s.066-.081.066-.137.017-.142-.079-.143S221.721,231.023,221.705,231.065Z" transform="translate(-203.861 -211.943)" fill="#f4f4f4"/>
        <path id="Path_44304" data-name="Path 44304" d="M168.418,230.833c.116-.032.131.053.143.131.038.251.067.5.109.754.011.066.012.12-.058.139s-.095-.047-.1-.1a.1.1,0,0,0-.109-.1c-.079,0-.1.04-.1.1a.1.1,0,0,1-.123.095c-.06-.006-.037-.07-.03-.117.042-.256.083-.512.12-.768C168.28,230.869,168.313,230.806,168.418,230.833Zm.017.41a.245.245,0,0,0-.095.2c0,.052.025.062.066.06s.059-.015.052-.058C168.451,231.38,168.443,231.317,168.435,231.243Z" transform="translate(-155.533 -211.991)" fill="#f4f4f4"/>
        <path id="Path_44305" data-name="Path 44305" d="M212.7,231.736c.007.082.03.135-.048.141-.061,0-.1-.009-.11-.08s-.028-.1-.108-.1-.1.043-.1.105a.1.1,0,0,1-.12.095c-.058-.008-.035-.075-.027-.12.041-.262.086-.523.122-.785.012-.095.057-.118.147-.118s.116.031.128.117C212.62,231.246,212.668,231.507,212.7,231.736Zm-.32-.294c0,.047-.032.107.053.106.046,0,.075-.016.06-.065s.016-.168-.06-.176-.027.09-.053.132Z" transform="translate(-195.395 -212.031)" fill="#f4f4f4"/>
        <path id="Path_44306" data-name="Path 44306" d="M185.576,230.876h.319c.058,0,.119-.011.115.083s-.066.073-.113.066c-.134-.021-.163.043-.152.16.009.083.048.112.124.107.059,0,.088.019.087.082s-.047.075-.095.069c-.147-.016-.1.095-.114.168-.014.106.041.124.131.12.055,0,.138-.032.133.079s-.071.11-.145.1c-.095-.012-.212.046-.3-.054C185.57,231.53,185.573,231.2,185.576,230.876Z" transform="translate(-171.313 -212.036)" fill="#f4f4f4"/>
        <path id="Path_44307" data-name="Path 44307" d="M159.572,230.911a.246.246,0,0,1,.31-.153.216.216,0,0,1,.162.242c0,.046.011.095-.064.1-.059,0-.089-.017-.089-.081s-.006-.125-.095-.113-.062.076-.063.126v.461c0,.053,0,.116.073.119s.079-.056.08-.112-.012-.12.082-.119.072.073.074.125a.251.251,0,0,1-.181.264c-.158.065-.2-.06-.279-.131a5.863,5.863,0,0,1-.009-.73Z" transform="translate(-147.774 -211.918)" fill="#f4f4f4"/>
        <path id="Path_44308" data-name="Path 44308" d="M177.508,230.88h.165c0,.236,0,.474.008.709,0,.045-.036.106.035.136l.156.009c.035,0,.061.015.061.055s0,.063-.028.083a.741.741,0,0,1-.4-.016Q177.5,231.366,177.508,230.88Z" transform="translate(-164.008 -212.04)" fill="#f4f4f4"/>
        <path id="Path_44309" data-name="Path 44309" d="M177.141,230.88q0,.49-.008.977c-.037-.015-.038-.047-.038-.079v-.809C177.093,230.931,177.094,230.891,177.141,230.88Z" transform="translate(-163.641 -212.04)" fill="#c63d36"/>
        <path id="Path_44310" data-name="Path 44310" d="M203.048,230.84c0,.327-.009.654-.013.981a.059.059,0,0,1-.038-.062q0-.417,0-.833A.077.077,0,0,1,203.048,230.84Z" transform="translate(-187.086 -212.004)" fill="#c63d36"/>
        <path id="Path_44311" data-name="Path 44311" d="M193.638,231.2v.937c-.013-.014-.038-.029-.038-.045V231.2a.017.017,0,0,1,.009-.009Z" transform="translate(-178.581 -212.32)" fill="#c63d36"/>
        <path id="Path_44312" data-name="Path 44312" d="M185.188,230.88c0,.327-.006.654-.008.981-.048-.027-.037-.073-.037-.113V231C185.144,230.958,185.128,230.9,185.188,230.88Z" transform="translate(-170.925 -212.04)" fill="#c63d36"/>
        <path id="Path_44313" data-name="Path 44313" d="M199.51,232.129v-.949c.012.015.036.03.036.046v.854C199.546,232.1,199.522,232.112,199.51,232.129Z" transform="translate(-183.93 -212.311)" fill="#c63d36"/>
        <path id="Path_44314" data-name="Path 44314" d="M221.159,231.15v.957c-.035-.016-.039-.047-.039-.08v-.8C221.123,231.2,221.125,231.167,221.159,231.15Z" transform="translate(-203.49 -212.284)" fill="#c63d36"/>
        <path id="Path_44315" data-name="Path 44315" d="M179.351,231.734c-.071-.029-.034-.095-.035-.136-.006-.236-.006-.474-.008-.709.065.03.042.095.042.138C179.352,231.264,179.351,231.5,179.351,231.734Z" transform="translate(-165.644 -212.049)" fill="#c63d36"/>
        <path id="Path_44316" data-name="Path 44316" d="M159.292,232.49a5.867,5.867,0,0,0,.012.73c-.042-.014-.048-.048-.048-.087v-.58A.062.062,0,0,1,159.292,232.49Z" transform="translate(-147.494 -213.497)" fill="#c63d36"/>
        <path id="Path_44317" data-name="Path 44317" d="M208.58,233.232v-.692c.087.157.028.326.038.49C208.625,233.095,208.663,233.179,208.58,233.232Z" transform="translate(-192.14 -213.542)" fill="#c63d36"/>
        <path id="Path_44318" data-name="Path 44318" d="M272.32,226.591c.036-.01.052.007.057.04a.045.045,0,0,1-.057-.04Z" transform="translate(-249.833 -208.155)" fill="#c63d36"/>
        <path id="Path_44319" data-name="Path 44319" d="M273.76,227.18h.075C273.81,227.207,273.783,227.21,273.76,227.18Z" transform="translate(-251.136 -208.691)" fill="#c63d36"/>
        <path id="Path_44320" data-name="Path 44320" d="M270.695,224.51a.157.157,0,0,1,.01.029v.015C270.681,224.543,270.681,224.528,270.695,224.51Z" transform="translate(-248.354 -206.274)" fill="#c63d36"/>
        <path id="Path_44321" data-name="Path 44321" d="M229.695,216.78l0,.007-.006.007,0-.007Z" transform="translate(-211.247 -199.277)" fill="#c63d36"/>
        <path id="Path_44322" data-name="Path 44322" d="M271.34,225.643l.007,0,0,.007Z" transform="translate(-248.946 -207.297)" fill="#c63d36"/>
        <path id="Path_44323" data-name="Path 44323" d="M205.456,232.485c.034-.007.07-.019.095.025a2.7,2.7,0,0,0-.026.649c-.035.02-.069.039-.095-.009.048-.041.03-.095.031-.147C205.456,232.83,205.456,232.658,205.456,232.485Z" transform="translate(-189.289 -213.486)" fill="#ec5150"/>
        <path id="Path_44324" data-name="Path 44324" d="M205.315,232.55v.518c0,.05.017.106-.031.147,0-.2-.006-.4-.008-.6C205.275,232.593,205.268,232.553,205.315,232.55Z" transform="translate(-189.148 -213.551)" fill="#c63d36"/>
        <path id="Path_44325" data-name="Path 44325" d="M206.31,233.459a2.7,2.7,0,0,1,.026-.649A1.559,1.559,0,0,1,206.31,233.459Z" transform="translate(-190.078 -213.787)" fill="#c63d36"/>
        <path id="Path_44326" data-name="Path 44326" d="M223.375,232.637c.015-.042-.037-.127.063-.127s.078.083.079.143.014.137-.066.137S223.377,232.7,223.375,232.637Z" transform="translate(-205.531 -213.515)" fill="#ec5150"/>
        <path id="Path_44327" data-name="Path 44327" d="M170.38,235.22c.009.069.016.137.025.2.007.043-.015.056-.052.058s-.071-.008-.066-.06A.245.245,0,0,1,170.38,235.22Z" transform="translate(-157.478 -215.968)" fill="#ec5150"/>
        <path id="Path_44328" data-name="Path 44328" d="M214.322,235.561c.026-.042-.017-.144.053-.136s.041.115.06.176-.014.065-.06.065C214.286,235.669,214.325,235.608,214.322,235.561Z" transform="translate(-197.332 -216.153)" fill="#ec5150"/>
        <path id="Path_44329" data-name="Path 44329" d="M139.977,208.6l1.282,1.771-9.4,4.427-2.87,1.064s-.561,1.032,1.283.336l1.283-.427s1.112,2.635,2.628,1.65.975-1.9.975-1.9,9.556-2.848,9.4-4.689c-.173-2.087-2.839-5.048-2.839-5.048Z" transform="translate(-120.023 -189.33)" fill="#dd7131"/>
        <path id="Path_44330" data-name="Path 44330" d="M201.969,219.206a15.568,15.568,0,0,1,1.474,3.124,1.182,1.182,0,0,1-.664,1.556c-1.118.631-8,3.532-8,3.532s3.744-1.219,5.882-2.155a10.511,10.511,0,0,0,3.3-1.946s.407-.285.143-1.018a7.739,7.739,0,0,0-1.833-3.379Z" transform="translate(-179.649 -201.214)" fill="#b5632b"/>
        <path id="Path_44331" data-name="Path 44331" d="M218,186.5l2.144,3.307,3.593-2.041s-2.555-2.763-3.167-2.947S218,186.5,218,186.5Z" transform="translate(-200.666 -170.337)" fill="#27488f"/>
        <path id="Path_44332" data-name="Path 44332" d="M240.57,215.653a.766.766,0,0,0,.84.457c.65-.073,3.215-2.092,2.727-2.545s-2.669,0-2.669,0Z" transform="translate(-221.095 -196.184)" fill="#27488f"/>
        <path id="Path_44333" data-name="Path 44333" d="M151.47,114.073a.822.822,0,0,1,.822-.5c.621.036.848.442.725.474s-.535-.342-.925-.274A1.233,1.233,0,0,0,151.47,114.073Z" transform="translate(-140.448 -105.86)" fill="#0b253f"/>
        <path id="Path_44334" data-name="Path 44334" d="M176.674,107.635a.931.931,0,0,0-1.074-.174c-.637.3-.7.823-.562.8s.416-.584.854-.679a1.4,1.4,0,0,1,.782.053Z" transform="translate(-161.725 -100.24)" fill="#0b253f"/>
        <path id="Path_44335" data-name="Path 44335" d="M167.07,136.206a.165.165,0,0,0-.2.095c-.034.1-.015.247.234.412.458.3,1.4.331,1.7-.308,0,0,.245-.6.132-.716s-.73.441-.863.506A1.17,1.17,0,0,1,167.07,136.206Z" transform="translate(-154.371 -125.864)" fill="#0b253f"/>
        <path id="Path_44336" data-name="Path 44336" d="M154.917,119.873s.678-.513,1.125-.066c0,0,.063.07-.028.042s-.261-.212-.48-.117S154.838,120.039,154.917,119.873Z" transform="translate(-143.56 -111.338)" fill="#0b253f"/>
        <path id="Path_44337" data-name="Path 44337" d="M179.439,114.21s.58-.623,1.1-.261c0,0,.074.059-.021.046s-.293-.162-.492-.03S179.395,114.383,179.439,114.21Z" transform="translate(-165.761 -106.099)" fill="#0b253f"/>
        <ellipse id="Ellipse_162" data-name="Ellipse 162" cx="0.267" cy="0.267" rx="0.267" ry="0.267" transform="translate(11.712 8.357)" fill="#0b253f"/>
        <ellipse id="Ellipse_163" data-name="Ellipse 163" cx="0.267" cy="0.267" rx="0.267" ry="0.267" transform="translate(13.945 7.858)" fill="#0b253f"/>
        <path id="Path_44338" data-name="Path 44338" d="M169.63,112.83c.021.133.036.267.055.4l.046.4c.031.268.056.535.083.8.013.133.027.268.043.4a1.593,1.593,0,0,0,.029.19.342.342,0,0,0,.095.152.4.4,0,0,0,.355.064,1.423,1.423,0,0,0,.372-.142,1.218,1.218,0,0,1-.36.19.592.592,0,0,1-.209.025.374.374,0,0,1-.2-.078.386.386,0,0,1-.124-.181,1.585,1.585,0,0,1-.04-.2c-.019-.135-.033-.268-.047-.4-.026-.268-.048-.537-.063-.805S169.631,113.1,169.63,112.83Z" transform="translate(-156.885 -105.189)" fill="#0b253f"/>
      </g>
    </g>
    <text id="Book_Appointment" data-name="Book Appointment" transform="translate(134 147)" fill="#221f20" font-size="10" font-family="RedHatText-Regular, Red Hat Text"><tspan x="0" y="0">Book Appointment</tspan></text>
  </g>
</svg>
