<svg xmlns="http://www.w3.org/2000/svg" width="14.229" height="16" viewBox="0 0 14.229 16">
  <path id="event_FILL0_wght300_GRAD0_opsz48" d="M149.624,204.762a1.807,1.807,0,0,1-1.334-.55,1.831,1.831,0,0,1-.546-1.339,1.807,1.807,0,0,1,.55-1.334,1.831,1.831,0,0,1,1.339-.546,1.807,1.807,0,0,1,1.334.55,1.831,1.831,0,0,1,.546,1.339,1.807,1.807,0,0,1-.55,1.334A1.831,1.831,0,0,1,149.624,204.762Zm-8.415,2.624A1.221,1.221,0,0,1,140,206.179V194.058a1.221,1.221,0,0,1,1.207-1.207h1.545v-.94a.515.515,0,0,1,.148-.372.492.492,0,0,1,.368-.152.525.525,0,0,1,.384.152.5.5,0,0,1,.154.372v.94h6.648V191.9a.495.495,0,0,1,.506-.511.516.516,0,0,1,.374.146.485.485,0,0,1,.15.363v.956h1.537a1.221,1.221,0,0,1,1.207,1.207v12.121a1.221,1.221,0,0,1-1.207,1.207Zm0-.95h11.815a.248.248,0,0,0,.258-.258v-8.314h-12.33v8.314a.248.248,0,0,0,.258.258Zm-.258-9.521h12.33v-2.857a.248.248,0,0,0-.258-.258H141.208a.248.248,0,0,0-.258.258Zm0,0v0Z" transform="translate(-140.001 -191.386)" fill="#fff"/>
</svg>
