<svg xmlns="http://www.w3.org/2000/svg" xmlns:xlink="http://www.w3.org/1999/xlink" width="42.449" height="29.366" viewBox="0 0 42.449 29.366">
  <defs>
    <clipPath id="clip-path">
      <rect id="Rectangle_2202" data-name="Rectangle 2202" width="8.84" height="5.004" transform="translate(0 0)" fill="#fff"/>
    </clipPath>
  </defs>
  <g id="Group_5488" data-name="Group 5488" transform="translate(-79 -1114.394)">
    <g id="Group_5483" data-name="Group 5483" transform="translate(38 5.081)">
      <path id="infinite_icons_eye_glass" data-name="infinite icons_eye glass" d="M43.251,16.344h-.324a.428.428,0,0,1-.378-.284,5.541,5.541,0,0,0-3.311-3.527,11.3,11.3,0,0,0-4.514-.892H13.182a14.176,14.176,0,0,0-4.689.676,5.527,5.527,0,0,0-3.7,3.176,1.135,1.135,0,0,1-1.351.892A1.041,1.041,0,0,0,2.33,17.466v1.351a1.108,1.108,0,0,0,1.027,1.095,1.811,1.811,0,0,0,.541,0c.365,0,.473.108.5.446a11.946,11.946,0,0,0,.919,3.676A6.379,6.379,0,0,0,13.1,28.02,11.852,11.852,0,0,0,19.993,23.1a12.311,12.311,0,0,0,2.162-6.622c0-.27.135-.351.378-.378a8.852,8.852,0,0,1,1.892,0c.284,0,.378.122.392.405A12.46,12.46,0,0,0,27.831,24.1a11.487,11.487,0,0,0,6.595,4.054,6.189,6.189,0,0,0,6.757-2.933A11.474,11.474,0,0,0,42.7,20.533c0-.568,0-.595.608-.568a1.351,1.351,0,0,0,1.473-.824V17.1a1.351,1.351,0,0,0-1.527-.757ZM5.168,18.6a5.406,5.406,0,0,0-.662,0,2.041,2.041,0,0,0-.405,0c-.392,0-.5-.068-.5-.487s.108-.514.5-.473a8.677,8.677,0,0,0,1.027,0c.149,0,.284,0,.378.135s.311.23.216.392S5.493,18.628,5.168,18.6Zm15.771-2.419a11.73,11.73,0,0,1-1.811,5.865,10.5,10.5,0,0,1-6.514,4.784,5,5,0,0,1-5.987-2.96,12.257,12.257,0,0,1-.987-3.743c0-.162,0-.189.176-.243A2.608,2.608,0,0,0,7.06,18.533a.838.838,0,0,0,0-.838,2.608,2.608,0,0,0-1.027-1.162c-.23-.135-.2-.23-.122-.419a4.433,4.433,0,0,1,2.554-2.406,13.325,13.325,0,0,1,5.041-.8h.7a19.717,19.717,0,0,1,4.365.365,6.23,6.23,0,0,1,.716.2,2.324,2.324,0,0,1,1.649,2.7Zm4.054-1.351c0,.135-.122.122-.23.108a8.568,8.568,0,0,0-2.351,0c-.257-.108-.257-.108-.257-.3a3.189,3.189,0,0,0-1.068-1.649c.095-.108.176-.081.257-.081h4.8a3.527,3.527,0,0,0-1.189,1.8ZM41.48,20.236a11.811,11.811,0,0,1-1.135,4.054,5.014,5.014,0,0,1-6.2,2.581,10.96,10.96,0,0,1-7.176-6.757,11.717,11.717,0,0,1-.8-4.054,2.311,2.311,0,0,1,1.743-2.581,11.041,11.041,0,0,1,3.095-.487h1.96a16.136,16.136,0,0,1,4.689.405,5.1,5.1,0,0,1,3.419,2.527c.149.284.23.473-.162.689a2.554,2.554,0,0,0-.892,1.027.919.919,0,0,0,0,.878,2.581,2.581,0,0,0,1.27,1.351c.135,0,.176.054.149.189Zm1.527-1.46a6.014,6.014,0,0,0-.987,0c-.2,0-.365,0-.459-.216s-.27-.162-.149-.324.2-.405.473-.405h.743a2.176,2.176,0,0,0,.419,0c.351,0,.473.068.487.459s-.149.351-.568.311Z" transform="translate(38.67 1110.363)" fill="#adaeae"/>
      <g id="Mask_Group_55" data-name="Mask Group 55" transform="translate(57.679 1122)" clip-path="url(#clip-path)">
        <path id="infinite_icons_eye_glass-2" data-name="infinite icons_eye glass" d="M43.251,16.344h-.324a.428.428,0,0,1-.378-.284,5.541,5.541,0,0,0-3.311-3.527,11.3,11.3,0,0,0-4.514-.892H13.182a14.176,14.176,0,0,0-4.689.676,5.527,5.527,0,0,0-3.7,3.176,1.135,1.135,0,0,1-1.351.892A1.041,1.041,0,0,0,2.33,17.466v1.351a1.108,1.108,0,0,0,1.027,1.095,1.811,1.811,0,0,0,.541,0c.365,0,.473.108.5.446a11.946,11.946,0,0,0,.919,3.676A6.379,6.379,0,0,0,13.1,28.02,11.852,11.852,0,0,0,19.993,23.1a12.311,12.311,0,0,0,2.162-6.622c0-.27.135-.351.378-.378a8.852,8.852,0,0,1,1.892,0c.284,0,.378.122.392.405A12.46,12.46,0,0,0,27.831,24.1a11.487,11.487,0,0,0,6.595,4.054,6.189,6.189,0,0,0,6.757-2.933A11.474,11.474,0,0,0,42.7,20.533c0-.568,0-.595.608-.568a1.351,1.351,0,0,0,1.473-.824V17.1a1.351,1.351,0,0,0-1.527-.757ZM5.168,18.6a5.406,5.406,0,0,0-.662,0,2.041,2.041,0,0,0-.405,0c-.392,0-.5-.068-.5-.487s.108-.514.5-.473a8.677,8.677,0,0,0,1.027,0c.149,0,.284,0,.378.135s.311.23.216.392S5.493,18.628,5.168,18.6Zm15.771-2.419a11.73,11.73,0,0,1-1.811,5.865,10.5,10.5,0,0,1-6.514,4.784,5,5,0,0,1-5.987-2.96,12.257,12.257,0,0,1-.987-3.743c0-.162,0-.189.176-.243A2.608,2.608,0,0,0,7.06,18.533a.838.838,0,0,0,0-.838,2.608,2.608,0,0,0-1.027-1.162c-.23-.135-.2-.23-.122-.419a4.433,4.433,0,0,1,2.554-2.406,13.325,13.325,0,0,1,5.041-.8h.7a19.717,19.717,0,0,1,4.365.365,6.23,6.23,0,0,1,.716.2,2.324,2.324,0,0,1,1.649,2.7Zm4.054-1.351c0,.135-.122.122-.23.108a8.568,8.568,0,0,0-2.351,0c-.257-.108-.257-.108-.257-.3a3.189,3.189,0,0,0-1.068-1.649c.095-.108.176-.081.257-.081h4.8a3.527,3.527,0,0,0-1.189,1.8ZM41.48,20.236a11.811,11.811,0,0,1-1.135,4.054,5.014,5.014,0,0,1-6.2,2.581,10.96,10.96,0,0,1-7.176-6.757,11.717,11.717,0,0,1-.8-4.054,2.311,2.311,0,0,1,1.743-2.581,11.041,11.041,0,0,1,3.095-.487h1.96a16.136,16.136,0,0,1,4.689.405,5.1,5.1,0,0,1,3.419,2.527c.149.284.23.473-.162.689a2.554,2.554,0,0,0-.892,1.027.919.919,0,0,0,0,.878,2.581,2.581,0,0,0,1.27,1.351c.135,0,.176.054.149.189Zm1.527-1.46a6.014,6.014,0,0,0-.987,0c-.2,0-.365,0-.459-.216s-.27-.162-.149-.324.2-.405.473-.405h.743a2.176,2.176,0,0,0,.419,0c.351,0,.473.068.487.459s-.149.351-.568.311Z" transform="translate(-19.008 -11.637)" fill="#274a8d"/>
      </g>
    </g>
    <g id="Group_5485" data-name="Group 5485" transform="translate(67.896 -1)">
      <path id="keyboard_backspace_FILL0_wght300_GRAD0_opsz48" d="M147.357,367.261l-3.652-3.633a.528.528,0,0,1-.166-.391.536.536,0,0,1,.039-.208.571.571,0,0,1,.128-.182l3.659-3.659a.4.4,0,0,1,.3-.123.456.456,0,0,1,.462.445.432.432,0,0,1-.137.315l-2.975,2.975h11.3a.438.438,0,1,1,0,.875h-11.3l2.983,2.975a.446.446,0,0,1,.119.3.387.387,0,0,1-.128.314.431.431,0,0,1-.628,0Z" transform="translate(-117.814 756.341)" fill="#727271"/>
      <path id="keyboard_backspace_FILL0_wght300_GRAD0_opsz48-2" data-name="keyboard_backspace_FILL0_wght300_GRAD0_opsz48" d="M152.926,367.261l3.652-3.633a.528.528,0,0,0,.166-.391.535.535,0,0,0-.039-.207.573.573,0,0,0-.128-.182l-3.659-3.659a.4.4,0,0,0-.3-.123.456.456,0,0,0-.462.445.432.432,0,0,0,.137.315l2.975,2.975h-11.3a.438.438,0,1,0,0,.875h11.3l-2.983,2.975a.447.447,0,0,0-.119.3.387.387,0,0,0,.128.314.431.431,0,0,0,.628,0Z" transform="translate(-117.814 756.328)" fill="#727271"/>
    </g>
  </g>
</svg>
