<svg xmlns="http://www.w3.org/2000/svg" width="24" height="24" viewBox="0 0 24 24">
  <g id="ayush_icons-08" data-name="ayush icons-08" transform="translate(0.097 -0.06)">
    <circle id="Ellipse_281" data-name="Ellipse 281" cx="12" cy="12" r="12" transform="translate(-0.097 0.06)" fill="#e2eafd"/>
    <path id="Path_44968" data-name="Path 44968" d="M11.374,8.22c0,.04-.054.047-.074,0Z" transform="translate(-3.86 -2.706)" fill="#747171"/>
    <path id="Path_44969" data-name="Path 44969" d="M12.394,8.27a.06.06,0,0,1-.074,0Z" transform="translate(-4.199 -2.723)" fill="#555252"/>
    <path id="Path_44970" data-name="Path 44970" d="M12.43,8.27H12.5A.266.266,0,0,1,12.43,8.27Z" transform="translate(-4.235 -2.723)" fill="#6a6767"/>
    <path id="call_FILL1_wght300_GRAD0_opsz48" d="M152,248a8.734,8.734,0,0,1-3.977-1.015,14.3,14.3,0,0,1-6.238-6.228,8.713,8.713,0,0,1-1.015-3.974.774.774,0,0,1,.783-.783h2.023a.7.7,0,0,1,.475.175.823.823,0,0,1,.259.472l.424,1.9a1.164,1.164,0,0,1-.012.475.705.705,0,0,1-.21.355l-1.669,1.632a14.863,14.863,0,0,0,2.26,2.923,12.65,12.65,0,0,0,2.86,2.113l1.6-1.66a.961.961,0,0,1,.4-.271.821.821,0,0,1,.457-.023l1.719.379a.766.766,0,0,1,.467.272.8.8,0,0,1,.18.523v1.948A.774.774,0,0,1,152,248Z" transform="translate(-134.875 -229.941)" fill="#2e478d"/>
  </g>
</svg>
