<svg xmlns="http://www.w3.org/2000/svg" width="20" height="20" viewBox="0 0 20 20">
  <path id="call_FILL1_wght400_GRAD0_opsz48_2_" data-name="call_FILL1_wght400_GRAD0_opsz48 (2)" d="M24.75,26a14.984,14.984,0,0,1-6.736-1.667A22.871,22.871,0,0,1,12,20a22.871,22.871,0,0,1-4.333-6.014A14.984,14.984,0,0,1,6,7.25,1.233,1.233,0,0,1,7.25,6h3.889a.983.983,0,0,1,.681.264,1.228,1.228,0,0,1,.375.708l.75,3.5a2,2,0,0,1-.014.708,1.07,1.07,0,0,1-.292.542L9.861,14.528a23.062,23.062,0,0,0,3.486,4.5,19.267,19.267,0,0,0,4.375,3.25l2.639-2.722A1.536,1.536,0,0,1,21,19.125a1.284,1.284,0,0,1,.722-.042l3.306.722A1.214,1.214,0,0,1,26,21v3.75A1.233,1.233,0,0,1,24.75,26Z" transform="translate(-6 -6)" fill="#fff"/>
</svg>
