<svg xmlns="http://www.w3.org/2000/svg" width="12" height="10.8" viewBox="0 0 12 10.8">
  <path id="photo_camera_FILL1_wght400_GRAD0_opsz48" d="M10,14.61a2.511,2.511,0,0,0,2.55-2.55A2.5,2.5,0,0,0,10,9.51a2.487,2.487,0,0,0-2.55,2.55A2.5,2.5,0,0,0,10,14.61ZM4.9,16.8a.923.923,0,0,1-.9-.9V8.2a.872.872,0,0,1,.27-.622A.852.852,0,0,1,4.9,7.3h2.2l.825-.99a.7.7,0,0,1,.3-.24A1,1,0,0,1,8.62,6h2.76a1,1,0,0,1,.39.075.7.7,0,0,1,.3.24l.825.99h2.2a.952.952,0,0,1,.9.9v7.7a.852.852,0,0,1-.278.63.872.872,0,0,1-.623.27Z" transform="translate(-4 -6)" fill="#fff"/>
</svg>
