<svg xmlns="http://www.w3.org/2000/svg" width="19.625" height="20" viewBox="0 0 19.625 20">
  <path id="shopping_cart_FILL0_wght400_GRAD0_opsz48_1_" data-name="shopping_cart_FILL0_wght400_GRAD0_opsz48 (1)" d="M8.457,24a1.8,1.8,0,1,1,1.277-3.079A1.8,1.8,0,0,1,8.457,24ZM18.47,24a1.795,1.795,0,1,1,1.277-.526A1.738,1.738,0,0,1,18.47,24ZM7.156,7.479l2.753,5.707h7.209l3.129-5.707ZM6.4,5.977H21.148a.955.955,0,0,1,.876.526,1,1,0,0,1,0,1.051l-3.379,6.083a2.24,2.24,0,0,1-.713.763,1.719,1.719,0,0,1-.964.288H9.384l-1.4,2.6h12.29v1.5H8.207a1.68,1.68,0,0,1-1.514-.7,1.44,1.44,0,0,1,.013-1.577l1.6-2.954L4.5,5.5H2.55V4H5.479Zm3.5,7.209h0Z" transform="translate(-2.55 -4)" fill="#fff"/>
</svg>
