<svg xmlns="http://www.w3.org/2000/svg" width="36" height="36" viewBox="0 0 36 36">
  <g id="Group_5517" data-name="Group 5517" transform="translate(-266 -1618)">
    <circle id="Ellipse_217" data-name="Ellipse 217" cx="18" cy="18" r="18" transform="translate(266 1618)" fill="#e9e9e9" opacity="0.4"/>
    <path id="volume_up_FILL0_wght300_GRAD0_opsz48" d="M158.861,275.926a.628.628,0,0,1-.621-.093.692.692,0,0,1-.287-.588.5.5,0,0,1,.1-.306.482.482,0,0,1,.262-.181,8.3,8.3,0,0,0,4-3.03,8.24,8.24,0,0,0,0-9.52,8.177,8.177,0,0,0-4-3.021.438.438,0,0,1-.268-.2.6.6,0,0,1-.1-.323.7.7,0,0,1,.909-.659,9.623,9.623,0,0,1,4.533,3.5,9.521,9.521,0,0,1,0,10.927A9.556,9.556,0,0,1,158.861,275.926Zm-11.885-6.086a.793.793,0,0,1-.819-.819V264.98a.793.793,0,0,1,.819-.819h3.4l3.478-3.478a.754.754,0,0,1,.89-.177.746.746,0,0,1,.5.741v11.5a.816.816,0,0,1-1.394.574l-3.478-3.478Zm10.562,1.472v-8.663a4.288,4.288,0,0,1,2.05,1.714,4.79,4.79,0,0,1,.768,2.638,4.674,4.674,0,0,1-.768,2.632A4.346,4.346,0,0,1,157.537,271.312Zm-3.582-8.766-3,2.9h-3.508v3.1h3.508l3,2.921ZM151.241,267Z" transform="translate(128.363 1369.031)" fill="#adaeae"/>
  </g>
</svg>
