<svg xmlns="http://www.w3.org/2000/svg" width="14.52" height="16" viewBox="0 0 14.52 16">
  <path id="home_health_FILL0_wght300_GRAD0_opsz48" d="M186.228,264.621v1.387a1.033,1.033,0,1,0,2.066,0v-1.387h1.387a1.033,1.033,0,1,0,0-2.066h-1.387v-1.387a1.033,1.033,0,1,0-2.066,0v1.387h-1.387a1.033,1.033,0,1,0,0,2.066Zm-4.831,6.227a1.413,1.413,0,0,1-1.4-1.4v-8.8a1.408,1.408,0,0,1,.144-.63,1.271,1.271,0,0,1,.418-.485l5.864-4.412a1.3,1.3,0,0,1,.829-.281,1.348,1.348,0,0,1,.839.281l5.864,4.412a1.271,1.271,0,0,1,.418.485,1.408,1.408,0,0,1,.144.63v8.8a1.413,1.413,0,0,1-1.4,1.4Zm0-1.1h11.728a.287.287,0,0,0,.3-.3v-8.865a.308.308,0,0,0-.033-.14.26.26,0,0,0-.088-.1l-5.864-4.295a.273.273,0,0,0-.354,0l-5.864,4.295a.26.26,0,0,0-.088.1.308.308,0,0,0-.033.14v8.865a.287.287,0,0,0,.3.3ZM187.261,262.851Z" transform="translate(-180.001 -254.848)" fill="#fff"/>
</svg>
