<svg xmlns="http://www.w3.org/2000/svg" xmlns:xlink="http://www.w3.org/1999/xlink" width="100" height="60" viewBox="0 0 100 60">
  <defs>
    <clipPath id="clip-path">
      <circle id="Ellipse_160" data-name="Ellipse 160" cx="16" cy="16" r="16" transform="translate(-0.001 -0.001)" fill="none"/>
    </clipPath>
    <clipPath id="clip-path-2">
      <rect id="SVGID" width="31.153" height="15.921" fill="none"/>
    </clipPath>
  </defs>
  <g id="Group_5390" data-name="Group 5390" transform="translate(-238 -96)">
    <g id="Rectangle_2000" data-name="Rectangle 2000" transform="translate(238 96)" fill="#e2eafd" stroke="#2e478d" stroke-width="0.5">
      <rect width="100" height="60" rx="5" stroke="none"/>
      <rect x="0.25" y="0.25" width="99.5" height="59.5" rx="4.75" fill="none"/>
    </g>
    <text id="Store_Locator" data-name="Store Locator" transform="translate(288 147)" fill="#221f20" font-size="10" font-family="RedHatText-Regular, Red Hat Text"><tspan x="-30" y="0">Store Locator</tspan></text>
    <g id="Illustration-02" transform="translate(236.721 68.711)" style="mix-blend-mode: normal;isolation: isolate">
      <g id="Layer_1" data-name="Layer 1" transform="translate(35.28 32.29)">
        <g id="Group_5108" data-name="Group 5108" clip-path="url(#clip-path)">
          <path id="Path_44538" data-name="Path 44538" d="M16,0A16,16,0,1,1,0,16,16,16,0,0,1,16,0Z" fill="#fff"/>
          <g id="Group_5106" data-name="Group 5106" transform="translate(0.247 20.107)" clip-path="url(#clip-path-2)">
            <path id="Path_44142" data-name="Path 44142" d="M-47.241,246.3H-75.311L-89.15,262.221H-33.9Z" transform="translate(77.1 -246.3)" fill="#fbf9d8"/>
            <path id="Path_44143" data-name="Path 44143" d="M-55.673,366.93c.364-.306.839-.681.783-1-.086-.5-1.179-.656-2.077-.848-1.042-.223-1.855-.5-1.978-1.019a1.519,1.519,0,0,1,.464-1.233h-2.535l-3.373,4.141h8.669C-55.706,366.957-55.69,366.943-55.673,366.93Z" transform="translate(54.688 -351.776)" fill="#dbc190" stroke="#aa976e" stroke-width="2.49"/>
            <path id="Path_44144" data-name="Path 44144" d="M8.078,364.131a13.2,13.2,0,0,0,2.488.674c.959.268,1.58.678,1.394,1.239a2.547,2.547,0,0,1-.759.937h1.431q.922-2.071,1.842-4.141H8.182C7.794,363.318,7.544,363.82,8.078,364.131Z" transform="translate(-10.628 -351.785)" fill="#dbc190" stroke="#aa976e" stroke-width="2.49"/>
            <path id="Path_44145" data-name="Path 44145" d="M83.3,362.84l-.156,4.141H71.44l1.688-4.141Z" transform="translate(-68.256 -351.785)" fill="#dbc190" stroke="#aa976e" stroke-width="2.49"/>
            <path id="Path_44146" data-name="Path 44146" d="M210.437,362.84H208.29q.006,2.07.012,4.141h2.471Q210.6,364.911,210.437,362.84Z" transform="translate(-192.124 -351.785)" fill="#dbc190" stroke="#aa976e" stroke-width="2.49"/>
            <path id="Path_44147" data-name="Path 44147" d="M249.89,362.84h-2.24l.575,4.141H250.8Z" transform="translate(-227.751 -351.785)" fill="#dbc190" stroke="#aa976e" stroke-width="2.49"/>
            <path id="Path_44148" data-name="Path 44148" d="M289.151,366.981h3.006l-1.545-4.141H288Z" transform="translate(-264.273 -351.785)" fill="#dbc190" stroke="#aa976e" stroke-width="2.49"/>
            <path id="Path_44149" data-name="Path 44149" d="M342.968,393.571a5.055,5.055,0,0,0-3.148-.729l.53,1.281h3A.959.959,0,0,0,342.968,393.571Z" transform="translate(-311.177 -378.927)" fill="#8abc6f"/>
            <path id="Path_44150" data-name="Path 44150" d="M342.968,393.571a5.055,5.055,0,0,0-3.148-.729l.53,1.281h3A.959.959,0,0,0,342.968,393.571Z" transform="translate(-311.177 -378.927)" fill="none" stroke="#84ac61" stroke-width="2.27"/>
            <path id="Path_44151" data-name="Path 44151" d="M330.847,363.372a1.141,1.141,0,0,0,.7-.532H327.34l.339.817A9.715,9.715,0,0,0,330.847,363.372Z" transform="translate(-299.881 -351.785)" fill="#8abc6f"/>
            <path id="Path_44152" data-name="Path 44152" d="M330.847,363.372a1.141,1.141,0,0,0,.7-.532H327.34l.339.817A9.715,9.715,0,0,0,330.847,363.372Z" transform="translate(-299.881 -351.785)" fill="none" stroke="#84ac61" stroke-width="2.27"/>
            <path id="Path_44153" data-name="Path 44153" d="M339.781,362.84h-1.039c-.061.455-.4.873-1.27,1.11a12.712,12.712,0,0,1-3.812.338l.324.784a8.983,8.983,0,0,1,4.161.784,2.059,2.059,0,0,1,1.154,1.125h3.206Z" transform="translate(-305.602 -351.785)" fill="#dbc190" stroke="#aa976e" stroke-width="2.49"/>
            <path id="Path_44154" data-name="Path 44154" d="M-3.2,292.32H-6.66l-3.7,4.538h4.217Z" transform="translate(5.784 -287.954)" fill="#dbc190" stroke="#aa976e" stroke-width="3.01"/>
            <path id="Path_44155" data-name="Path 44155" d="M11.308,294.107a4.613,4.613,0,0,0,2.583-1.787H10.61l-1.89,2.319a9.921,9.921,0,0,0,2.588-.532Z" transform="translate(-11.486 -287.954)" fill="#8abc6f"/>
            <path id="Path_44156" data-name="Path 44156" d="M11.308,294.107a4.613,4.613,0,0,0,2.583-1.787H10.61l-1.89,2.319a9.921,9.921,0,0,0,2.588-.532Z" transform="translate(-11.486 -287.954)" fill="none" stroke="#84ac61" stroke-width="2.27"/>
            <path id="Path_44157" data-name="Path 44157" d="M48,296.805h3.866q1-2.243,1.992-4.485H50.684Z" transform="translate(-47.04 -287.954)" fill="#dbc190" stroke="#aa976e" stroke-width="3.01"/>
            <path id="Path_44158" data-name="Path 44158" d="M38.735,345.32l-.615,1.03h4.1c.183-.412.274-.618.458-1.03Z" transform="translate(-38.097 -335.927)" fill="#dbc190" stroke="#aa976e" stroke-width="3.01"/>
            <path id="Path_44159" data-name="Path 44159" d="M-18.213,344.65H-22.5l-.891,1.094h4.467Z" transform="translate(17.578 -335.32)" fill="#dbc190" stroke="#aa976e" stroke-width="3.01"/>
            <path id="Path_44160" data-name="Path 44160" d="M317.224,334.88H315.77c.335.808.5,1.212.836,2.021h1.573Z" transform="translate(-289.409 -326.477)" fill="#dbc190" stroke="#aa976e" stroke-width="3.01"/>
            <path id="Path_44161" data-name="Path 44161" d="M344.366,334.88H343.1l1.043,2.021h1.368Z" transform="translate(-314.146 -326.477)" fill="#dbc190" stroke="#aa976e" stroke-width="3.01"/>
            <path id="Path_44162" data-name="Path 44162" d="M370.846,334.88H369.77l1.255,2.021h1.162Z" transform="translate(-338.286 -326.477)" fill="#dbc190" stroke="#aa976e" stroke-width="3.01"/>
            <path id="Path_44163" data-name="Path 44163" d="M393.868,336.9h2.074l-1.583-2.021H392.44Z" transform="translate(-358.806 -326.477)" fill="#dbc190" stroke="#aa976e" stroke-width="3.01"/>
            <path id="Path_44164" data-name="Path 44164" d="M299.583,295.782h8.979l-2.714-3.462h-7.7Q298.867,294.05,299.583,295.782Z" transform="translate(-273.46 -287.954)" fill="#8abc6f" stroke="#84ac61" stroke-width="2.27"/>
            <path id="Path_44165" data-name="Path 44165" d="M91.69,255.162h2.793c.217-.489.326-.732.544-1.222H92.419C92.127,254.429,91.981,254.673,91.69,255.162Z" transform="translate(-86.585 -253.215)" fill="#dbc190" stroke="#aa976e" stroke-width="2.17"/>
            <path id="Path_44166" data-name="Path 44166" d="M80.391,273.9l-.741,1.243h3.084l.554-1.243Z" transform="translate(-75.688 -271.282)" fill="#dbc190" stroke="#aa976e" stroke-width="2.17"/>
            <path id="Path_44167" data-name="Path 44167" d="M38.422,253.94h-2.87L33,257.076h3.391Z" transform="translate(-33.463 -253.215)" fill="#dbc190" stroke="#aa976e" stroke-width="2.17"/>
            <path id="Path_44168" data-name="Path 44168" d="M293.906,279.29H292.76c.121.292.182.438.3.731h1.189Z" transform="translate(-268.581 -276.16)" fill="#dbc190" stroke="#aa976e" stroke-width="2.17"/>
            <path id="Path_44169" data-name="Path 44169" d="M314.193,279.782c-.129-.165-.274-.328-.415-.492H312.19l.372.731h1.824C314.317,279.927,314.235,279.832,314.193,279.782Z" transform="translate(-286.168 -276.16)" fill="#dbc190" stroke="#aa976e" stroke-width="2.17"/>
            <path id="Path_44170" data-name="Path 44170" d="M340.236,280.021h2.743l-.569-.731h-2.8A6.084,6.084,0,0,1,340.236,280.021Z" transform="translate(-310.987 -276.16)" fill="#dbc190" stroke="#aa976e" stroke-width="2.17"/>
            <path id="Path_44171" data-name="Path 44171" d="M288.535,266.49H287.46l.331.8h1.121Z" transform="translate(-263.784 -264.575)" fill="#dbc190" stroke="#aa976e" stroke-width="2.17"/>
            <path id="Path_44172" data-name="Path 44172" d="M307.123,266.49H305.69l.406.8h1.462A2.93,2.93,0,0,1,307.123,266.49Z" transform="translate(-280.285 -264.575)" fill="#dbc190" stroke="#aa976e" stroke-width="2.17"/>
            <path id="Path_44173" data-name="Path 44173" d="M330.757,266.85a2.571,2.571,0,0,0,.318.438h2.846l-.626-.8H330.6A1.961,1.961,0,0,0,330.757,266.85Z" transform="translate(-302.832 -264.575)" fill="#dbc190" stroke="#aa976e" stroke-width="2.17"/>
            <path id="Path_44174" data-name="Path 44174" d="M283.275,253.94h-1l.321.775h1.05C283.495,254.4,283.422,254.25,283.275,253.94Z" transform="translate(-259.087 -253.215)" fill="#dbc190" stroke="#aa976e" stroke-width="2.17"/>
            <path id="Path_44175" data-name="Path 44175" d="M301.264,254.68a1.485,1.485,0,0,1,.135-.74H299.32l.393.775h1.555C301.268,254.7,301.265,254.691,301.264,254.68Z" transform="translate(-274.519 -253.215)" fill="#dbc190" stroke="#aa976e" stroke-width="2.17"/>
            <path id="Path_44176" data-name="Path 44176" d="M330.05,254.715h2.426l-.607-.775H330.52A.913.913,0,0,0,330.05,254.715Z" transform="translate(-302.334 -253.215)" fill="#dbc190" stroke="#aa976e" stroke-width="2.17"/>
            <path id="Path_44177" data-name="Path 44177" d="M97.8,332.07c-.166.41-.249.614-.416,1.023h9.472c.015-.409.024-.613.039-1.023Z" transform="translate(-91.736 -323.934)" fill="#dbc190" stroke="#aa976e" stroke-width="3.01"/>
            <path id="Path_44178" data-name="Path 44178" d="M114.279,293.359a2.226,2.226,0,0,0,.933-.732,2.155,2.155,0,0,0,.185-.306h-2.239l-.508,1.246A4.406,4.406,0,0,0,114.279,293.359Z" transform="translate(-105.557 -287.954)" fill="#8abc6f" stroke="#84ac61" stroke-width="2.27"/>
            <path id="Path_44179" data-name="Path 44179" d="M109.115,292.892a2.947,2.947,0,0,1-1.442,1.026,8.215,8.215,0,0,1-2.3.3l-.481,1.181h8.822c.021-.535.03-.8.05-1.337-1.059-.009-2.74-.46-2.918-1.708H109.43A2.182,2.182,0,0,1,109.115,292.892Z" transform="translate(-98.533 -287.982)" fill="#dbc190" stroke="#aa976e" stroke-width="3.01"/>
            <path id="Path_44180" data-name="Path 44180" d="M170,304.446h2.651c.021-.535.03-.8.05-1.337a4.167,4.167,0,0,1-2.39-.759C170.184,303.188,170.122,303.607,170,304.446Z" transform="translate(-157.467 -297.033)" fill="#8abc6f" stroke="#84ac61" stroke-width="2.27"/>
            <path id="Path_44181" data-name="Path 44181" d="M92.285,348.69,92,349.4h9.935c.01-.285.016-.426.027-.711Z" transform="translate(-86.866 -338.977)" fill="#dbc190" stroke="#aa976e" stroke-width="3.01"/>
            <path id="Path_44182" data-name="Path 44182" d="M129.532,255.017a.859.859,0,0,0,.408-1.077h-1.47l-.54,1.323A2.89,2.89,0,0,0,129.532,255.017Z" transform="translate(-119.388 -253.215)" fill="#dbc190" stroke="#aa976e" stroke-width="2.17"/>
            <path id="Path_44183" data-name="Path 44183" d="M157.272,255.155a16.3,16.3,0,0,1-1.628.772,1.928,1.928,0,0,0-.864,1.149h1.306a3.452,3.452,0,0,1,2.986-1.761c.021-.55.031-.825.051-1.376h-1.361A1.285,1.285,0,0,1,157.272,255.155Z" transform="translate(-143.691 -253.215)" fill="#dbc190" stroke="#aa976e" stroke-width="2.17"/>
            <path id="Path_44184" data-name="Path 44184" d="M124.319,255.206c.448-.162,1.073-.355,1.176-.742a1.26,1.26,0,0,0,.037-.525h-1.686a1.523,1.523,0,0,1-.759,1.465,4.229,4.229,0,0,1-2.458.488l-.48,1.184h2.268A3.316,3.316,0,0,1,124.319,255.206Z" transform="translate(-112.346 -253.215)" fill="#dbc190" stroke="#aa976e" stroke-width="2.17"/>
            <path id="Path_44185" data-name="Path 44185" d="M210.448,310.839a3.6,3.6,0,0,1,2.148-.93,29.224,29.224,0,0,1,4.553-.234l-.742-1.978a8.076,8.076,0,0,0-3.636.395c-.774.408-.67,1.2-1.747,1.6a7.357,7.357,0,0,1-2.853.374l.008,2.213h2.081A1.754,1.754,0,0,1,210.448,310.839Z" transform="translate(-192.016 -301.856)" fill="#dbc190" stroke="#aa976e" stroke-width="3.01"/>
            <path id="Path_44186" data-name="Path 44186" d="M270.594,310.89a4.528,4.528,0,0,0-2.462.379c-.474.331-.029.805-.032,1.208a.75.75,0,0,1-.02.16c1.043-.08,2.1-.083,3.144-.063C270.971,311.9,270.845,311.56,270.594,310.89Z" transform="translate(-246.092 -304.752)" fill="#8abc6f"/>
            <path id="Path_44187" data-name="Path 44187" d="M270.594,310.89a4.528,4.528,0,0,0-2.462.379c-.474.331-.029.805-.032,1.208a.75.75,0,0,1-.02.16c1.043-.08,2.1-.083,3.144-.063C270.971,311.9,270.845,311.56,270.594,310.89Z" transform="translate(-246.092 -304.752)" fill="none" stroke="#84ac61" stroke-width="2.27"/>
            <path id="Path_44188" data-name="Path 44188" d="M211.645,312.546a.6.6,0,0,1,.349-.126c1.281-.148.685-.809.674-1.308a.957.957,0,0,1,.491-.782,1.927,1.927,0,0,0-.369.162c-.791.465-.67,1.2-1.747,1.6a7.357,7.357,0,0,1-2.853.374l.008,2.213h2.081a1.735,1.735,0,0,1,.19-1.438A2.479,2.479,0,0,1,211.645,312.546Z" transform="translate(-192.034 -304.256)" fill="#8abc6f"/>
            <path id="Path_44189" data-name="Path 44189" d="M211.645,312.546a.6.6,0,0,1,.349-.126c1.281-.148.685-.809.674-1.308a.957.957,0,0,1,.491-.782,1.927,1.927,0,0,0-.369.162c-.791.465-.67,1.2-1.747,1.6a7.357,7.357,0,0,1-2.853.374l.008,2.213h2.081a1.735,1.735,0,0,1,.19-1.438A2.479,2.479,0,0,1,211.645,312.546Z" transform="translate(-192.034 -304.256)" fill="none" stroke="#84ac61" stroke-width="2.27"/>
            <path id="Path_44190" data-name="Path 44190" d="M245.39,335.359c-.753.1-1.725.285-1.924.72a1.815,1.815,0,0,0,.009,1.116h6.508l-.737-1.976A24.908,24.908,0,0,0,245.39,335.359Z" transform="translate(-223.884 -326.771)" fill="#dbc190" stroke="#aa976e" stroke-width="3.01"/>
            <path id="Path_44191" data-name="Path 44191" d="M208.12,294.01v1.523c.865.047,2.11.03,2.673-.628.458-.535.778-1.233,1.816-1.466a17.765,17.765,0,0,1,3.517-.27c-.127-.34-.19-.509-.317-.849h-4.972C210.608,293.6,209.152,293.813,208.12,294.01Z" transform="translate(-191.971 -287.954)" fill="#dbc190" stroke="#aa976e" stroke-width="3.01"/>
            <path id="Path_44192" data-name="Path 44192" d="M261.675,257.076h1.587l-1.17-3.136H260.75Z" transform="translate(-239.608 -253.215)" fill="#dbc190" stroke="#aa976e" stroke-width="2.17"/>
            <path id="Path_44193" data-name="Path 44193" d="M241.319,257.076h1.64l-.831-3.136H240.74Z" transform="translate(-221.496 -253.215)" fill="#dbc190" stroke="#aa976e" stroke-width="2.17"/>
            <path id="Path_44194" data-name="Path 44194" d="M210.468,253.94H207.94l0,1.4a3.158,3.158,0,0,1,2.671,1.741h.323Q210.7,255.508,210.468,253.94Z" transform="translate(-191.808 -253.215)" fill="#dbc190" stroke="#aa976e" stroke-width="2.17"/>
            <path id="Path_44195" data-name="Path 44195" d="M179.732,274.57c.9,0,2.182.5,2.262,1.407.086.989-1.493,1.4-2.336,1.406-.82,0-2.4-.417-2.262-1.406C177.526,275.063,178.816,274.572,179.732,274.57Z" transform="translate(-164.153 -271.888)" fill="#dbc190" stroke="#aa976e" stroke-width="2.38"/>
            <path id="Path_44196" data-name="Path 44196" d="M46.256,257.33l-1.69,2.493H42.51l1.951-2.493Z" transform="translate(-42.071 -256.284)" fill="#8abc6f"/>
            <path id="Path_44197" data-name="Path 44197" d="M46.256,257.33l-1.69,2.493H42.51l1.951-2.493Z" transform="translate(-42.071 -256.284)" fill="none" stroke="#84ac61" stroke-width="2.27"/>
            <path id="Path_44198" data-name="Path 44198" d="M-64.39,381.4H-55.7c1.02-.579.9-1.629-.512-1.73a7.13,7.13,0,0,1-2.592-.9h-3.448Z" transform="translate(54.688 -366.204)" fill="#8abc6f" stroke="#84ac61" stroke-width="2.27"/>
            <path id="Path_44199" data-name="Path 44199" d="M189.322,281c.61,0,1.117.315,1.132.7a1.8,1.8,0,0,0,.007.19c.015.388-.508.7-1.168.7h-.326c-.659,0-1.166-.315-1.132-.7l.018-.19c.034-.389.558-.7,1.168-.7Z" transform="translate(-173.608 -277.708)" fill="#52c6da" stroke="#4eb8bf" stroke-width="2.27"/>
            <path id="Path_44200" data-name="Path 44200" d="M96.719,371.042c.872-.131,1.218-1.379,2.354-.793.474.243.271.439,1.233.481,1.02.044.97-.139,1.08-.48.039-.12.042-.311.208-.415a5.332,5.332,0,0,1,.938-.262c.664-.233.84-.656.664-.986s-.617-.474-1.271-.23c-.6.224-.543.65-1.576.553-.693-.064-.642-.365-1.138-.523a7.226,7.226,0,0,0-1.878-.214c-.385.028-.342.112-.634.16-.357.059-.744.009-1.088.064-.617.1-.878.434-.366.632.413.158,1.636.058,1.058.432-.134.086-.491.084-.652.157-.263.12-.272.235-.379.379a.628.628,0,0,0,.012.863S95.487,371.227,96.719,371.042Z" transform="translate(-89.557 -356.606)" fill="#52c6da" stroke="#4eb8bf" stroke-width="2.27"/>
            <path id="Path_44201" data-name="Path 44201" d="M311.973,297.644c-.5.228-.379.68-.314,1.067.071.4-.134.731-.859.825a9.406,9.406,0,0,1-2.169-.116c.055.131.082.2.137.328a9.743,9.743,0,0,0,2.548.066c.941-.153,1.038-.7.9-1.21a.541.541,0,0,1,.5-.771,2.274,2.274,0,0,1,.911.09c-.19.041-.34.125-.333.251a.588.588,0,0,0,.124.279c.114.163.165.216-.185.2-.12,0-.226.061-.2.118.346.819,2.146,1,2.751.474.264-.228-.089-.674-.627-.992a1.246,1.246,0,0,0-.491-.256,6.113,6.113,0,0,0-.967-.35A2.754,2.754,0,0,0,311.973,297.644Z" transform="translate(-282.946 -292.654)" fill="#52c6da" stroke="#4eb8bf" stroke-width="2.27"/>
          </g>
          <path id="Path_44202" data-name="Path 44202" d="M202.255,123.142h0a6.593,6.593,0,1,0-11.525.156h0l.009.013a6.394,6.394,0,0,0,.458.7l5.407,8.145,5.19-8.288a6.723,6.723,0,0,0,.444-.709Z" transform="translate(-175.193 -105.728)" fill="#2e478d"/>
          <path id="Path_44203" data-name="Path 44203" d="M195.008,122.043c-.5-2.431-.374-5.758,1.466-7.654a7.4,7.4,0,0,1,1-.854,6.592,6.592,0,0,0-6.743,9.791h0l.009.013a6.39,6.39,0,0,0,.459.7l5.407,8.145,2.846-4.54C197.019,127.187,195.457,124.24,195.008,122.043Z" transform="translate(-175.189 -105.754)" fill="#bcbec0" style="mix-blend-mode: multiply;isolation: isolate"/>
          <path id="Path_44204" data-name="Path 44204" d="M217.681,134.811A4.879,4.879,0,1,1,212.737,130,4.879,4.879,0,0,1,217.681,134.811Z" transform="translate(-191.547 -120.727)" fill="#fff"/>
          <path id="Path_44205" data-name="Path 44205" d="M224.123,142.063A4.125,4.125,0,1,1,219.942,138,4.125,4.125,0,0,1,224.123,142.063Z" transform="translate(-198.743 -127.968)" fill="#e3eafd"/>
          <path id="Path_44206" data-name="Path 44206" d="M227.347,145.627a3.747,3.747,0,1,1-3.794-3.7A3.747,3.747,0,0,1,227.347,145.627Z" transform="translate(-202.344 -131.526)" fill="#2e478d"/>
          <rect id="Rectangle_1987" data-name="Rectangle 1987" width="1.302" height="4.755" transform="translate(20.605 11.891)" fill="#fff"/>
          <rect id="Rectangle_1988" data-name="Rectangle 1988" width="1.302" height="4.755" transform="translate(23.633 13.618) rotate(90)" fill="#fff"/>
        </g>
      </g>
    </g>
  </g>
</svg>
