<svg xmlns="http://www.w3.org/2000/svg" width="12" height="12" viewBox="0 0 12 12">
  <path id="close_FILL0_wght300_GRAD0_opsz48" d="M233.847,330.608l-5.07,5.07a.531.531,0,0,1-.376.164.514.514,0,0,1-.385-.164.515.515,0,0,1,0-.761l5.07-5.07-5.07-5.07a.531.531,0,0,1-.164-.376.514.514,0,0,1,.164-.385.515.515,0,0,1,.761,0l5.07,5.07,5.07-5.07a.531.531,0,0,1,.376-.164.514.514,0,0,1,.385.164.515.515,0,0,1,0,.761l-5.07,5.07,5.07,5.07a.531.531,0,0,1,.164.376.514.514,0,0,1-.164.385.515.515,0,0,1-.761,0Z" transform="translate(-227.847 -323.847)"/>
</svg>
