<svg xmlns="http://www.w3.org/2000/svg" width="36" height="36" viewBox="0 0 36 36">
  <g id="computer_glass" data-name="computer glass" transform="translate(0.099 -0.06)">
    <circle id="Ellipse_198" data-name="Ellipse 198" cx="18" cy="18" r="18" transform="translate(-0.099 0.06)" fill="#e2eafd"/>
    <path id="Path_44775" data-name="Path 44775" d="M11.409,8.22c0,.06-.08.07-.109,0Z" transform="translate(-0.208 -0.063)" fill="#747171"/>
    <path id="Path_44776" data-name="Path 44776" d="M12.429,8.27a.089.089,0,0,1-.109,0Z" transform="translate(-0.216 -0.064)" fill="#555252"/>
    <path id="Path_44777" data-name="Path 44777" d="M12.43,8.27h.109A.4.4,0,0,1,12.43,8.27Z" transform="translate(-0.217 -0.064)" fill="#6a6767"/>
    <g id="infinite_icons_computer_glass" data-name="infinite icons_computer glass" transform="translate(2.672 0.065)">
      <path id="Path_44811" data-name="Path 44811" d="M26.729,14.707h-.19c-.124,0-.173,0-.206-.157a3.162,3.162,0,0,0-1.907-2.023A6.515,6.515,0,0,0,21.841,12H9.456a8.017,8.017,0,0,0-2.692.38A3.212,3.212,0,0,0,4.691,14.2a.652.652,0,0,1-.826.512.594.594,0,0,0-.636.619v.793a.636.636,0,0,0,.594.628,1,1,0,0,0,.314,0c.206,0,.264.066.281.256a7.159,7.159,0,0,0,.528,2.114,3.674,3.674,0,0,0,4.467,2.287A6.845,6.845,0,0,0,13.378,18.6a7.175,7.175,0,0,0,1.288-3.79c0-.157.074-.206.215-.223a4.814,4.814,0,0,1,1.09,0c.157,0,.215.074.223.231A7.167,7.167,0,0,0,17.9,19.158a6.548,6.548,0,0,0,3.782,2.3A3.559,3.559,0,0,0,25.54,19.8a6.605,6.605,0,0,0,.867-2.692c.041-.33,0-.347.347-.33a.826.826,0,0,0,.826-.471V15.145A.826.826,0,0,0,26.729,14.707ZM4.89,16a2.914,2.914,0,0,0-.38,0,1.181,1.181,0,0,0-.239,0c-.223,0-.289-.041-.281-.272s.058-.306.281-.281a4.764,4.764,0,0,0,.594,0c.083,0,.165,0,.215.074s.182.132.124.223S5.079,16.02,4.89,16Zm9.083-1.428a6.605,6.605,0,0,1-1.032,3.361,6.028,6.028,0,0,1-3.74,2.75,2.857,2.857,0,0,1-3.435-1.693,7.506,7.506,0,0,1-.57-2.147c0-.1,0-.116.107-.149a1.494,1.494,0,0,0,.71-.735.5.5,0,0,0,0-.479,1.651,1.651,0,0,0-.594-.669c-.132-.074-.116-.132-.074-.239A2.593,2.593,0,0,1,6.813,13.2a7.629,7.629,0,0,1,2.832-.454h.4a10.668,10.668,0,0,1,2.477.206,2.526,2.526,0,0,1,.4.124,1.313,1.313,0,0,1,1,1.5Zm2.3-.826c0,.074-.074.066-.132.058a4.6,4.6,0,0,0-1.346,0c-.091,0-.124,0-.149-.1a1.808,1.808,0,0,0-.661-.883c.058-.058.107,0,.157,0h2.75a1.99,1.99,0,0,0-.644.95Zm9.462,3.063a6.911,6.911,0,0,1-.652,2.32,2.873,2.873,0,0,1-3.559,1.478A6.275,6.275,0,0,1,17.4,16.73a6.87,6.87,0,0,1-.454-2.337,1.313,1.313,0,0,1,.958-1.346,5.912,5.912,0,0,1,1.775-.281h1.1a9.454,9.454,0,0,1,2.683.239,2.89,2.89,0,0,1,2.039,1.47c.083.165.132.272-.1.4a1.486,1.486,0,0,0-.5.594.5.5,0,0,0,0,.5,1.453,1.453,0,0,0,.735.751c.058.017.074.05.066.124Zm.875-.826a3.3,3.3,0,0,0-.57,0c-.116,0-.206,0-.256-.124s-.157-.1-.091-.19.116-.231.272-.231h.661c.206,0,.272,0,.281.256s-.107.33-.339.306Z" fill="#274a8d"/>
      <line id="Line_1" data-name="Line 1" y1="3.881" x2="4.789" transform="translate(4.27 19.1)" fill="none" stroke="#274a8d" stroke-width="0.5" stroke-dasharray="0.5"/>
      <path id="Path_44812" data-name="Path 44812" d="M9.95,20.33a.215.215,0,0,1,.14.231v4.285l.05-.041,1.239-1.239a.206.206,0,0,1,.206-.074.182.182,0,0,1,.091.289h0L10.09,25.367a.173.173,0,0,1-.3,0L8.175,23.823a.215.215,0,0,1-.066-.215.182.182,0,0,1,.281-.083l.05.041,1.247,1.247h0V20.561a.215.215,0,0,1,.14-.231Z" transform="translate(-0.849 -1.453)" fill="#274a8d"/>
    </g>
  </g>
</svg>
