<svg xmlns="http://www.w3.org/2000/svg" width="36" height="36" viewBox="0 0 36 36">
  <g id="contact_lens" data-name="contact lens" transform="translate(0.099 -0.06)">
    <circle id="Ellipse_198" data-name="Ellipse 198" cx="18" cy="18" r="18" transform="translate(-0.099 0.06)" fill="#e2eafd"/>
    <path id="Path_44775" data-name="Path 44775" d="M11.409,8.22c0,.06-.08.07-.109,0Z" transform="translate(-0.208 -0.063)" fill="#747171"/>
    <path id="Path_44776" data-name="Path 44776" d="M12.429,8.27a.089.089,0,0,1-.109,0Z" transform="translate(-0.216 -0.064)" fill="#555252"/>
    <path id="Path_44777" data-name="Path 44777" d="M12.43,8.27h.109A.4.4,0,0,1,12.43,8.27Z" transform="translate(-0.217 -0.064)" fill="#6a6767"/>
    <g id="infinite_icons_contact_lenses" data-name="infinite icons_contact lenses" transform="translate(2.119 1.975)">
      <path id="Path_44815" data-name="Path 44815" d="M25.436,22.651a.135.135,0,0,1,0-.181Z" transform="translate(-1.712 -1.301)" fill="#274a8d"/>
      <path id="Path_44816" data-name="Path 44816" d="M25.436,23.031a.135.135,0,0,1,0-.181Z" transform="translate(-1.712 -1.337)" fill="#274a8d"/>
      <path id="Path_44817" data-name="Path 44817" d="M25.41,22.214v0Z" transform="translate(-1.713 -1.27)" fill="#274a8d"/>
      <path id="Path_44818" data-name="Path 44818" d="M25.41,22.22h0v0Z" transform="translate(-1.713 -1.276)" fill="#274a8d"/>
      <path id="Path_44819" data-name="Path 44819" d="M23.724,20.79c-.054,0,0-.063,0-.09-.045-.406-.1-.813-.172-1.219a31.889,31.889,0,0,0-1.264-4.848,23.419,23.419,0,0,0-1.806-4.171,4.442,4.442,0,0,0-.822-1.1A.65.65,0,0,0,18.65,9.3h0a6.437,6.437,0,0,0-1.806,1.869,7.43,7.43,0,0,0-1.129,4.677c0,.09.045.172-.108.163-1.047,0-2.1,0-3.151.09a19.384,19.384,0,0,0-2.979.406,4.117,4.117,0,0,0-1.345.515.587.587,0,0,0-.271.831c0,.045,0,.081,0,.117a6,6,0,0,0,.84,1.661,7.412,7.412,0,0,0,6.013,3.187,7.385,7.385,0,0,0,4.234-1.11c.081,0,.135-.081.226,0a6.88,6.88,0,0,0,3.169,1.1,5.877,5.877,0,0,0,.7,0c.244,0,.433-.163.533-.469a4.84,4.84,0,0,0,.126-.488v-.19a.208.208,0,0,1,0-.181v-.163a.208.208,0,0,1,0-.181v-.163a.072.072,0,0,1,0-.063v-.054ZM8.295,17.423a1.6,1.6,0,0,1,.479-.244,10.563,10.563,0,0,1,2.239-.5,31.834,31.834,0,0,1,4.632-.226c.09,0,.144,0,.163.117a7.223,7.223,0,0,0,.641,2v.081a31.031,31.031,0,0,1-3.3,0,16.019,16.019,0,0,1-2.266-.208,9.688,9.688,0,0,1-2.248-.524,1.3,1.3,0,0,1-.379-.208C8.168,17.612,8.168,17.531,8.295,17.423Zm.208.9a8.369,8.369,0,0,0,1.679.442,23.591,23.591,0,0,0,2.88.307,33.55,33.55,0,0,0,3.566,0c.054,0,.09,0,.126.054a7.557,7.557,0,0,0,1.959,2.221A7.158,7.158,0,0,1,8.5,18.326Zm7.945-.9a6.943,6.943,0,0,1,1.95-7.358,19.862,19.862,0,0,0,1.047,5.941,27.726,27.726,0,0,0,1.724,4.514,8.947,8.947,0,0,0,1.074,1.806s0,0,0,.054a6.988,6.988,0,0,1-5.8-4.984Zm6.78,4.767c-.072.28-.172.307-.4.126a2.591,2.591,0,0,1-.415-.479,12.739,12.739,0,0,1-1.363-2.6,33.793,33.793,0,0,1-1.923-6.2,13.709,13.709,0,0,1-.226-1.4,8.767,8.767,0,0,1-.09-1.12,2.772,2.772,0,0,1,.072-.767c.072-.271.172-.307.388-.117a3.5,3.5,0,0,1,.7.9,19.628,19.628,0,0,1,1.589,3.458,32.448,32.448,0,0,1,1.454,5.119,11.493,11.493,0,0,1,.271,2.483,2.131,2.131,0,0,1-.054.569Z" fill="#274a8d"/>
      <path id="Path_44820" data-name="Path 44820" d="M25.436,22.98a.153.153,0,0,1,0-.19Z" transform="translate(-1.712 -1.332)" fill="#274a8d"/>
      <path id="Path_44821" data-name="Path 44821" d="M25.436,23.33a.153.153,0,0,1,0-.19Z" transform="translate(-1.712 -1.366)" fill="#274a8d"/>
      <path id="Path_44822" data-name="Path 44822" d="M25.41,22.5v.009S25.419,22.522,25.41,22.5Z" transform="translate(-1.713 -1.299)" fill="#274a8d"/>
      <path id="Path_44823" data-name="Path 44823" d="M25.41,22.51h0v0Z" transform="translate(-1.713 -1.304)" fill="#274a8d"/>
      <path id="Path_44824" data-name="Path 44824" d="M23.724,21.081c-.054,0,0-.054,0-.09-.045-.406-.1-.813-.172-1.219a32.448,32.448,0,0,0-1.264-4.848,23.338,23.338,0,0,0-1.806-4.162,4.325,4.325,0,0,0-.822-1.11.659.659,0,0,0-1.011-.063h0a6.546,6.546,0,0,0-1.806,1.869,7.448,7.448,0,0,0-1.129,4.686c0,.081.045.163-.108.163a30.6,30.6,0,0,0-3.151.081,19.393,19.393,0,0,0-2.979.415,3.756,3.756,0,0,0-1.345.515.587.587,0,0,0-.271.831s0,.072,0,.117a6.067,6.067,0,0,0,.84,1.652,7.448,7.448,0,0,0,6.013,3.2,7.394,7.394,0,0,0,4.234-1.12c.081,0,.135-.072.226,0a6.889,6.889,0,0,0,3.169,1.11h.7a.581.581,0,0,0,.533-.469,4.288,4.288,0,0,0,.126-.488v-.181a.235.235,0,0,1,0-.19v-.1a.235.235,0,0,1,0-.19v-.153a.09.09,0,0,1,0-.063.072.072,0,0,1,0-.063ZM8.295,17.722a1.436,1.436,0,0,1,.479-.253,10.563,10.563,0,0,1,2.239-.5,33.16,33.16,0,0,1,4.632-.226c.09,0,.144,0,.163.117a7.223,7.223,0,0,0,.641,2v.09c-1.11.054-2.212.045-3.3,0a16.019,16.019,0,0,1-2.266-.208,9.688,9.688,0,0,1-2.248-.524,1.3,1.3,0,0,1-.379-.208A.184.184,0,0,1,8.295,17.722Zm.208.9a7.828,7.828,0,0,0,1.679.451,25.523,25.523,0,0,0,2.88.307,33.558,33.558,0,0,0,3.566,0,.117.117,0,0,1,.126.063,7.638,7.638,0,0,0,1.959,2.23A7.189,7.189,0,0,1,8.5,18.616Zm7.945-.9a6.961,6.961,0,0,1,1.95-7.367,19.862,19.862,0,0,0,1.047,5.9,28.141,28.141,0,0,0,1.724,4.514,9.146,9.146,0,0,0,1.074,1.806s0,0,0,.054a6.979,6.979,0,0,1-5.8-4.939Zm6.78,4.767c-.072.271-.172.307-.4.117a2.329,2.329,0,0,1-.415-.479,12.91,12.91,0,0,1-1.363-2.591,34.109,34.109,0,0,1-1.923-6.211,13.316,13.316,0,0,1-.226-1.4,8.748,8.748,0,0,1-.09-1.083,2.8,2.8,0,0,1,.072-.776c.072-.271.172-.3.388-.117a3.548,3.548,0,0,1,.7.9A19.248,19.248,0,0,1,21.558,14.3a32.448,32.448,0,0,1,1.454,5.119,11.574,11.574,0,0,1,.271,2.492,2.167,2.167,0,0,1-.054.551Z" transform="translate(0 -0.029)" fill="#274a8d"/>
    </g>
  </g>
</svg>
