<svg xmlns="http://www.w3.org/2000/svg" width="7.023" height="4" viewBox="0 0 7.023 4">
  <path id="expand_more_FILL1_wght400_GRAD0_opsz48_2_" data-name="expand_more_FILL1_wght400_GRAD0_opsz48 (2)" d="M3.5,0a.454.454,0,0,0-.17.031.471.471,0,0,0-.155.108L.116,3.2A.425.425,0,0,0,0,3.533a.476.476,0,0,0,.131.332A.388.388,0,0,0,.464,4,.581.581,0,0,0,.781,3.85L3.5,1.129,6.224,3.85a.5.5,0,0,0,.332.139.366.366,0,0,0,.332-.139.341.341,0,0,0,.131-.325.6.6,0,0,0-.147-.34L3.827.139A.471.471,0,0,0,3.673.031.454.454,0,0,0,3.5,0Z" transform="translate(7.023 4) rotate(180)" fill="#221f20"/>
</svg>
