<svg xmlns="http://www.w3.org/2000/svg" width="35.014" height="40" viewBox="0 0 35.014 40">
  <path id="hearing_FILL0_wght400_GRAD0_opsz48" d="M148.723,195.471a7.913,7.913,0,0,1-4.832-1.513,8.889,8.889,0,0,1-3.026-4,19.905,19.905,0,0,0-1.928-3.88,18.327,18.327,0,0,0-3.587-3.49,14.537,14.537,0,0,1-6.052-12.641,12.749,12.749,0,0,1,13.276-13.325,13.454,13.454,0,0,1,9.005,3.124,12.667,12.667,0,0,1,4.417,8.1,1.214,1.214,0,0,1-.317,1.074,1.5,1.5,0,0,1-2.074.049,1.626,1.626,0,0,1-.537-.976,9.974,9.974,0,0,0-3.514-6.1,10.583,10.583,0,0,0-6.98-2.343,9.968,9.968,0,0,0-7.37,3,10.091,10.091,0,0,0-2.977,7.395,12.739,12.739,0,0,0,1.367,6.077,15.681,15.681,0,0,0,4.539,4.954,13.3,13.3,0,0,1,3.051,3.075,22.689,22.689,0,0,1,2.172,4.1,8.327,8.327,0,0,0,2.172,3.221,4.7,4.7,0,0,0,3.2,1.171,4.187,4.187,0,0,0,2.562-.854,4.661,4.661,0,0,0,1.635-2.221,1.472,1.472,0,0,1,1.318-.976,1.557,1.557,0,0,1,1.293.586,1.251,1.251,0,0,1,.22,1.269,7.4,7.4,0,0,1-2.636,3.685A7.084,7.084,0,0,1,148.723,195.471Zm-22.842-11.909a22.369,22.369,0,0,1-3.612-6.467A21.6,21.6,0,0,1,121,169.749a23.01,23.01,0,0,1,1.2-7.37,19.452,19.452,0,0,1,3.636-6.443,1.356,1.356,0,0,1,1-.464,1.6,1.6,0,0,1,1.1.366,1.331,1.331,0,0,1,.464.976,1.57,1.57,0,0,1-.366,1.074,17.323,17.323,0,0,0-3.075,5.54,19.713,19.713,0,0,0-1.025,6.321A19.344,19.344,0,0,0,124.953,176a17.974,17.974,0,0,0,3.075,5.564,1.545,1.545,0,0,1,.342,1.123,1.465,1.465,0,0,1-.488,1.025,1.4,1.4,0,0,1-1.025.366A1.275,1.275,0,0,1,125.881,183.561Zm16.693-9.078a4.5,4.5,0,0,1-4.539-4.539,4.546,4.546,0,0,1,1.318-3.27,4.3,4.3,0,0,1,3.221-1.367,4.666,4.666,0,0,1,4.637,4.637,4.3,4.3,0,0,1-1.367,3.221A4.546,4.546,0,0,1,142.573,174.483Z" transform="translate(-121 -155.471)" fill="#2e478d"/>
</svg>
