<svg xmlns="http://www.w3.org/2000/svg" width="36" height="36" viewBox="0 0 36 36">
  <g id="Accessories" transform="translate(0.099 -0.06)">
    <circle id="Ellipse_198" data-name="Ellipse 198" cx="18" cy="18" r="18" transform="translate(-0.099 0.06)" fill="#e2eafd"/>
    <path id="Path_44775" data-name="Path 44775" d="M11.409,8.22c0,.06-.08.07-.109,0Z" transform="translate(-0.208 -0.063)" fill="#747171"/>
    <path id="Path_44776" data-name="Path 44776" d="M12.429,8.27a.089.089,0,0,1-.109,0Z" transform="translate(-0.216 -0.064)" fill="#555252"/>
    <path id="Path_44777" data-name="Path 44777" d="M12.43,8.27h.109A.4.4,0,0,1,12.43,8.27Z" transform="translate(-0.217 -0.064)" fill="#6a6767"/>
    <g id="infinite_icons_ear_Accessories_1_" data-name="infinite icons_ear Accessories (1)" transform="translate(4.809 3.857)">
      <path id="Path_44868" data-name="Path 44868" d="M7.03,14.71a3.7,3.7,0,0,1,0-2.973.986.986,0,0,0-.517-1.463c-.544-.228-.389-.557-.208-.9a1.262,1.262,0,0,1,.591-.53c0-.121-.114-.114-.188-.148s-.289.094-.342.188A10.241,10.241,0,0,1,4.775,10.7c-.966.98-.852,4.026,0,5.134a1.584,1.584,0,0,0,1.9.342,1.054,1.054,0,0,0,.356-1.47Zm-.577,1.241A1.174,1.174,0,0,1,4.99,15.7c-.778-.973-.778-3.966,0-4.919a.913.913,0,0,1,.805-.336c.94,0,1.248.409.96,1.288a4.483,4.483,0,0,0,0,3.06C6.943,15.247,7,15.744,6.453,15.952Z" transform="translate(0 -0.161)" fill="#274a8d" stroke="#274a8d" stroke-width="0.1"/>
      <path id="Path_44869" data-name="Path 44869" d="M13.106,8.463a.671.671,0,0,0-1.06,0,1.047,1.047,0,0,0,.141,1.45.671.671,0,0,1,.268.624v2.57c0,.98-.57,1.564-1.342,1.537s-1.255-.617-1.268-1.564,0-2.013,0-3.047c0-1.228-.557-1.671-1.785-1.483l.188.148c1.033.067,1.342.4,1.376,1.443s0,2.013,0,3.053a1.564,1.564,0,0,0,1.55,1.718,1.6,1.6,0,0,0,1.543-1.731V10.61c0-.248-.047-.5.242-.671a1.02,1.02,0,0,0,.148-1.476Zm-.564,1.161c-.315,0-.51-.094-.49-.456s.114-.671.53-.671.47.289.5.537C13.1,9.483,12.912,9.63,12.543,9.624Z" transform="translate(-1.305)" fill="#274a8d" stroke="#274a8d" stroke-width="0.1"/>
      <path id="Path_44870" data-name="Path 44870" d="M6.195,14.71l.3,2.3A2.939,2.939,0,0,1,6.195,14.71Z" transform="translate(-0.654 -2.14)" fill="#274a8d" stroke="#274a8d" stroke-width="0.1"/>
      <path id="Path_44871" data-name="Path 44871" d="M24.321,11.321c-2.409-.04-4.818,0-7.234,0-.731,0-1.047.423-1.087,1.134a4.986,4.986,0,0,0,.711,2.376,2.537,2.537,0,0,1,.094,2.389.228.228,0,0,0,.188.322.342.342,0,0,0,0-.087c.208-1.007.846-1.288,1.825-1.215,1.718.134,3.456-.168,5.174.168a.553.553,0,0,0,.067.174.349.349,0,0,0,.148-.4c.383-.98.812-1.939,1.134-2.933C25.717,12.127,25.288,11.335,24.321,11.321Zm.49,2.463c-1.107,2.59-.383,2.1-3.067,2.154-1.054,0-2.107-.047-3.154,0a1.342,1.342,0,0,1-1.537-1.047c-.819-2.235-1.114-2.188,1.429-2.154h5.664C24.972,12.751,25.127,13.073,24.811,13.784Zm-.53-1.4H17.154c-.248,0-.638.114-.671-.3s.262-.49.564-.49h7.342c.3,0,.584.181.557.5s-.416.3-.664.3Z" transform="translate(-3.917 -1.02)" fill="#274a8d" stroke="#274a8d" stroke-width="0.1"/>
      <path id="Path_44872" data-name="Path 44872" d="M25.384,21.348c-.3-.96-.758-1.872-1.148-2.8l-.215.228c-.443.342-.174.745-.087,1.127a8.006,8.006,0,0,1,.523,1.973v.228h.389c.416.671.148,1.047-.523,1.054-2.4.04-4.8,0-7.194,0a.611.611,0,0,1-.638-.443.443.443,0,0,1,.383-.611h.349v-.168a3.973,3.973,0,0,1,.034-1.228c.074-.315.235-.671-.195-.9l-.2-.235a5.751,5.751,0,0,0-.872,2.255c-.128,1.342.268,1.772,1.624,1.778h6.073C25.25,23.61,25.827,22.878,25.384,21.348Z" transform="translate(-3.906 -3.403)" fill="#274a8d" stroke="#274a8d" stroke-width="0.1"/>
      <path id="Path_44873" data-name="Path 44873" d="M25.232,23.742H17.26v-.215l7.986-.047Z" transform="translate(-4.331 -5.025)" fill="#274a8d" stroke="#274a8d" stroke-width="0.1"/>
      <path id="Path_44874" data-name="Path 44874" d="M22.9,20.856l.624-.416c.262,0,.289.282.416.436-.671.859-3.107,1.288-3.919.671a.537.537,0,0,1-.067-.893.215.215,0,0,1,.255-.054c.671.973,1.631.557,2.517.436A1.631,1.631,0,0,0,22.9,20.856Z" transform="translate(-5.15 -4.025)" fill="#274a8d" stroke="#274a8d" stroke-width="0.1"/>
      <path id="Path_44875" data-name="Path 44875" d="M23.013,20.875v.195a2.248,2.248,0,0,1-2.684-.362H20.08c.242-.349.544-.174.825-.087a7.087,7.087,0,0,0,2.107.255Z" transform="translate(-5.259 -4.044)" fill="#274a8d" stroke="#274a8d" stroke-width="0.1"/>
      <path id="Path_44876" data-name="Path 44876" d="M25.53,20.528l-.416-.436-.544-.711C25.281,19.635,25.691,19.85,25.53,20.528Z" transform="translate(-6.735 -3.676)" fill="#274a8d" stroke="#274a8d" stroke-width="0.1"/>
      <path id="Path_44877" data-name="Path 44877" d="M20.377,20.81a5.234,5.234,0,0,0,2.684.362c-.517.94-1.342.329-2.06.409C20.625,21.609,20.021,21.528,20.377,20.81Z" transform="translate(-5.321 -4.147)" fill="#274a8d" stroke="#274a8d" stroke-width="0.1"/>
    </g>
  </g>
</svg>
