<svg xmlns="http://www.w3.org/2000/svg" width="36" height="36" viewBox="0 0 36 36">
  <g id="Group_5428" data-name="Group 5428" transform="translate(-310 -55)">
    <circle id="Ellipse_229" data-name="Ellipse 229" cx="18" cy="18" r="18" transform="translate(310 55)" fill="#2e478d"/>
    <path id="edit_FILL1_wght300_GRAD0_opsz48" d="M160.864,240.519l-2.462-2.462,1-1a1,1,0,0,1,.756-.294,1.065,1.065,0,0,1,.766.317l.94.94a1.017,1.017,0,0,1,.3.749,1.031,1.031,0,0,1-.31.758Zm-14.028,12.245a.654.654,0,0,1-.679-.68v-1.509a.633.633,0,0,1,.047-.246.8.8,0,0,1,.156-.231l11.3-11.289,2.453,2.453-11.289,11.3a.8.8,0,0,1-.231.156.633.633,0,0,1-.246.047Z" transform="translate(173.844 -171.765)" fill="#fff"/>
  </g>
</svg>
