<svg xmlns="http://www.w3.org/2000/svg" width="36" height="36" viewBox="0 0 36 36">
  <g id="Group_5479" data-name="Group 5479" transform="translate(-14 -1580)">
    <circle id="Ellipse_200" data-name="Ellipse 200" cx="18" cy="18" r="18" transform="translate(14 1580)" fill="#e9e9e9" opacity="0.4"/>
    <g id="Group_5475" data-name="Group 5475">
      <path id="Path_44791" data-name="Path 44791" d="M14.21,17.3a3.642,3.642,0,1,1,1.017,2.606A3.672,3.672,0,0,1,14.21,17.3Z" transform="translate(13.988 1579.985)" fill="#adaeae"/>
      <path id="Path_44792" data-name="Path 44792" d="M24.262,28.022a6.341,6.341,0,0,0-6.241-6.492,6.532,6.532,0,0,0-6.512,6.492Z" transform="translate(13.979 1580.012)" fill="#adaeae"/>
      <path id="Path_44793" data-name="Path 44793" d="M12.562,14.219l.341-1-.9-.692h1.1l.341-1h0l.331,1H14.91l-.893.652.331,1h0l-.893-.642-.883.642Z" transform="translate(13.98 1579.978)" fill="#adaeae"/>
      <path id="Path_44794" data-name="Path 44794" d="M10.5,17.539l.341-1L10,15.844h1.1l.341-1.054h0l.341,1.054h1.1L12,16.5l.341,1h0l-.893-.642-.893.642Z" transform="translate(13.974 1579.989)" fill="#adaeae"/>
      <path id="Path_44795" data-name="Path 44795" d="M23.722,17.539l.341-1-.893-.652h1.1l.341-1.054h0l.391,1.013h1.1l-.893.652.341,1h0l-.893-.642-.893.642Z" transform="translate(14.018 1579.989)" fill="#adaeae"/>
      <path id="Path_44796" data-name="Path 44796" d="M21.7,14.219l.341-1-.893-.652h1.1l.341-1h0l.341,1H24.01l-.893.652.331,1h0l-.893-.642-.883.642Z" transform="translate(14.011 1579.978)" fill="#adaeae"/>
      <path id="Path_44797" data-name="Path 44797" d="M17,12.549l.341-1-.893-.652h1.1l.341-1h0l.341,1h1.1l-.893.652.341,1h0l-.893-.652L17,12.549Z" transform="translate(13.995 1579.973)" fill="#adaeae"/>
    </g>
  </g>
</svg>
