<svg xmlns="http://www.w3.org/2000/svg" width="46.187" height="32" viewBox="0 0 46.187 32">
  <path id="visibility_FILL0_wght400_GRAD0_opsz48" d="M70.1,281.067a9.025,9.025,0,1,0-6.427-2.64A8.729,8.729,0,0,0,70.1,281.067Zm-.019-3.093a5.731,5.731,0,0,1-4.227-1.746,5.794,5.794,0,0,1-1.733-4.24,5.731,5.731,0,0,1,1.746-4.227,5.794,5.794,0,0,1,4.24-1.733,5.731,5.731,0,0,1,4.227,1.746,5.794,5.794,0,0,1,1.733,4.24,5.731,5.731,0,0,1-1.746,4.227A5.794,5.794,0,0,1,70.081,277.973ZM70.093,288a23.812,23.812,0,0,1-13.413-4,26.927,26.927,0,0,1-9.352-10.564,1.92,1.92,0,0,1-.248-.645,3.948,3.948,0,0,1,0-1.581,1.921,1.921,0,0,1,.248-.645A26.928,26.928,0,0,1,56.68,260a24.49,24.49,0,0,1,26.827,0,26.928,26.928,0,0,1,9.352,10.564,1.92,1.92,0,0,1,.248.645,3.948,3.948,0,0,1,0,1.581,1.92,1.92,0,0,1-.248.645A26.927,26.927,0,0,1,83.507,284,23.812,23.812,0,0,1,70.093,288ZM70.093,272Zm-.009,12.8a21.462,21.462,0,0,0,11.876-3.493A22.669,22.669,0,0,0,90.2,272a22.69,22.69,0,0,0-8.231-9.307,21.917,21.917,0,0,0-23.742,0A23.05,23.05,0,0,0,49.933,272a23.071,23.071,0,0,0,8.284,9.307A21.418,21.418,0,0,0,70.084,284.8Z" transform="translate(-47 -256)" fill="#2e478d"/>
</svg>
