<svg xmlns="http://www.w3.org/2000/svg" width="42" height="42" viewBox="0 0 42 42">
  <g id="Group_5530" data-name="Group 5530" transform="translate(-159 -106)">
    <g id="Ellipse_268" data-name="Ellipse 268" transform="translate(159 106)" fill="none" stroke="#727271" stroke-width="1">
      <circle cx="21" cy="21" r="21" stroke="none"/>
      <circle cx="21" cy="21" r="20.5" fill="none"/>
    </g>
    <g id="Group_5591" data-name="Group 5591" transform="translate(-45.047 2.268)">
      <path id="visibility_FILL0_wght400_GRAD0_opsz48" d="M61.051,271.247a5.489,5.489,0,1,0-3.909-1.606A5.309,5.309,0,0,0,61.051,271.247Zm-.011-1.882a3.486,3.486,0,0,1-2.571-1.062,3.524,3.524,0,0,1-1.054-2.579,3.486,3.486,0,0,1,1.062-2.571,3.524,3.524,0,0,1,2.579-1.054,3.486,3.486,0,0,1,2.571,1.062,3.524,3.524,0,0,1,1.054,2.579,3.486,3.486,0,0,1-1.062,2.571A3.524,3.524,0,0,1,61.039,269.366Zm.008,6.1a14.484,14.484,0,0,1-8.159-2.433,16.379,16.379,0,0,1-5.689-6.426,1.168,1.168,0,0,1-.151-.392,2.4,2.4,0,0,1,0-.962,1.168,1.168,0,0,1,.151-.392,16.379,16.379,0,0,1,5.689-6.426,14.9,14.9,0,0,1,16.318,0,16.379,16.379,0,0,1,5.689,6.426,1.168,1.168,0,0,1,.151.392,2.4,2.4,0,0,1,0,.962,1.168,1.168,0,0,1-.151.392,16.379,16.379,0,0,1-5.689,6.426A14.484,14.484,0,0,1,61.047,275.464ZM61.047,265.732Zm-.005,7.786a13.055,13.055,0,0,0,7.224-2.125,13.788,13.788,0,0,0,5.012-5.661,13.8,13.8,0,0,0-5.007-5.661,13.331,13.331,0,0,0-14.442,0,14.02,14.02,0,0,0-5.045,5.661,14.033,14.033,0,0,0,5.039,5.661A13.028,13.028,0,0,0,61.041,273.518Z" transform="translate(164 -141)" fill="#727271"/>
      <g id="Ellipse_274" data-name="Ellipse 274" transform="translate(230.047 125.949)" fill="#dedede" stroke="#727271" stroke-width="1">
        <circle cx="4.258" cy="4.258" r="4.258" stroke="none"/>
        <circle cx="4.258" cy="4.258" r="3.758" fill="none"/>
      </g>
      <path id="remove_FILL0_wght400_GRAD0_opsz48" d="M200.214,546.521a.19.19,0,0,1-.153-.075.285.285,0,0,1-.062-.187.279.279,0,0,1,.062-.185.191.191,0,0,1,.153-.074h3.571a.19.19,0,0,1,.153.075.285.285,0,0,1,.062.187.279.279,0,0,1-.062.185.191.191,0,0,1-.153.074Z" transform="translate(32.547 -415.793)" fill="#727271" stroke="#727271" stroke-width="0.5"/>
    </g>
  </g>
</svg>
