<svg xmlns="http://www.w3.org/2000/svg" xmlns:xlink="http://www.w3.org/1999/xlink" width="16.709" height="9.843" viewBox="0 0 16.709 9.843">
  <defs>
    <clipPath id="clip-path">
      <rect id="Rectangle_2379" data-name="Rectangle 2379" width="16.709" height="9.843" transform="translate(0.4 0.2)" fill="#fff"/>
    </clipPath>
  </defs>
  <g id="Layer_1_1_" data-name="Layer_1 (1)" transform="translate(-0.4 -0.2)" clip-path="url(#clip-path)">
    <path id="Path_44986" data-name="Path 44986" d="M16.974,10.042a9.018,9.018,0,0,0-1.412-1.423c-.167-.135-.31-.138-.419-.014s-.076.276.08.41c.049.042.1.08.148.126.387.375.771.751,1.152,1.122C13.172,14.811,5.2,15.486.982,10.28a9.548,9.548,0,0,1,1.7-1.615A9.917,9.917,0,0,1,7.908,6.674a10.018,10.018,0,0,1,2.285.071c.216.033.352-.05.376-.218s-.094-.276-.308-.3a10.662,10.662,0,0,0-4.754.39A10.327,10.327,0,0,0,.554,9.98c-.223.275-.22.325,0,.609a8.987,8.987,0,0,0,1.53,1.552,10.284,10.284,0,0,0,6,2.29,10.766,10.766,0,0,0,5.709-1.169,8.941,8.941,0,0,0,3.193-2.738c.151-.214.146-.28-.016-.484Z" transform="translate(0.009 -4.41)" fill="#fff"/>
    <path id="Path_44987" data-name="Path 44987" d="M20.924,13.353a3.135,3.135,0,1,0,3.136-3.116A3.132,3.132,0,0,0,20.924,13.353Zm5.744.027a2.611,2.611,0,1,1-2.612-2.628A2.606,2.606,0,0,1,26.668,13.379Z" transform="translate(-15.304 -7.484)" fill="#fff"/>
    <path id="Path_44988" data-name="Path 44988" d="M26.049,17.157a1.829,1.829,0,1,0,1.852-1.8,1.827,1.827,0,0,0-1.852,1.8Z" transform="translate(-19.125 -11.306)" fill="#fff"/>
    <path id="Path_44989" data-name="Path 44989" d="M45.221,3.737a.987.987,0,0,0,.34.388.5.5,0,0,0,.334.086.95.95,0,0,0,.546-.3,2.362,2.362,0,0,0,.516-.818c.013-.031.027-.044.06-.039l.039,0c.25.046.5.091.751.138a7.5,7.5,0,0,0,1.072.155,1.646,1.646,0,0,0,.754-.108.781.781,0,0,0,.436-.441,1.121,1.121,0,0,0,.055-.562,2.334,2.334,0,0,0-.143-.537,3.065,3.065,0,0,0-.617-.975,1.783,1.783,0,0,0-.54-.408,1.033,1.033,0,0,0-.718-.08,1.364,1.364,0,0,0-.618.369A2.608,2.608,0,0,0,47,1.3a2.493,2.493,0,0,0-.288,1c0,.041.013.052.047.053.068,0,.135.008.2.009a.2.2,0,0,0,.216-.134.623.623,0,0,0,.027-.069,4.375,4.375,0,0,1,.353-.873,1.62,1.62,0,0,1,.324-.419.693.693,0,0,1,.65-.177,1.081,1.081,0,0,1,.412.215,1.759,1.759,0,0,1,.408.474,1.98,1.98,0,0,1,.332.9.41.41,0,0,1-.209.449.876.876,0,0,1-.411.113,4.787,4.787,0,0,1-.971-.053c-.247-.038-.494-.08-.741-.119s-.475-.074-.713-.11a4.42,4.42,0,0,0-.752-.066,1.553,1.553,0,0,0-.578.071A.472.472,0,0,0,45,3.088a1.953,1.953,0,0,0,.227.65Zm.414-.76a.755.755,0,0,1,.118-.027c.052-.006.1-.008.157-.013l.562.046c.042,0,.031.031.022.053-.042.105-.083.212-.132.314a.849.849,0,0,1-.214.286.486.486,0,0,1-.14.083.211.211,0,0,1-.2-.02.8.8,0,0,1-.263-.311.509.509,0,0,1-.069-.2.193.193,0,0,1,.159-.212Z" transform="translate(-33.25 -0.008)" fill="#fff"/>
    <path id="Path_44990" data-name="Path 44990" d="M56.8,4.733a.144.144,0,0,0-.143.143v.254H56.4a.143.143,0,1,0,0,.286h.255v.254a.143.143,0,0,0,.286,0V5.417h.253a.143.143,0,1,0,0-.286H56.94V4.876A.144.144,0,0,0,56.8,4.733Z" transform="translate(-41.65 -3.38)" fill="#fff"/>
  </g>
</svg>
