<svg xmlns="http://www.w3.org/2000/svg" width="36" height="36" viewBox="0 0 36 36">
  <g id="eyeglass" transform="translate(0.099 -0.06)">
    <circle id="Ellipse_198" data-name="Ellipse 198" cx="18" cy="18" r="18" transform="translate(-0.099 0.06)" fill="#e2eafd"/>
    <path id="Path_44775" data-name="Path 44775" d="M11.409,8.22c0,.06-.08.07-.109,0Z" transform="translate(-0.208 -0.063)" fill="#747171"/>
    <path id="Path_44776" data-name="Path 44776" d="M12.429,8.27a.089.089,0,0,1-.109,0Z" transform="translate(-0.216 -0.064)" fill="#555252"/>
    <path id="Path_44777" data-name="Path 44777" d="M12.43,8.27h.109A.4.4,0,0,1,12.43,8.27Z" transform="translate(-0.217 -0.064)" fill="#6a6767"/>
    <path id="infinite_icons_eye_glass" data-name="infinite icons_eye glass" d="M26.864,14.459H26.67a.257.257,0,0,1-.227-.17,3.322,3.322,0,0,0-1.985-2.115,6.774,6.774,0,0,0-2.706-.535H8.836a8.5,8.5,0,0,0-2.812.405,3.314,3.314,0,0,0-2.22,1.9.681.681,0,0,1-.81.535.624.624,0,0,0-.664.648v.81a.664.664,0,0,0,.616.656,1.086,1.086,0,0,0,.324,0c.219,0,.284.065.3.267a7.163,7.163,0,0,0,.551,2.2,3.824,3.824,0,0,0,4.667,2.39A7.106,7.106,0,0,0,12.92,18.51a7.381,7.381,0,0,0,1.3-3.97c0-.162.081-.211.227-.227a5.307,5.307,0,0,1,1.134,0c.17,0,.227.073.235.243a7.47,7.47,0,0,0,1.807,4.554,6.887,6.887,0,0,0,3.954,2.431,3.711,3.711,0,0,0,4.051-1.758,6.879,6.879,0,0,0,.907-2.812c0-.34,0-.357.365-.34a.81.81,0,0,0,.883-.494V14.913a.81.81,0,0,0-.916-.454ZM4.031,15.812a3.241,3.241,0,0,0-.4,0,1.224,1.224,0,0,0-.243,0c-.235,0-.3-.041-.3-.292s.065-.308.3-.284a5.2,5.2,0,0,0,.616,0c.089,0,.17,0,.227.081s.186.138.13.235S4.226,15.828,4.031,15.812Zm9.456-1.45A7.033,7.033,0,0,1,12.4,17.878,6.3,6.3,0,0,1,8.5,20.747a3,3,0,0,1-3.589-1.774,7.349,7.349,0,0,1-.591-2.244c0-.1,0-.113.105-.146a1.564,1.564,0,0,0,.745-.81.5.5,0,0,0,0-.5,1.564,1.564,0,0,0-.616-.7c-.138-.081-.122-.138-.073-.251a2.658,2.658,0,0,1,1.531-1.442A7.989,7.989,0,0,1,9.031,12.4h.421a11.821,11.821,0,0,1,2.617.219,3.735,3.735,0,0,1,.429.122,1.394,1.394,0,0,1,.988,1.62Zm2.431-.81c0,.081-.073.073-.138.065a5.137,5.137,0,0,0-1.41,0c-.154-.065-.154-.065-.154-.178a1.912,1.912,0,0,0-.64-.988c.057-.065.105-.049.154-.049h2.876a2.115,2.115,0,0,0-.713,1.078ZM25.8,16.793a7.082,7.082,0,0,1-.681,2.431A3.006,3.006,0,0,1,21.4,20.771a6.571,6.571,0,0,1-4.3-4.051,7.025,7.025,0,0,1-.478-2.431,1.386,1.386,0,0,1,1.045-1.548,6.62,6.62,0,0,1,1.855-.292H20.7a9.674,9.674,0,0,1,2.812.243,3.055,3.055,0,0,1,2.05,1.515c.089.17.138.284-.1.413a1.531,1.531,0,0,0-.535.616.551.551,0,0,0,0,.527,1.548,1.548,0,0,0,.762.81c.081,0,.105.032.089.113Zm.916-.875a3.606,3.606,0,0,0-.591,0c-.122,0-.219,0-.275-.13s-.162-.1-.089-.194.122-.243.284-.243h.446a1.3,1.3,0,0,0,.251,0c.211,0,.284.041.292.275s-.089.211-.34.186Z" transform="translate(2.572 1.424)" fill="#274a8d"/>
  </g>
</svg>
