<svg xmlns="http://www.w3.org/2000/svg" xmlns:xlink="http://www.w3.org/1999/xlink" width="44" height="44" viewBox="0 0 44 44">
  <defs>
    <filter id="Ellipse_198" x="0" y="0" width="44" height="44" filterUnits="userSpaceOnUse">
      <feOffset dy="2" input="SourceAlpha"/>
      <feGaussianBlur stdDeviation="2" result="blur"/>
      <feFlood flood-color="#727271" flood-opacity="0.122"/>
      <feComposite operator="in" in2="blur"/>
      <feComposite in="SourceGraphic"/>
    </filter>
  </defs>
  <g id="ayush_icons-08" data-name="ayush icons-08" transform="translate(6.099 3.94)">
    <g transform="matrix(1, 0, 0, 1, -6.1, -3.94)" filter="url(#Ellipse_198)">
      <circle id="Ellipse_198-2" data-name="Ellipse 198" cx="16" cy="16" r="16" transform="translate(6 4)" fill="#fff"/>
    </g>
    <path id="Path_44775" data-name="Path 44775" d="M11.4,8.22c0,.053-.071.062-.1,0Z" transform="translate(-1.452 -0.963)" fill="#747171"/>
    <path id="Path_44776" data-name="Path 44776" d="M12.417,8.27a.08.08,0,0,1-.1,0Z" transform="translate(-1.572 -0.969)" fill="#555252"/>
    <path id="Path_44777" data-name="Path 44777" d="M12.43,8.27h.1A.352.352,0,0,1,12.43,8.27Z" transform="translate(-1.585 -0.969)" fill="#6a6767"/>
    <path id="filter_alt_FILL1_wght300_GRAD0_opsz48" d="M190.975,290a.81.81,0,0,1-.826-.826v-5.4l-5.343-6.794a.523.523,0,0,1-.071-.638.59.59,0,0,1,.548-.34h12.532a.59.59,0,0,1,.548.34.523.523,0,0,1-.071.638l-5.343,6.794v5.4a.81.81,0,0,1-.826.826Z" transform="translate(-175.648 -266.94)" fill="#221f20"/>
  </g>
</svg>
