<svg xmlns="http://www.w3.org/2000/svg" width="16.709" height="16" viewBox="0 0 16.709 16">
  <path id="card_membership_FILL0_wght300_GRAD0_opsz48" d="M101,205v2.045a.261.261,0,0,0,.271.271h14.172a.261.261,0,0,0,.271-.271V205H101Zm5.461,6.922a.593.593,0,0,1-.623-.019.605.605,0,0,1-.3-.55v-3.041h-4.265A1.28,1.28,0,0,1,100,207.044v-9.775A1.28,1.28,0,0,1,101.269,196h14.172a1.28,1.28,0,0,1,1.268,1.268v9.775a1.28,1.28,0,0,1-1.268,1.268h-4.265v3.041a.605.605,0,0,1-.3.55.593.593,0,0,1-.623.019l-1.9-.957ZM101,202.93h14.713v-5.66a.261.261,0,0,0-.271-.271H101.269a.261.261,0,0,0-.271.271Zm0,4.115V197h.271a.261.261,0,0,0-.271.271v9.775a.261.261,0,0,0,.271.271H101Z" transform="translate(-100.001 -196.001)" fill="#fff"/>
</svg>
