<svg xmlns="http://www.w3.org/2000/svg" width="50.901" height="20" viewBox="0 0 50.901 20">
  <g id="Group_5583" data-name="Group 5583" transform="translate(18033 -6528)">
    <path id="Path_44904" data-name="Path 44904" d="M-18031.061,6533.337l1.664-3.26,7.516-1.731,6.449.458,3.086,1.273.516,2.483-1.375,6.624-2.832,3.536-7.066,4.051-5.8-1.97-2.16-5.335v-2.473l1.625-1.987Z" transform="translate(1.939 0.346)" fill="#e2eafd"/>
    <path id="Path_44905" data-name="Path 44905" d="M-18011.832,6533.337l-1.664-3.26-7.516-1.731-6.449.458-3.086,1.273-.516,2.483,1.375,6.624,2.832,3.536,7.383,4.414,6.246-2.808,1.629-4.794-.234-2.565-1.721-1.948Z" transform="translate(25.941 0.346)" fill="#e2eafd"/>
    <path id="infinite_icons_eye_glass" data-name="infinite icons_eye glass" d="M51.4,17.281H51.01a.513.513,0,0,1-.454-.34,6.644,6.644,0,0,0-3.97-4.229,13.547,13.547,0,0,0-5.412-1.07H15.343a17,17,0,0,0-5.623.81A6.628,6.628,0,0,0,5.28,16.26a1.361,1.361,0,0,1-1.62,1.07,1.248,1.248,0,0,0-1.329,1.3v1.62a1.329,1.329,0,0,0,1.232,1.313,2.172,2.172,0,0,0,.648,0c.438,0,.567.13.6.535a14.325,14.325,0,0,0,1.1,4.408,7.649,7.649,0,0,0,9.334,4.78,14.212,14.212,0,0,0,8.265-5.9,14.763,14.763,0,0,0,2.593-7.94c0-.324.162-.421.454-.454a10.614,10.614,0,0,1,2.269,0c.34,0,.454.146.47.486a14.941,14.941,0,0,0,3.614,9.107,13.774,13.774,0,0,0,7.908,4.861,7.422,7.422,0,0,0,8.1-3.516A13.758,13.758,0,0,0,50.734,22.3c0-.681,0-.713.729-.681a1.62,1.62,0,0,0,1.766-.989V18.189a1.62,1.62,0,0,0-1.831-.907ZM5.733,19.988a6.482,6.482,0,0,0-.794,0,2.447,2.447,0,0,0-.486,0c-.47,0-.6-.081-.6-.583s.13-.616.6-.567a10.4,10.4,0,0,0,1.232,0c.178,0,.34,0,.454.162s.373.275.259.47S6.122,20.02,5.733,19.988Zm18.911-2.9a14.066,14.066,0,0,1-2.171,7.033,12.591,12.591,0,0,1-7.811,5.737,6,6,0,0,1-7.179-3.549A14.7,14.7,0,0,1,6.3,21.819c0-.194,0-.227.211-.292A3.128,3.128,0,0,0,8,19.907a1,1,0,0,0,0-1,3.128,3.128,0,0,0-1.232-1.394c-.275-.162-.243-.275-.146-.5a5.315,5.315,0,0,1,3.063-2.884,15.978,15.978,0,0,1,6.044-.956h.843a23.643,23.643,0,0,1,5.234.438,7.471,7.471,0,0,1,.859.243,2.787,2.787,0,0,1,1.977,3.241Zm4.861-1.62c0,.162-.146.146-.275.13a10.274,10.274,0,0,0-2.82,0c-.308-.13-.308-.13-.308-.357a3.824,3.824,0,0,0-1.28-1.977c.113-.13.211-.1.308-.1h5.753a4.229,4.229,0,0,0-1.426,2.155Zm19.77,6.482a14.163,14.163,0,0,1-1.361,4.861,6.012,6.012,0,0,1-7.438,3.1,13.142,13.142,0,0,1-8.6-8.1,14.05,14.05,0,0,1-.956-4.861,2.771,2.771,0,0,1,2.09-3.1,13.239,13.239,0,0,1,3.711-.583h2.35a19.349,19.349,0,0,1,5.623.486,6.109,6.109,0,0,1,4.1,3.03c.178.34.275.567-.194.826a3.063,3.063,0,0,0-1.07,1.232,1.1,1.1,0,0,0,0,1.053,3.1,3.1,0,0,0,1.523,1.62c.162,0,.211.065.178.227Zm1.831-1.75a7.211,7.211,0,0,0-1.183,0c-.243,0-.438,0-.551-.259s-.324-.194-.178-.389.243-.486.567-.486h.891a2.609,2.609,0,0,0,.5,0c.421,0,.567.081.583.551s-.178.421-.681.373Z" transform="translate(-18035.33 6516.363)" fill="#274a8d"/>
    <path id="add_FILL0_wght400_GRAD0_opsz48_1_" data-name="add_FILL0_wght400_GRAD0_opsz48 (1)" d="M204,304a.41.41,0,0,1-.3-.123.418.418,0,0,1-.121-.305v-3.143h-3.143a.414.414,0,0,1-.305-.124A.418.418,0,0,1,200,300a.41.41,0,0,1,.123-.3.418.418,0,0,1,.305-.121h3.143v-3.143a.414.414,0,0,1,.124-.305A.418.418,0,0,1,204,296a.41.41,0,0,1,.3.123.418.418,0,0,1,.121.305v3.143h3.143a.413.413,0,0,1,.305.124A.418.418,0,0,1,208,300a.41.41,0,0,1-.123.3.418.418,0,0,1-.305.121h-3.143v3.143a.413.413,0,0,1-.124.305A.418.418,0,0,1,204,304Z" transform="translate(-18199 6236)" fill="#2e478d"/>
    <path id="remove_FILL0_wght400_GRAD0_opsz48" d="M200.429,546.857a.413.413,0,0,1-.305-.124.418.418,0,0,1-.123-.307.41.41,0,0,1,.123-.3.417.417,0,0,1,.305-.121h7.143a.413.413,0,0,1,.305.124.418.418,0,0,1,.123.307.41.41,0,0,1-.123.3.418.418,0,0,1-.305.121Z" transform="translate(-18224.344 5990)" fill="#2e478d"/>
  </g>
</svg>
