<svg xmlns="http://www.w3.org/2000/svg" xmlns:xlink="http://www.w3.org/1999/xlink" width="15.525" height="15.963" viewBox="0 0 15.525 15.963">
  <defs>
    <clipPath id="clip-path">
      <rect id="Rectangle_2380" data-name="Rectangle 2380" width="15.525" height="15.963" transform="translate(0.5 0.7)" fill="#fff"/>
    </clipPath>
  </defs>
  <g id="Layer_1" transform="translate(-0.5 -0.7)" clip-path="url(#clip-path)">
    <path id="Path_44991" data-name="Path 44991" d="M16.767,13.317a2.85,2.85,0,0,0-.034-.459,3.6,3.6,0,0,0-3.6-3.1c-.122,0-.247.006-.368.016a3.6,3.6,0,0,0-3.2,3.688,12.146,12.146,0,0,0,.553,3.24.358.358,0,0,0,.451.235.311.311,0,0,0,.164-.411,10.376,10.376,0,0,1-.5-2.4,5.124,5.124,0,0,1,.016-1.372,2.963,2.963,0,0,1,3.228-2.374,3.013,3.013,0,0,1,2.684,2.937.308.308,0,1,0,.613,0Z" transform="translate(-6.855 -6.859)" fill="#fff"/>
    <path id="Path_44992" data-name="Path 44992" d="M14.087,35.9a.291.291,0,0,0,.091.215.339.339,0,0,0,.229.086,2.534,2.534,0,0,0,1.384-.385,1.16,1.16,0,0,0,.56-1.022,5.931,5.931,0,0,0-.577-2.3.3.3,0,0,0-.328-.181.318.318,0,0,0-.227.159.339.339,0,0,0,.008.3,5.5,5.5,0,0,1,.5,1.917.641.641,0,0,1-.453.713,4.712,4.712,0,0,1-.852.188c-.079.01-.341.063-.339.317Z" transform="translate(-10.284 -23.923)" fill="#fff"/>
    <path id="Path_44993" data-name="Path 44993" d="M7.055,1.372a5.191,5.191,0,0,1,4.3,3.972.294.294,0,0,0,.35.217h.006c.294-.113.234-.215.237-.357A5.827,5.827,0,0,0,8.706,1.233,5.642,5.642,0,0,0,3.414,1.5,5.716,5.716,0,0,0,.5,6.412a1.318,1.318,0,0,0,0,.16.309.309,0,0,0,.3.314.32.32,0,0,0,.318-.328c.008-.092.016-.184.024-.278A6.49,6.49,0,0,1,1.284,5.26,5.2,5.2,0,0,1,7.055,1.372Z" transform="translate(0.003 -0.001)" fill="#fff"/>
    <path id="Path_44994" data-name="Path 44994" d="M15.292,36.689a.3.3,0,0,0-.381.091,6.8,6.8,0,0,1-1.289,1.365,5.616,5.616,0,0,0-1.987,3.02,3.632,3.632,0,0,1-.777,1.456,1.8,1.8,0,0,1-1.306.634,2.613,2.613,0,0,1-2.579-1.685,3.222,3.222,0,0,1-.146-.634l0-.018L6.8,40.772a.332.332,0,0,0-.235-.294.341.341,0,0,0-.083-.01.231.231,0,0,0-.211.094.725.725,0,0,0-.073.377A3.17,3.17,0,0,0,8.136,43.6,2.681,2.681,0,0,0,11.82,42.3a7.779,7.779,0,0,0,.422-1.085,5.412,5.412,0,0,1,1.828-2.653A7.276,7.276,0,0,0,15.4,37.124a.294.294,0,0,0-.109-.432s0,0,0,0Z" transform="translate(-4.311 -27.219)" fill="#fff"/>
    <path id="Path_44995" data-name="Path 44995" d="M40.1,19.782a1.14,1.14,0,0,0,.393.448.573.573,0,0,0,.386.1,1.1,1.1,0,0,0,.634-.345,2.736,2.736,0,0,0,.6-.949c.015-.037.032-.052.07-.045a.436.436,0,0,1,.045.006c.29.053.581.105.871.16a8.939,8.939,0,0,0,1.244.181,1.92,1.92,0,0,0,.874-.125.9.9,0,0,0,.5-.511,1.33,1.33,0,0,0,.065-.652,2.509,2.509,0,0,0-.167-.623A3.5,3.5,0,0,0,44.9,16.3a2.061,2.061,0,0,0-.626-.472,1.206,1.206,0,0,0-.832-.094,1.6,1.6,0,0,0-.719.429,3.047,3.047,0,0,0-.566.794,2.915,2.915,0,0,0-.334,1.163c0,.047.015.06.054.061.079,0,.157.008.237.011a.236.236,0,0,0,.25-.155c.01-.026.023-.052.031-.079a4.927,4.927,0,0,1,.409-1.011,1.859,1.859,0,0,1,.376-.485.805.805,0,0,1,.754-.205,1.2,1.2,0,0,1,.477.251,2.11,2.11,0,0,1,.474.55,2.312,2.312,0,0,1,.386,1.043.47.47,0,0,1-.243.519,1,1,0,0,1-.477.131,5.7,5.7,0,0,1-1.126-.061c-.287-.044-.573-.092-.86-.137l-.826-.128a5.406,5.406,0,0,0-.873-.078,1.82,1.82,0,0,0-.67.082.546.546,0,0,0-.362.607,2.269,2.269,0,0,0,.263.754Zm.48-.88a.775.775,0,0,1,.138-.031c.06-.008.12-.01.183-.015.216.018.433.036.65.052.049,0,.037.037.026.061-.05.121-.1.246-.154.364a.96.96,0,0,1-.248.332.569.569,0,0,1-.162.1.243.243,0,0,1-.232-.024.925.925,0,0,1-.3-.361.6.6,0,0,1-.081-.235.222.222,0,0,1,.183-.244Z" transform="translate(-29.77 -11.352)" fill="#fff"/>
    <path id="Path_44996" data-name="Path 44996" d="M55.84,20.433a1.5,1.5,0,0,0-.564-.568.192.192,0,0,0-.146-.023.195.195,0,0,0-.063.349c.013.01.028.018.042.028l.028.018a1.033,1.033,0,0,1,.44.573,1.2,1.2,0,0,1,.042.38.194.194,0,0,0,.185.2h.01a.193.193,0,0,0,.193-.188,1.442,1.442,0,0,0-.164-.773Z" transform="translate(-41.245 -14.488)" fill="#fff"/>
    <path id="Path_44997" data-name="Path 44997" d="M53.736,22.626a.939.939,0,0,0-.354-.354.194.194,0,0,0-.217.32.491.491,0,0,0,.044.029.51.51,0,0,1,.212.257.61.61,0,0,1,.029.217.194.194,0,0,0,.19.2h0a.193.193,0,0,0,.193-.186.9.9,0,0,0-.1-.484Z" transform="translate(-39.813 -16.31)" fill="#fff"/>
  </g>
</svg>
