<svg xmlns="http://www.w3.org/2000/svg" width="36" height="36" viewBox="0 0 36 36">
  <g id="Group_5480" data-name="Group 5480" transform="translate(-14 -1424)">
    <circle id="Ellipse_198" data-name="Ellipse 198" cx="18" cy="18" r="18" transform="translate(14 1424)" fill="#e9e9e9" opacity="0.4"/>
    <path id="local_shipping_FILL0_wght300_GRAD0_opsz48" d="M58.32,292a2.914,2.914,0,0,1-2.943-2.954h-.119a1.424,1.424,0,0,1-.994-.478,1.5,1.5,0,0,1-.418-1.056v-9.978A1.551,1.551,0,0,1,55.381,276H68.7a1.553,1.553,0,0,1,1.534,1.534v2.651h2.149a.789.789,0,0,1,.344.075.648.648,0,0,1,.262.234l3.371,4.5a.834.834,0,0,1,.109.211.743.743,0,0,1,.04.247v2.831a.753.753,0,0,1-.767.767h-.978a2.837,2.837,0,0,1-.862,2.1,2.946,2.946,0,0,1-5.036-2.1h-7.6a2.836,2.836,0,0,1-.862,2.106A2.873,2.873,0,0,1,58.32,292Zm.011-1.207a1.656,1.656,0,0,0,1.228-.519,1.7,1.7,0,0,0,.508-1.233,1.736,1.736,0,0,0-1.737-1.731,1.69,1.69,0,0,0-1.233.508,1.658,1.658,0,0,0-.513,1.223,1.7,1.7,0,0,0,.513,1.233A1.673,1.673,0,0,0,58.331,290.794Zm-3.277-13.259v9.978a.342.342,0,0,0,.02.118.374.374,0,0,0,.051.1.309.309,0,0,0,.077.072.27.27,0,0,0,.1.041h.329a2.987,2.987,0,0,1,1.063-1.256,2.787,2.787,0,0,1,1.615-.5,2.816,2.816,0,0,1,1.611.5A2.98,2.98,0,0,1,61,287.84h8.033V277.535a.31.31,0,0,0-.1-.235.323.323,0,0,0-.23-.092H55.381a.315.315,0,0,0-.327.327Zm16.769,13.259a1.656,1.656,0,0,0,1.228-.519,1.7,1.7,0,0,0,.508-1.233,1.736,1.736,0,0,0-1.737-1.731,1.69,1.69,0,0,0-1.233.508,1.658,1.658,0,0,0-.513,1.223,1.694,1.694,0,0,0,.513,1.233A1.673,1.673,0,0,0,71.823,290.794Zm-1.587-5.2h5.079l-3.177-4.2h-1.9v4.2ZM62.05,282.516Z" transform="translate(-33.179 1157.999)" fill="#8a8a89"/>
  </g>
</svg>
