<svg xmlns="http://www.w3.org/2000/svg" width="14.453" height="16" viewBox="0 0 14.453 16">
  <path id="home_FILL0_wght300_GRAD0_opsz48" d="M181.094,266.678h3.752v-5.9h4.762v5.9h3.752v-9.2l-6.133-4.623-6.133,4.62Zm0,1.093A1.105,1.105,0,0,1,180,266.678v-9.2a1.11,1.11,0,0,1,.111-.488.971.971,0,0,1,.328-.381l6.133-4.623a1.211,1.211,0,0,1,.317-.161,1.086,1.086,0,0,1,.341-.054,1.063,1.063,0,0,1,.338.054,1.176,1.176,0,0,1,.312.161l6.133,4.623a.971.971,0,0,1,.328.381,1.11,1.11,0,0,1,.111.488v9.2a1.105,1.105,0,0,1-1.093,1.093h-4.845v-5.9H185.94v5.9ZM187.227,259.759Z" transform="translate(-180.001 -251.771)" fill="#fff"/>
</svg>
