<svg xmlns="http://www.w3.org/2000/svg" width="36" height="36" viewBox="0 0 36 36">
  <g id="In_the_ear_ITE_" data-name="In the ear (ITE)" transform="translate(0.099 -0.06)">
    <circle id="Ellipse_198" data-name="Ellipse 198" cx="18" cy="18" r="18" transform="translate(-0.099 0.06)" fill="#e2eafd"/>
    <path id="Path_44775" data-name="Path 44775" d="M11.409,8.22c0,.06-.08.07-.109,0Z" transform="translate(-0.208 -0.063)" fill="#747171"/>
    <path id="Path_44776" data-name="Path 44776" d="M12.429,8.27a.089.089,0,0,1-.109,0Z" transform="translate(-0.216 -0.064)" fill="#555252"/>
    <path id="Path_44777" data-name="Path 44777" d="M12.43,8.27h.109A.4.4,0,0,1,12.43,8.27Z" transform="translate(-0.217 -0.064)" fill="#6a6767"/>
    <g id="infinite_icons_in_the_ear" data-name="infinite icons_in the ear" transform="translate(1.664 5.571)">
      <path id="Path_44844" data-name="Path 44844" d="M12.438,18.047c.12.034.182.1.148.239A1.555,1.555,0,0,0,13.617,20a1.566,1.566,0,0,0,1.965-.513,4.5,4.5,0,0,0,.649-1.173,6.1,6.1,0,0,1,1.595-2.386A6.492,6.492,0,0,0,20,11.475a5.313,5.313,0,0,0-1.948-4.841A3.417,3.417,0,0,0,15.2,5.843a2.483,2.483,0,0,0-2.022,2.312c0,.2-.034.347-.29.245A2.779,2.779,0,0,1,15.61,5.49a4.354,4.354,0,0,1,3.816,2.215,6.145,6.145,0,0,1,.649,5.074A6.264,6.264,0,0,1,18.241,15.9a6.942,6.942,0,0,0-1.811,2.671,3.554,3.554,0,0,1-.911,1.447,1.879,1.879,0,0,1-2.141.245,1.885,1.885,0,0,1-1.139-1.811C12.267,18.275,12.262,18.116,12.438,18.047Z" fill="#274a8d" stroke="#274a8d" stroke-width="0.2"/>
      <path id="Path_44845" data-name="Path 44845" d="M15.956,19.83A1.959,1.959,0,0,1,16,18.36a1.224,1.224,0,0,1,.626-.638.245.245,0,0,1,.233-.034c.108.068.3.108.1.285a1.356,1.356,0,0,0-.216.063,1.308,1.308,0,0,0-.233,2.039.569.569,0,0,0,.94-.239,1.4,1.4,0,0,0,.137-.393,2.079,2.079,0,0,0,.04-.5c0-.08,0-.194.1-.188s.142.154.182.256a.125.125,0,0,1,0,.091,1.97,1.97,0,0,1-.074.683c-.063.114-.12.228-.194.336a.854.854,0,0,1-1.486,0C16.065,20.018,16.013,19.921,15.956,19.83Z" transform="translate(-1.548 -5.245)" fill="#274a8d" stroke="#274a8d" stroke-width="0.2"/>
      <path id="Path_44846" data-name="Path 44846" d="M18.37,9.959a2.494,2.494,0,0,0-4.078-.233,4.414,4.414,0,0,0-.8,2.694c0,.45,0,.9,0,1.338-.4-.177-.4-.177-.569,0a.034.034,0,0,1,0,.034c.063.12.182.148.285.2a1.1,1.1,0,0,1,.718,1.31,4.286,4.286,0,0,1-.057.473,1.441,1.441,0,0,1,.028,1.025,1.139,1.139,0,0,0,.211,1.179c.034.051.125.1.034.165s-.114,0-.148-.063a4.021,4.021,0,0,1-.7-1.27c-.04-.125.068-.148.108-.216.125-.188.353-.325.29-.6a1.708,1.708,0,0,1-.347.359c-.08.074-.2.1-.245.216a2.01,2.01,0,0,0,.478,1.708.5.5,0,0,0,.678,0,1.327,1.327,0,0,0,.461-.831c.108-.251.353-.194.569-.228a2.82,2.82,0,0,0,.746-5.353,3.742,3.742,0,0,1-.678-.376,1.708,1.708,0,0,1-.746-1.481.3.3,0,0,1,.131-.279,1.378,1.378,0,0,0,.4-.239,1.851,1.851,0,0,1,1.224-.3,2.329,2.329,0,0,1,2.073,1.828,5.553,5.553,0,0,1,.137,2.449,17,17,0,0,1-.569,1.982c-.051.1-.1.211-.159.319s-.068.177.028.233.188,0,.245-.091a2.053,2.053,0,0,0,.114-.205,6.788,6.788,0,0,0,.775-3.246A4.431,4.431,0,0,0,18.37,9.959Zm-4.419,4.476c-.046-.171-.1-.313-.125-.456s-.1-.177,0-.233a.393.393,0,0,1,.319,0c.114.04.04.1,0,.165A4.488,4.488,0,0,1,13.951,14.436Zm.763,3.007h0c-.085.057-.091.165-.148.239s-.1.245-.194.245-.188-.165-.233-.279a1.2,1.2,0,0,1,0-.968,4.772,4.772,0,0,0,.569.763h0Zm2.027-1.9c-.085-.085-.034-.2-.114-.256a.108.108,0,0,1,0-.046c-.051-.171-.08-.342-.137-.513a1.19,1.19,0,0,0-.877-.809h-.2a1.56,1.56,0,0,0-.689,1,2.489,2.489,0,0,0,0,.769.478.478,0,0,1,0,.3h0c.125.063.171.188.251.285a.752.752,0,0,0,1.236.085c.125-.125.177-.313.353-.387l.028.108a1.139,1.139,0,0,1-.484.661.877.877,0,0,1-1.281-.325.849.849,0,0,1-.182-.4h0a1.835,1.835,0,0,1,.626-2.21l.108-.051h0a.98.98,0,0,1,1.139.569,2.278,2.278,0,0,1,.222,1.213Zm-.347.12a1.617,1.617,0,0,1-.034.177.849.849,0,0,1-.746.661c-.319,0-.569-.251-.74-.678a1.538,1.538,0,0,1,.159-1.361.569.569,0,0,1,.439-.313.159.159,0,0,1,.142,0,1.708,1.708,0,0,1,.769,1.5Zm.729.068a.507.507,0,0,1-.251.347c-.12.074-.046-.068-.063-.108a4.237,4.237,0,0,0-.108-1.606,1.042,1.042,0,0,0-1.407-.9c-.114.051-.251.068-.33.182l-.194.177a2.335,2.335,0,0,0-.308,2.358,1.486,1.486,0,0,0,.683.8c-.359.177-.37.177-.569-.125a2.791,2.791,0,0,1,0-3.1,1.2,1.2,0,0,1,2.01-.251A2.625,2.625,0,0,1,17.123,15.734Zm.353-1.9a1.173,1.173,0,0,1,.063.467,2.773,2.773,0,0,1-.125.8,3.816,3.816,0,0,0-.387-1.293c-.046-.074,0-.114.074-.12s.308-.011.376.171Zm-.154-.5c0,.046.04.108,0,.12s-.347.108-.421.046c-.165-.148-.416-.251-.433-.524a1.475,1.475,0,0,0-.33-.934,2.2,2.2,0,0,1,1.185,1.316Zm-1.139-.37a1.464,1.464,0,0,0-1.167,0c.028-.569.285-.928.632-.906s.569.456.541.928Zm-.689-1.139a1.1,1.1,0,0,0-.695,1.139c0,.233-.41.513-.638.473a.5.5,0,0,1-.057.017c-.12-.034-.262.114-.33,0a.7.7,0,0,1-.046-.5A1.708,1.708,0,0,1,15.5,11.873Zm-.456-.239a1.9,1.9,0,0,0-1.242.638,4.442,4.442,0,0,1,.478-1.965,2.119,2.119,0,0,0,.769,1.372Z" transform="translate(-0.294 -1.411)" fill="#274a8d" stroke="#274a8d" stroke-width="0.2"/>
      <path id="Path_44847" data-name="Path 44847" d="M17.715,19.284a.478.478,0,0,0-.82-.074.905.905,0,0,0,0,.962.478.478,0,0,0,.809-.028.8.8,0,0,0,.1-.433A.786.786,0,0,0,17.715,19.284Zm-.165.638c-.04.159-.131.29-.3.273s-.268-.182-.29-.364c-.051-.37.068-.569.359-.615A.527.527,0,0,1,17.55,19.922Z" transform="translate(-1.946 -5.821)" fill="#274a8d" stroke="#274a8d" stroke-width="0.2"/>
    </g>
  </g>
</svg>
