<svg xmlns="http://www.w3.org/2000/svg" width="36" height="36" viewBox="0 0 36 36">
  <g id="In_the_canal_ITC_" data-name="In the canal (ITC)" transform="translate(0.099 -0.06)">
    <circle id="Ellipse_198" data-name="Ellipse 198" cx="18" cy="18" r="18" transform="translate(-0.099 0.06)" fill="#e2eafd"/>
    <path id="Path_44775" data-name="Path 44775" d="M11.409,8.22c0,.06-.08.07-.109,0Z" transform="translate(-0.208 -0.063)" fill="#747171"/>
    <path id="Path_44776" data-name="Path 44776" d="M12.429,8.27a.089.089,0,0,1-.109,0Z" transform="translate(-0.216 -0.064)" fill="#555252"/>
    <path id="Path_44777" data-name="Path 44777" d="M12.43,8.27h.109A.4.4,0,0,1,12.43,8.27Z" transform="translate(-0.217 -0.064)" fill="#6a6767"/>
    <g id="infinite_icons_In_the_canal" data-name="infinite icons_In the canal" transform="translate(1.865 4.091)">
      <path id="Path_44841" data-name="Path 44841" d="M12.813,25.92a.059.059,0,0,1,0,.072.059.059,0,0,1,0-.072Z" transform="translate(-0.724 -6.76)" fill="#274a8d" stroke="#274a8d" stroke-width="0.2"/>
      <path id="Path_44842" data-name="Path 44842" d="M12.82,25.927h0v0Z" transform="translate(-0.73 -6.76)" fill="#274a8d" stroke="#274a8d" stroke-width="0.2"/>
      <path id="Path_44843" data-name="Path 44843" d="M20.845,9.68a5.3,5.3,0,0,0-1.618-2.023,6.061,6.061,0,0,0-3.6-1.187,4.893,4.893,0,0,0-1.957.385.489.489,0,0,1-.183.072c-.072,0-.111-.072-.163-.111a1.39,1.39,0,0,0-1.3-.261,1.651,1.651,0,0,0-.829.581,2.127,2.127,0,0,0-.45,1.161,4.273,4.273,0,0,0,.1,1.409c.059.235.13.463.2.7v.2c0,.065,0,.1.039.1s.078.059.1.1a7.751,7.751,0,0,0,.528,1.037,8.723,8.723,0,0,0,1.69,1.957.652.652,0,0,1,.15.2,2.805,2.805,0,0,0,.581.848,3.008,3.008,0,0,0,.75.515c.254.137.522.261.776.411a3.751,3.751,0,0,1,.783.581,1.259,1.259,0,0,1,.267.372.652.652,0,0,1,0,.652.385.385,0,0,1-.307.209,1.422,1.422,0,0,1-.372,0c-.17-.033-.333-.085-.5-.13a3.758,3.758,0,0,0-.652-.144,1.514,1.514,0,0,0-1.011.294.848.848,0,0,0-.385.515.189.189,0,0,0,0,.17.176.176,0,0,0,.17.078.157.157,0,0,0,.13-.1.724.724,0,0,1,.1-.254,1.083,1.083,0,0,1,.744-.385,2.407,2.407,0,0,1,.829.144,2.486,2.486,0,0,0,.874.144.744.744,0,0,0,.535-.215.385.385,0,0,1,.294-.117.607.607,0,0,0,.463-.163l.078-.059a1.253,1.253,0,0,0,.509-.783,1.99,1.99,0,0,0-.091-1.1,3.614,3.614,0,0,0-.887-1.272,2.571,2.571,0,0,0-.992-.594,3.347,3.347,0,0,0-.757-.17,5.1,5.1,0,0,0-1.337.059.085.085,0,0,1-.1-.033.907.907,0,0,0-.17-.183,3.406,3.406,0,0,1-.313-.3.261.261,0,0,1-.078-.183,2.688,2.688,0,0,1,0-.561,2.766,2.766,0,0,1,.607-1.514,1.063,1.063,0,0,0,.15-.189c.052-.072.137-.111.189-.2a.307.307,0,0,0-.2.072,1.957,1.957,0,0,0-.652.724,3.066,3.066,0,0,0-.365,1.4.144.144,0,0,1,0,.111,7.268,7.268,0,0,1-.933-1.253.522.522,0,0,1,0-.372,7,7,0,0,1,.542-1.383,2.61,2.61,0,0,1,.542-.718,3.216,3.216,0,0,1,1-.652A3.458,3.458,0,0,1,16.6,8.12a4.215,4.215,0,0,1,2.173,1.429,2.068,2.068,0,0,1,.476,1.077,3.569,3.569,0,0,1-.046.953c-.052.307-.046.607-.072.913,0,.039,0,.1.046.124a3.3,3.3,0,0,1,.17-.385,1.677,1.677,0,0,0,.163-.568V11.4a3.112,3.112,0,0,0,0-.887,2.277,2.277,0,0,0-.463-1.031A4.326,4.326,0,0,0,17.381,8.12,3.745,3.745,0,0,0,14.328,8a3.262,3.262,0,0,0-1.9,1.781,6.668,6.668,0,0,0-.378,1.1s0,.059-.039.078h0a6.361,6.361,0,0,1-.528-1.494.163.163,0,0,1,0-.111,3.641,3.641,0,0,1,.829-1.3A4.606,4.606,0,0,1,15.3,6.75a5.219,5.219,0,0,1,1.592.13,5.657,5.657,0,0,1,1.905.783,4.965,4.965,0,0,1,1.755,2.068,4.658,4.658,0,0,1,.463,1.918.215.215,0,0,1,0,.144.692.692,0,0,0,0,.2,3.132,3.132,0,0,1-.111.692,10.57,10.57,0,0,1-.365,1.351,19.064,19.064,0,0,0-.652,2.323c-.1.535-.189,1.07-.294,1.6A3.262,3.262,0,0,1,18.4,19.916a5.774,5.774,0,0,1-2.088,1.07,3.34,3.34,0,0,1-2.068,0,3.06,3.06,0,0,1-1.122-.7,3.608,3.608,0,0,1-.47-.574,3.608,3.608,0,0,0-.489-.509s-.059-.072-.1,0,0,.052,0,.072v.15a.926.926,0,0,0,.215.522c.072.085.137.176.2.267a3.262,3.262,0,0,0,1.337.959,3.588,3.588,0,0,0,2.12.235,5.7,5.7,0,0,0,1.533-.5A5.617,5.617,0,0,0,19,19.864a3.38,3.38,0,0,0,.959-1.638c.1-.4.163-.8.228-1.207a18.8,18.8,0,0,1,.418-1.912c.137-.5.307-1,.457-1.5a6.191,6.191,0,0,0,.281-1.37A5.017,5.017,0,0,0,20.845,9.68Zm-6.172,3.993a3.843,3.843,0,0,1,1.442.137,2.505,2.505,0,0,1,1.155.757,3.614,3.614,0,0,1,.652.985,1.442,1.442,0,0,1,.065,1,1,1,0,0,1-.652.7h-.072v-.078a1.076,1.076,0,0,0-.228-.848,3.3,3.3,0,0,0-.939-.789c-.333-.2-.652-.359-1.031-.542a2.368,2.368,0,0,1-.607-.411,1.4,1.4,0,0,1-.261-.32.346.346,0,0,0,.17-.574,1.624,1.624,0,0,1,.307-.026Zm-3.262-4.7a1.6,1.6,0,0,1,0-.528,1.957,1.957,0,0,1,.144-.692,1.116,1.116,0,0,1,.509-.515.652.652,0,0,1,.8.052A3.967,3.967,0,0,0,11.4,8.975Zm1.7-1.768a.072.072,0,0,1-.078,0l-.078-.059a.9.9,0,0,0-1.037,0,1.442,1.442,0,0,0-.652.913,2.982,2.982,0,0,0-.033,1.2,6.7,6.7,0,0,0,1.52,3.262,10.367,10.367,0,0,0,1.351,1.3.3.3,0,0,1,.1.1.118.118,0,0,1-.17.163l-.072-.046a8.827,8.827,0,0,1-2.192-2.5,6.9,6.9,0,0,1-.816-2.212,3.027,3.027,0,0,1,.078-1.507,1.7,1.7,0,0,1,.776-.979,1.3,1.3,0,0,1,.581-.176.789.789,0,0,1,.274,0,1.455,1.455,0,0,1,.652.372Z" transform="translate(0)" fill="#274a8d" stroke="#274a8d" stroke-width="0.2"/>
    </g>
  </g>
</svg>
