<svg xmlns="http://www.w3.org/2000/svg" width="12.632" height="16" viewBox="0 0 12.632 16">
  <path id="description_FILL0_wght300_GRAD0_opsz48" d="M183.624,208.689h5.386a.46.46,0,0,0,.34-.139.468.468,0,0,0,.137-.343.455.455,0,0,0-.137-.339.468.468,0,0,0-.34-.134h-5.386a.46.46,0,0,0-.34.139.468.468,0,0,0-.137.343.455.455,0,0,0,.137.339A.467.467,0,0,0,183.624,208.689Zm0-3.522h5.386a.46.46,0,0,0,.34-.139.468.468,0,0,0,.137-.343.455.455,0,0,0-.137-.339.468.468,0,0,0-.34-.134h-5.386a.46.46,0,0,0-.34.139.468.468,0,0,0-.137.343.455.455,0,0,0,.137.339A.468.468,0,0,0,183.624,205.167ZM181.216,212A1.228,1.228,0,0,1,180,210.786V197.216A1.228,1.228,0,0,1,181.216,196h6.815a1.152,1.152,0,0,1,.481.1,1.4,1.4,0,0,1,.392.262l3.367,3.367a1.4,1.4,0,0,1,.262.392,1.152,1.152,0,0,1,.1.481v10.183A1.228,1.228,0,0,1,191.418,212Zm6.839-12.073v-2.972h-6.839a.279.279,0,0,0-.259.259v13.571a.279.279,0,0,0,.259.259h10.2a.279.279,0,0,0,.259-.259V200.532h-3.019a.606.606,0,0,1-.6-.6Zm-7.1-2.972v0Z" transform="translate(-180.001 -196.001)" fill="#fff"/>
</svg>
