<svg xmlns="http://www.w3.org/2000/svg" width="42" height="42" viewBox="0 0 42 42">
  <g id="Group_5626" data-name="Group 5626" transform="translate(-159 -102)">
    <g id="Ellipse_268" data-name="Ellipse 268" transform="translate(159 102)" fill="none" stroke="#727271" stroke-width="1">
      <circle cx="21" cy="21" r="21" stroke="none"/>
      <circle cx="21" cy="21" r="20.5" fill="none"/>
    </g>
    <g id="Group_5589" data-name="Group 5589">
      <path id="Path_44922" data-name="Path 44922" d="M169.063,122.932l4.334-3.624,4.855-1.033,6.316.13,5.346,2.691,1.061,4.706-1.449,5.466-4.586,4.176-5.588.594-6.232-2.849-2.861-4.85Z" transform="translate(0 -4)" fill="#dedede"/>
      <g id="infinite_icons_bifocal_bifocal" data-name="infinite icons bifocal_bifocal" transform="translate(162.352 104.816)">
        <path id="Path_44900" data-name="Path 44900" d="M24,9.93a17.05,17.05,0,0,0-5.46-.74c-1.41.09-2.61.05-3.8.25A13.46,13.46,0,0,0,9,11.36a4.88,4.88,0,0,0-2.2,5.38,17.59,17.59,0,0,0,1.3,4,10.52,10.52,0,0,0,5.29,5.63,12.77,12.77,0,0,0,8.51.52,7.71,7.71,0,0,0,5.61-5A18,18,0,0,0,28.66,17,6.28,6.28,0,0,0,24,9.93ZM28.33,17a17.63,17.63,0,0,1-1.08,4.74,7.5,7.5,0,0,1-5.44,4.84,12.41,12.41,0,0,1-8.26-.5,10.23,10.23,0,0,1-5.13-5.46,16.78,16.78,0,0,1-1.26-3.84,4.72,4.72,0,0,1,2.13-5.21A13.09,13.09,0,0,1,14.82,9.7a36.842,36.842,0,0,1,3.68-.23,16.29,16.29,0,0,1,5.3.71A6.09,6.09,0,0,1,28.33,17Z" fill="#727271" stroke="#727271" stroke-width="1"/>
      </g>
    </g>
  </g>
</svg>
