<svg xmlns="http://www.w3.org/2000/svg" width="36" height="36" viewBox="0 0 36 36">
  <g id="Group_5510" data-name="Group 5510" transform="translate(-266 -1618)">
    <circle id="Ellipse_217" data-name="Ellipse 217" cx="18" cy="18" r="18" transform="translate(266 1618)" fill="#e9e9e9" opacity="0.4"/>
    <path id="MdiFeather" d="M20,2S13.123,1.667,7.705,9.091A39.934,39.934,0,0,0,2,20l1.746-.9a19.6,19.6,0,0,1,3.24-4.5A5.909,5.909,0,0,0,13.7,12.8a13.265,13.265,0,0,0-5.363-.171C10.72,11,12.349,10.639,14.6,11l.9-1.8a9.264,9.264,0,0,0-4.3.036C12.97,7.984,14.2,7.282,16.4,7.4l1.089-1.737a10.828,10.828,0,0,0-3.861.45,7.013,7.013,0,0,1,4.7-2.025A7.044,7.044,0,0,1,20,2Z" transform="translate(273.001 1625.002)" fill="#adaeae"/>
  </g>
</svg>
