<svg xmlns="http://www.w3.org/2000/svg" width="10.777" height="16" viewBox="0 0 10.777 16">
  <path id="pin_drop_FILL0_wght300_GRAD0_opsz48" d="M222.7,197.979a16.746,16.746,0,0,0,3.33-3.382,5.464,5.464,0,0,0,1.127-3.084,4.372,4.372,0,0,0-1.584-3.542,4.358,4.358,0,0,0-1.449-.793,4.244,4.244,0,0,0-2.849,0,4.356,4.356,0,0,0-1.45.793,4.372,4.372,0,0,0-1.584,3.542,5.464,5.464,0,0,0,1.127,3.084A16.746,16.746,0,0,0,222.7,197.979Zm0,.97a1.126,1.126,0,0,1-.245-.027.485.485,0,0,1-.215-.109,17.354,17.354,0,0,1-3.714-3.753,6.315,6.315,0,0,1-1.213-3.545,5.519,5.519,0,0,1,.487-2.389,5.4,5.4,0,0,1,1.262-1.725,5.273,5.273,0,0,1,1.739-1.049,5.322,5.322,0,0,1,3.8,0,5.272,5.272,0,0,1,1.739,1.049,5.4,5.4,0,0,1,1.262,1.725,5.519,5.519,0,0,1,.487,2.389,6.316,6.316,0,0,1-1.213,3.545,17.354,17.354,0,0,1-3.714,3.753.485.485,0,0,1-.219.109A1.148,1.148,0,0,1,222.7,198.949Zm.006-6.274a1.225,1.225,0,0,0,.907-.379,1.254,1.254,0,0,0,.373-.913,1.231,1.231,0,0,0-.375-.907,1.287,1.287,0,1,0-.9,2.2ZM217.773,202a.448.448,0,0,1-.332-.135.456.456,0,0,1-.134-.335.443.443,0,0,1,.134-.331.456.456,0,0,1,.332-.131h9.846a.448.448,0,0,1,.332.135.456.456,0,0,1,.134.335.443.443,0,0,1-.134.33.456.456,0,0,1-.332.131ZM222.7,191.513Z" transform="translate(-217.308 -186.001)" fill="#fff"/>
</svg>
