<svg xmlns="http://www.w3.org/2000/svg" width="16.009" height="16" viewBox="0 0 16.009 16">
  <path id="sell_FILL0_wght300_GRAD0_opsz48" d="M109.425,211.711a.972.972,0,0,1-1.384,0l-7.755-7.755a.9.9,0,0,1-.223-.34,1.142,1.142,0,0,1-.061-.375v-6.286a.931.931,0,0,1,.954-.954h6.286a1.288,1.288,0,0,1,.379.059.906.906,0,0,1,.353.21l7.721,7.721a1,1,0,0,1,.315.721.961.961,0,0,1-.3.713Zm-.655-.652,6.29-6.295-7.814-7.81h-6.29v6.286Zm-5.632-11.011a.884.884,0,0,0,.651-.276.917.917,0,0,0,0-1.305.886.886,0,0,0-.65-.273.9.9,0,0,0-.659.272.886.886,0,0,0-.273.65.9.9,0,0,0,.272.655A.889.889,0,0,0,103.138,200.049ZM100.955,196.955Z" transform="translate(-100.001 -196.001)" fill="#fff"/>
</svg>
