<svg xmlns="http://www.w3.org/2000/svg" width="42" height="42" viewBox="0 0 42 42">
  <g id="Group_5530" data-name="Group 5530" transform="translate(-159 -106)">
    <g id="Ellipse_268" data-name="Ellipse 268" transform="translate(159 106)" fill="none" stroke="#727271" stroke-width="1">
      <circle cx="21" cy="21" r="21" stroke="none"/>
      <circle cx="21" cy="21" r="20.5" fill="none"/>
    </g>
    <path id="person_FILL1_wght300_GRAD0_opsz48" d="M192.619,308.856a5.382,5.382,0,1,1,4.009-1.572A5.43,5.43,0,0,1,192.619,308.856Zm-10.677,12.838A1.933,1.933,0,0,1,180,319.753V318.5a3.959,3.959,0,0,1,.718-2.362,4.719,4.719,0,0,1,1.867-1.547,30.181,30.181,0,0,1,5.122-1.779,20.756,20.756,0,0,1,4.911-.6,20.181,20.181,0,0,1,4.9.611,32.691,32.691,0,0,1,5.109,1.767,4.68,4.68,0,0,1,1.893,1.546,3.959,3.959,0,0,1,.718,2.362v1.252a1.933,1.933,0,0,1-1.941,1.941Z" transform="translate(-12.619 -182.694)" fill="#727271"/>
  </g>
</svg>
