<svg xmlns="http://www.w3.org/2000/svg" width="42" height="42" viewBox="0 0 42 42">
  <g id="Group_5530" data-name="Group 5530" transform="translate(-159 -106)">
    <g id="Ellipse_268" data-name="Ellipse 268" transform="translate(159 106)" fill="none" stroke="#727271" stroke-width="1">
      <circle cx="21" cy="21" r="21" stroke="none"/>
      <circle cx="21" cy="21" r="20.5" fill="none"/>
    </g>
    <path id="event_FILL1_wght300_GRAD0_opsz48_1_" data-name="event_FILL1_wght300_GRAD0_opsz48 (1)" d="M154.435,211.45a2.711,2.711,0,0,1-2-.826,2.746,2.746,0,0,1-.819-2.009,2.711,2.711,0,0,1,.826-2,2.746,2.746,0,0,1,2.009-.819,2.711,2.711,0,0,1,2,.826,2.746,2.746,0,0,1,.819,2.009,2.711,2.711,0,0,1-.826,2A2.746,2.746,0,0,1,154.435,211.45Zm-12.623,3.936A1.831,1.831,0,0,1,140,213.575V195.394a1.831,1.831,0,0,1,1.811-1.811h2.318v-1.407a.785.785,0,0,1,.219-.559.735.735,0,0,1,.559-.232.772.772,0,0,1,.572.234.76.76,0,0,1,.232.553v1.41h9.972v-1.431a.747.747,0,0,1,.22-.541.733.733,0,0,1,.547-.226.747.747,0,0,1,.552.228.737.737,0,0,1,.226.535v1.434h2.306a1.831,1.831,0,0,1,1.811,1.811v18.181a1.831,1.831,0,0,1-1.811,1.811Zm0-1.425h17.722a.372.372,0,0,0,.386-.386V201.1h-18.5v12.471a.372.372,0,0,0,.386.386Z" transform="translate(29.326 -76.386)" fill="#727271"/>
  </g>
</svg>
