<svg xmlns="http://www.w3.org/2000/svg" width="36" height="36" viewBox="0 0 36 36">
  <g id="reading_glass" data-name="reading glass" transform="translate(0.099 -0.06)">
    <circle id="Ellipse_198" data-name="Ellipse 198" cx="18" cy="18" r="18" transform="translate(-0.099 0.06)" fill="#e2eafd"/>
    <path id="Path_44775" data-name="Path 44775" d="M11.409,8.22c0,.06-.08.07-.109,0Z" transform="translate(-0.208 -0.063)" fill="#747171"/>
    <path id="Path_44776" data-name="Path 44776" d="M12.429,8.27a.089.089,0,0,1-.109,0Z" transform="translate(-0.216 -0.064)" fill="#555252"/>
    <path id="Path_44777" data-name="Path 44777" d="M12.43,8.27h.109A.4.4,0,0,1,12.43,8.27Z" transform="translate(-0.217 -0.064)" fill="#6a6767"/>
    <g id="infinite_icons_reading_glass_1_" data-name="infinite icons_reading glass (1)" transform="translate(1.021 3.231)">
      <path id="Path_44825" data-name="Path 44825" d="M12.283,10.128h3.036c.142,0,.237.071.245.142s-.087.134-.221.15H9.215c-.15,0-.253-.079-.245-.15s.127-.142.285-.15h3.029Z" transform="translate(-0.437 -0.479)" fill="#274a8d" stroke="#274a8d" stroke-width="0.1"/>
      <path id="Path_44826" data-name="Path 44826" d="M13.465,13.07h3.068c.134,0,.237.079.245.142s-.087.134-.221.158H10.4c-.158,0-.261-.087-.245-.158s.127-.134.277-.142Z" transform="translate(-0.686 -1.103)" fill="#274a8d" stroke="#274a8d" stroke-width="0.1"/>
      <path id="Path_44827" data-name="Path 44827" d="M12.283,16h3.036c.142,0,.237.071.245.142s-.087.134-.221.15H9.215c-.15,0-.253-.079-.245-.15s.127-.142.285-.15h3.029Z" transform="translate(-0.437 -1.718)" fill="#274a8d" stroke="#274a8d" stroke-width="0.1"/>
      <path id="Path_44828" data-name="Path 44828" d="M12.283,19h3.036c.142,0,.237.071.245.142s-.087.134-.221.15H9.215c-.15,0-.253-.079-.245-.15s.127-.142.285-.15h3.029Z" transform="translate(-0.437 -2.35)" fill="#274a8d" stroke="#274a8d" stroke-width="0.1"/>
      <path id="Path_44829" data-name="Path 44829" d="M12.283,22h3.036c.142,0,.237.071.245.142s-.087.134-.221.15H9.215c-.15,0-.253-.079-.245-.15s.127-.142.285-.15h3.029Z" transform="translate(-0.437 -2.981)" fill="#274a8d" stroke="#274a8d" stroke-width="0.1"/>
      <path id="Path_44830" data-name="Path 44830" d="M9.3,12.87a.312.312,0,1,1-.016.625.316.316,0,0,1,0-.625Z" transform="translate(-0.446 -1.061)" fill="#274a8d" stroke="#274a8d" stroke-width="0.1"/>
      <path id="Path_44831" data-name="Path 44831" d="M14.258,24.457a.309.309,0,1,1,.316-.308A.316.316,0,0,1,14.258,24.457Z" transform="translate(-1.489 -3.374)" fill="#274a8d" stroke="#274a8d" stroke-width="0.1"/>
      <path id="Path_44832" data-name="Path 44832" d="M18.958,14.162V9.093A1.264,1.264,0,0,0,17.693,7.83H8.425A1.264,1.264,0,0,0,7.16,9.093V21.567A1.264,1.264,0,0,0,8.425,22.83h9.267a1.264,1.264,0,0,0,1.265-1.263V17.3h-.111a.855.855,0,0,1-.38-.118h-.095a.15.15,0,0,1-.127.087,3.033,3.033,0,0,1-1.3,0,1.161,1.161,0,0,1-.791-.789.466.466,0,0,1-.1-.142,1.064,1.064,0,0,1-.071-.545,1.475,1.475,0,0,1,.3-1.2c.53-.482,1.4-.339,2.064-.339a.119.119,0,0,1,.119.079,1.029,1.029,0,0,1,.38-.126Zm-.221-.205a1.171,1.171,0,0,0-.38.142,1.133,1.133,0,0,0-.459,0,2.574,2.574,0,0,0-.427,0,1.512,1.512,0,0,0-1.265.411,1.577,1.577,0,0,0-.364,1.5.585.585,0,0,0,.055.166.986.986,0,0,0,.095.245,1.129,1.129,0,0,0,.111.158,1.859,1.859,0,0,0,1.653.789,1.172,1.172,0,0,0,.64,0,1.013,1.013,0,0,0,.34.111v4.05a1.035,1.035,0,0,1-1.044,1.034H8.425a1.035,1.035,0,0,1-1.036-1.034V9.093A1.035,1.035,0,0,1,8.425,8.059h9.267a1.043,1.043,0,0,1,1.044,1.034Z" transform="translate(-0.059)" fill="#274a8d" stroke="#274a8d" stroke-width="0.1"/>
      <path id="Path_44833" data-name="Path 44833" d="M18.045,14.217a.127.127,0,0,1,.1.055H18.2a.942.942,0,0,1,.348-.111h.1V9.093A1.264,1.264,0,0,0,17.381,7.83H8.145A1.264,1.264,0,0,0,6.88,9.093V21.567A1.264,1.264,0,0,0,8.145,22.83h9.267a1.264,1.264,0,0,0,1.265-1.263V17.3h-.111a1.108,1.108,0,0,1-.221-.047.332.332,0,0,1-.127.087h-.245a.459.459,0,0,1-.245-.063h0a2.518,2.518,0,0,1-1-.071,1.313,1.313,0,0,1-.261-.118,1.853,1.853,0,0,0,1.083.276,1.172,1.172,0,0,0,.64,0,1.013,1.013,0,0,0,.34.111v4.05a1.035,1.035,0,0,1-1.044,1.034H8.145a1.035,1.035,0,0,1-1.036-1.034V9.093A1.035,1.035,0,0,1,8.145,8.059h9.267a1.043,1.043,0,0,1,1.044,1.034v4.863a1.171,1.171,0,0,0-.38.142,1.132,1.132,0,0,0-.459,0,2.574,2.574,0,0,0-.427,0,1.512,1.512,0,0,0-1.265.411,1.452,1.452,0,0,0-.38.789.261.261,0,0,1,.134,0h0a1.017,1.017,0,0,1,.293-.789A3.408,3.408,0,0,1,18.045,14.217Z" fill="#274a8d" stroke="#274a8d" stroke-width="0.1"/>
      <path id="Path_44834" data-name="Path 44834" d="M31.607,16.526a1.344,1.344,0,0,1,0-.356h0Z" transform="translate(-5.203 -1.756)" fill="#274a8d" stroke="#274a8d" stroke-width="0.1"/>
      <path id="Path_44835" data-name="Path 44835" d="M28.634,16.035a.427.427,0,0,0-.38-.34,9.259,9.259,0,0,0-1.321-.158,13.039,13.039,0,0,0-1.842.055,2.8,2.8,0,0,0-.981.213l-.49.229a1.21,1.21,0,0,1-.965.055l-.561-.253a2.2,2.2,0,0,0-.7-.206,13.8,13.8,0,0,0-2.214-.095,8.912,8.912,0,0,0-1.3.158.5.5,0,0,0-.316.182,1.139,1.139,0,0,0,0,.925h0a.419.419,0,0,1,.111.229c.079.364.119.735.213,1.091a1.139,1.139,0,0,0,.561.743,2.372,2.372,0,0,0,.838.237,4.547,4.547,0,0,0,1.842-.04,1.7,1.7,0,0,0,1.107-.87,4.594,4.594,0,0,0,.4-1.115c.047-.221.119-.277.348-.293a1.194,1.194,0,0,1,.237,0,.261.261,0,0,1,.221.214,4.673,4.673,0,0,0,.364,1.028,1.724,1.724,0,0,0,1.06.949,4.3,4.3,0,0,0,2.507,0,1.123,1.123,0,0,0,.838-.886c.04-.206.087-.411.119-.609a1.51,1.51,0,0,1,.324-.791v-.261C28.626,16.273,28.658,16.154,28.634,16.035Zm-10.912.34a.419.419,0,0,1,0-.2l.237.095A1.194,1.194,0,0,1,17.722,16.375Zm3.843,1.969a1.811,1.811,0,0,1-1.028.443,3.353,3.353,0,0,1-1.344-.063,1.21,1.21,0,0,1-.933-.917,2.23,2.23,0,0,1-.047-1.162.791.791,0,0,1,.7-.64,4.642,4.642,0,0,1,.878-.063,10.05,10.05,0,0,1,1.463.127,2.2,2.2,0,0,1,.7.214.4.4,0,0,1,.253.4,2.372,2.372,0,0,1-.648,1.668Zm6.2-.253a1.147,1.147,0,0,1-.791.617,3.558,3.558,0,0,1-.957.119,2.981,2.981,0,0,1-.933-.166,1.463,1.463,0,0,1-.854-.727,2.617,2.617,0,0,1-.348-1.186.482.482,0,0,1,.316-.506,3.163,3.163,0,0,1,.894-.214,9.916,9.916,0,0,1,1.748-.071,2.016,2.016,0,0,1,.53.095.838.838,0,0,1,.554.791A2.174,2.174,0,0,1,27.764,18.091Zm.64-1.732a.435.435,0,0,1-.237-.087l.237-.087h0C28.413,16.257,28.444,16.352,28.4,16.36Z" transform="translate(-2.246 -1.623)" fill="#274a8d" stroke="#274a8d" stroke-width="0.1"/>
    </g>
  </g>
</svg>
