<svg xmlns="http://www.w3.org/2000/svg" width="8" height="14.047" viewBox="0 0 8 14.047">
  <path id="expand_more_FILL1_wght400_GRAD0_opsz48_2_" data-name="expand_more_FILL1_wght400_GRAD0_opsz48 (2)" d="M7.005,0a.908.908,0,0,0-.34.062.942.942,0,0,0-.309.216L.233,6.4A.851.851,0,0,0,0,7.066a.951.951,0,0,0,.263.665.776.776,0,0,0,.665.263A1.163,1.163,0,0,0,1.563,7.7L7.005,2.257,12.448,7.7a1.01,1.01,0,0,0,.665.278.732.732,0,0,0,.665-.278.682.682,0,0,0,.263-.649,1.2,1.2,0,0,0-.294-.68L7.655.278A.942.942,0,0,0,7.345.062.908.908,0,0,0,7.005,0Z" transform="translate(8) rotate(90)" fill="#fff"/>
</svg>
