<svg xmlns="http://www.w3.org/2000/svg" width="20" height="20" viewBox="0 0 20 20">
  <g id="Group_5111" data-name="Group 5111" transform="translate(-2034 -1006.5)">
    <path id="search_FILL1_wght400_GRAD0_opsz48" d="M20.332,21.809A7.647,7.647,0,0,1,17.9,23.214a8.588,8.588,0,0,1-2.95.5,8.64,8.64,0,0,1-6.35-2.6A8.559,8.559,0,0,1,6,14.834,8.559,8.559,0,0,1,8.6,8.553a8.6,8.6,0,0,1,6.316-2.6,8.5,8.5,0,0,1,6.264,2.6,8.588,8.588,0,0,1,2.585,6.281,8.656,8.656,0,0,1-.486,2.88,8.808,8.808,0,0,1-1.457,2.6Zm-5.413-.174a6.494,6.494,0,0,0,4.789-2,6.58,6.58,0,0,0,1.978-4.806,6.58,6.58,0,0,0-1.978-4.806,6.494,6.494,0,0,0-4.789-2,6.592,6.592,0,0,0-4.841,2,6.551,6.551,0,0,0-2,4.806,6.551,6.551,0,0,0,2,4.806,6.592,6.592,0,0,0,4.841,2Z" transform="translate(2028 1000.55)" fill="#fff"/>
    <rect id="Rectangle_1993" data-name="Rectangle 1993" width="7.512" height="2.504" rx="1.252" transform="translate(2048.688 1019.418) rotate(45)" fill="#fff"/>
  </g>
</svg>
