<svg xmlns="http://www.w3.org/2000/svg" xmlns:xlink="http://www.w3.org/1999/xlink" width="16.428" height="12.371" viewBox="0 0 16.428 12.371">
  <defs>
    <clipPath id="clip-path">
      <rect id="Rectangle_2381" data-name="Rectangle 2381" width="16.428" height="12.372" transform="translate(0.5 0.1)" fill="#fff"/>
    </clipPath>
  </defs>
  <g id="Layer_1_2_" data-name="Layer_1 (2)" transform="translate(-0.5 -0.1)" clip-path="url(#clip-path)">
    <path id="Path_44998" data-name="Path 44998" d="M16.85,10.181a5.839,5.839,0,0,0-.363-.543.2.2,0,0,1-.032-.156,1.847,1.847,0,0,0,.246-.94c0-.624.008-1.251-.037-1.872a15.471,15.471,0,0,0-.456-2.852c-.046-.087-.125-.278-.388-.147l0,0a.249.249,0,0,0-.1.273,16.071,16.071,0,0,1,.433,2.5,10.354,10.354,0,0,1,.039,2.2,2.03,2.03,0,0,1-.051.305c-.032.13-.053.251-.252.258s-.263.265-.116.425.309.311.448.478a1.5,1.5,0,0,1,.2.339c.056.121.015.23-.13.233a4.925,4.925,0,0,1-.722-.031,4.726,4.726,0,0,1-.536-.135c-.158-.04-.309.025-.326.167a.2.2,0,0,1-.182.192c-.535.143-1.066.3-1.609.414-.187.038-.372.075-.559.11-.042-.239-.083-.484-.119-.736a3.308,3.308,0,0,1,.434-2.194,3.925,3.925,0,0,0,.573-1.952,3.545,3.545,0,0,0-.275-1.427.216.216,0,0,0-.246-.123l-.087.017a.222.222,0,0,0-.17.3,3.053,3.053,0,0,1-.195,2.783,4.36,4.36,0,0,0-.592,1.775,4.229,4.229,0,0,0,.046,1.095c.031.187.065.373.1.56q-1.358.244-2.728.417a.892.892,0,0,0-.544-.71A4.057,4.057,0,0,0,7.875,11c-.128-.031-.26-.051-.386-.069-.088-.014-.175-.026-.261-.043a.571.571,0,0,1-.513-.524l-.043-.242c-.04-.228-.08-.457-.117-.687a.263.263,0,0,0-.179-.207c-.184-.06-.368-.124-.555-.19L5.712,9V9c.04-.107.079-.215.117-.324.09-.247.181-.5.281-.748a2.83,2.83,0,0,0,.15-1.3A3.2,3.2,0,0,1,8.4,3.464,3.38,3.38,0,0,1,9.276,3.3.267.267,0,0,0,9.5,3.128l0-.006a.265.265,0,0,0-.266-.366A3.749,3.749,0,0,0,5.715,6.312a3.845,3.845,0,0,0,.017.534,1.793,1.793,0,0,1-.1.82c-.138.366-.274.733-.41,1.1l-.165.449a.111.111,0,0,0,0,.089.121.121,0,0,0,.066.06l.17.058.383.133c.045.015.093.029.142.041a.508.508,0,0,1,.224.094.447.447,0,0,1,.048.218c0,.052.009.1.019.153s.022.123.031.186a2.659,2.659,0,0,0,.1.445,1.084,1.084,0,0,0,.9.725c.1.018.2.034.3.049.142.021.289.044.43.077a2.7,2.7,0,0,1,.482.161.345.345,0,0,1,.2.274q-.751.09-1.5.163c-.6.06-1.212.09-1.816.133v-.023c-.325,0-.648,0-.972,0a.223.223,0,0,1-.236-.129c-.068-.141-.218-.155-.376-.069-.21.113-.419.228-.632.336a1.9,1.9,0,0,1-.394.136c-.284.057-.385-.018-.306-.27a6.831,6.831,0,0,1,.294-.695c.032-.074.087-.136.119-.21a.229.229,0,0,0-.25-.331.208.208,0,0,1-.277-.15A8.873,8.873,0,0,1,1.79,9.8,15.815,15.815,0,0,1,1.23,5.547a7.679,7.679,0,0,1,.1-.974c.015-.113.057-.212.221-.207a.26.26,0,0,0,.193-.158.335.335,0,0,0-.063-.261c-.125-.156-.275-.291-.408-.442a1.256,1.256,0,0,1-.133-.179c-.184-.293-.184-.442.073-.44a8.164,8.164,0,0,1,.924.092,2.811,2.811,0,0,1,.284.078.259.259,0,0,0,.345-.195.27.27,0,0,1,.153-.152c.561-.153,1.122-.322,1.691-.437a54.625,54.625,0,0,1,6.367-.889c.266-.021.533-.035.8-.046a.24.24,0,0,0,.2-.118l0-.006A.251.251,0,0,0,11.753.84C11.167.872,10.581.911,10,.969a51.079,51.079,0,0,0-5.843.889,11.155,11.155,0,0,0-1.566.475,1.182,1.182,0,0,1-.648.09,3.476,3.476,0,0,0-.927-.008.547.547,0,0,0-.481.455,1.021,1.021,0,0,0,.192.748c.105.136.209.273.318.417a2.137,2.137,0,0,0-.3,1.176,15.714,15.714,0,0,0,.581,4.781,2.945,2.945,0,0,0,.714,1.467,7.432,7.432,0,0,0-.236.857.609.609,0,0,0,.665.724,2.846,2.846,0,0,0,.862-.233c.227-.1.428-.207.674-.08a.278.278,0,0,0,.1.014,12.483,12.483,0,0,0,2.476-.058q1.588-.152,3.17-.359a34.236,34.236,0,0,0,4.074-.731c.423-.107.827-.293,1.241-.439a.812.812,0,0,1,.27-.037,6.131,6.131,0,0,0,.972.066.642.642,0,0,0,.552-1.006Z" transform="translate(-0.021 -0.573)" fill="#fff"/>
    <path id="Path_44999" data-name="Path 44999" d="M45.443,3.554a.966.966,0,0,0,.334.379.494.494,0,0,0,.328.084.935.935,0,0,0,.536-.29,2.3,2.3,0,0,0,.507-.8c.012-.031.026-.043.059-.038l.039,0c.246.044.491.089.737.135a7.406,7.406,0,0,0,1.052.152,1.625,1.625,0,0,0,.74-.106.765.765,0,0,0,.428-.431,1.088,1.088,0,0,0,.054-.549,2.269,2.269,0,0,0-.141-.524,2.989,2.989,0,0,0-.606-.952,1.75,1.75,0,0,0-.53-.4,1.02,1.02,0,0,0-.7-.078,1.341,1.341,0,0,0-.607.36,2.546,2.546,0,0,0-.479.67,2.423,2.423,0,0,0-.283.98c0,.04.012.051.046.052.066,0,.133.008.2.009a.2.2,0,0,0,.212-.13.607.607,0,0,0,.026-.067,4.254,4.254,0,0,1,.346-.852,1.583,1.583,0,0,1,.318-.409.684.684,0,0,1,.638-.173,1.064,1.064,0,0,1,.4.21,1.72,1.72,0,0,1,.4.463,1.926,1.926,0,0,1,.326.879.4.4,0,0,1-.206.438.864.864,0,0,1-.4.11,4.728,4.728,0,0,1-.954-.052c-.243-.037-.485-.078-.728-.117s-.467-.072-.7-.107a4.365,4.365,0,0,0-.739-.064,1.534,1.534,0,0,0-.567.069.461.461,0,0,0-.308.511,1.9,1.9,0,0,0,.223.635Zm.406-.742a.745.745,0,0,1,.116-.026c.051-.006.1-.008.155-.012l.552.044c.042,0,.031.031.022.052-.042.1-.082.207-.13.307a.829.829,0,0,1-.21.279.478.478,0,0,1-.138.081.209.209,0,0,1-.2-.02.782.782,0,0,1-.258-.3.5.5,0,0,1-.068-.2.189.189,0,0,1,.156-.207Z" transform="translate(-34.64 -0.009)" fill="#fff"/>
    <path id="Path_45000" data-name="Path 45000" d="M59.592,5.637l.459-.014,0,.12-.768.023.592-.587-.493.015,0-.123.807-.025c-.2.2-.394.391-.6.592Z" transform="translate(-45.539 -3.832)" fill="#fff"/>
    <path id="Path_45001" data-name="Path 45001" d="M56.531,7.9l.328-.009,0,.121-.648.018.4-.38-.3.009,0-.12.615-.018-.4.379Z" transform="translate(-43.159 -5.75)" fill="#fff"/>
  </g>
</svg>
