<svg xmlns="http://www.w3.org/2000/svg" xmlns:xlink="http://www.w3.org/1999/xlink" width="150" height="150" viewBox="0 0 150 150">
  <defs>
    <clipPath id="clip-path">
      <circle id="Ellipse_222" data-name="Ellipse 222" cx="75" cy="75" r="75" fill="none"/>
    </clipPath>
  </defs>
  <g id="AAyush_Illustration-09" data-name="AAyush Illustration-09" transform="translate(-35.279 -32.289)" style="isolation: isolate">
    <g id="Layer_1" data-name="Layer 1" transform="translate(35.28 32.29)">
      <g id="Group_5564" data-name="Group 5564" transform="translate(0)" clip-path="url(#clip-path)">
        <circle id="Ellipse_220" data-name="Ellipse 220" cx="75" cy="75" r="75" fill="#e3eafd"/>
        <circle id="Ellipse_221" data-name="Ellipse 221" cx="75" cy="75" r="75" transform="translate(0 -0.004)" fill="none"/>
        <path id="Path_44857" data-name="Path 44857" d="M-6.03,221.142-1.792,138l91.333.289v77.846Z" transform="translate(-12.34 -90.993)" fill="#ef9289"/>
        <path id="Path_44858" data-name="Path 44858" d="M24.89,222.128l1.334-.107V150.334h74.262v67.489l1.779-.111V149H24.89Z" transform="translate(-29.51 -97.101)" fill="#f58577"/>
        <path id="Path_44859" data-name="Path 44859" d="M31.565,227.567s-7.226-19.65,1.156-23.964,65.021-6.092,67.343,3.157,3.758,19.361,0,21.385S33.3,234.5,31.565,227.567Z" transform="translate(-31.61 -125.468)" fill="#e4e478"/>
        <path id="Path_44860" data-name="Path 44860" d="M105.339,222.227c-4.865-2.086-8.338-6.257-11.117-11.815,0-.694-1.392-2.779-3.477-3.473-2.432-.974-3.838-3.651-4.224-6.6,19.308-1.009,44.152.334,45.669,6.395,1.463,5.865,2.579,12.078,2.246,16.355C124.8,225.233,114.922,225.42,105.339,222.227Z" transform="translate(-63.735 -125.442)" fill="#a3495b" opacity="0.3" style="mix-blend-mode: multiply;isolation: isolate"/>
        <path id="Path_44861" data-name="Path 44861" d="M62.815,202.28c6.933,8.538,6,19.886,2.166,30.114l-1.543-.071c3.971-10.183,4.3-21.718-3.277-29.723Q61.423,202.427,62.815,202.28Z" transform="translate(-49.096 -126.689)" fill="#afac3a"/>
        <path id="Path_44862" data-name="Path 44862" d="M173.89,205.61a23.915,23.915,0,0,1,2.419.765,42.082,42.082,0,0,1,2.535,25.347c-.547.1-1.2.209-1.934.316A32.809,32.809,0,0,0,173.89,205.61Z" transform="translate(-112.253 -128.538)" fill="#cf6d7f"/>
        <path id="Path_44863" data-name="Path 44863" d="M163.413,231.417c3.887-9.049,3.42-20.122-1.743-28.317.587.089,1.156.191,1.712.289,4.447,8.356,6.012,19.237,2.441,27.784C165.058,231.253,164.254,231.337,163.413,231.417Z" transform="translate(-105.467 -127.144)" fill="#cf6d7f"/>
        <path id="Path_44864" data-name="Path 44864" d="M71.76,201.583l1.588-.133c3.157,2.343,6.11,5.083,7,9.538,1.561,7.173,1.263,14.843-1.423,21.118-.863,0-1.712,0-2.552-.027C80.262,221.839,79.511,210.144,71.76,201.583Z" transform="translate(-55.538 -126.228)" fill="#afac3a"/>
        <path id="Path_44865" data-name="Path 44865" d="M31.565,230.987s-7.226-19.65,1.156-23.964a11.722,11.722,0,0,1,2.121-.783c7.964,4.327,6.7,17.734,3.655,25.347a12.362,12.362,0,0,1-1.116,2.09C34.015,233.059,31.863,232.192,31.565,230.987Z" transform="translate(-31.61 -128.888)" fill="#afac3a"/>
        <path id="Path_44866" data-name="Path 44866" d="M120.081,275.355c-2.312,0,1.138-8.636,5.959-13.945,60.615.044,149.9,2.188,151.245,3.34,1.263,1.081,1.605,7.84,1.685,12.771-19.6,0-39.132-2.922-58.133-3.557C187.494,273.27,153.432,278.833,120.081,275.355Z" transform="translate(-81.963 -159.525)" fill="#c95d72" opacity="0.2" style="mix-blend-mode: multiply;isolation: isolate"/>
        <path id="Path_44867" data-name="Path 44867" d="M193.23,366.809h9.187V320.855l-8.894-1.445Z" transform="translate(-122.993 -191.733)" fill="#cd675d"/>
        <path id="Path_44868" data-name="Path 44868" d="M189.228,313.33v50.1H179.89V318.342Z" transform="translate(-115.585 -188.357)" fill="#e07869"/>
        <path id="Path_44869" data-name="Path 44869" d="M7.23,366.809h9.187V320.855L7.523,319.41Z" transform="translate(-19.703 -191.733)" fill="#e07869"/>
        <path id="Path_44870" data-name="Path 44870" d="M4.228,313.33v50.1H-5.11V318.342Z" transform="translate(-12.851 -188.357)" fill="#f58577"/>
        <path id="Path_44871" data-name="Path 44871" d="M217.373,282.41s.334-16.338-1.69-18.072S12.162,258.616,9.551,262.951s0,20.282,0,20.282Z" transform="translate(-20.348 -159.296)" fill="#afac3a"/>
        <path id="Path_44872" data-name="Path 44872" d="M215.7,305.418-4.977,303.35l-.583,9.392,221.589,4.238Z" transform="translate(-12.601 -182.815)" fill="#f58577"/>
        <path id="Path_44873" data-name="Path 44873" d="M-5.11,137.878l8.894-.1v83.253H-5.11Z" transform="translate(-12.851 -90.871)" fill="#f58577"/>
        <path id="Path_44874" data-name="Path 44874" d="M128.885,227.654s-3.273-4.914-3.949-5.2-6.55-2.6-7.035-.578,4.82,8.769,6.746,8.867S128.885,227.654,128.885,227.654Z" transform="translate(-81.144 -137.113)" fill="#dd7131"/>
        <path id="Path_44875" data-name="Path 44875" d="M117.9,221.873c.485-2.023,6.359.289,7.035.578.52.222,2.584,3.193,3.5,4.54-2.721-.525-5.968-1.254-8.222-.173C118.782,224.924,117.671,222.852,117.9,221.873Z" transform="translate(-81.144 -137.113)" fill="#dd7131"/>
        <rect id="Rectangle_2244" data-name="Rectangle 2244" width="7.653" height="8.84" transform="translate(66.87 86.208) rotate(130.49)" fill="#fccebc"/>
        <path id="Path_44876" data-name="Path 44876" d="M165.477,219.249h0a3.82,3.82,0,0,0-.445-5.394l-3.811-3.255-4.972,5.821,3.815,3.255a3.829,3.829,0,0,0,5.412-.427Z" transform="translate(-102.457 -131.309)" fill="#b5632b"/>
        <path id="Path_44877" data-name="Path 44877" d="M159.609,169.854c1.45,1.236,3.3,1.445,4.14.445s.338-2.775-1.112-4-3.3-1.445-4.136-.445S158.16,168.613,159.609,169.854Z" transform="translate(-103.482 -106.108)" fill="#dd7131"/>
        <path id="Path_44878" data-name="Path 44878" d="M160.044,171.2c1.112.947,2.535,1.107,3.175.356s.262-2.134-.849-3.082-2.535-1.112-3.179-.36S158.932,170.245,160.044,171.2Z" transform="translate(-103.916 -107.451)" fill="#b5632b"/>
        <path id="Path_44879" data-name="Path 44879" d="M115.118,221.962c1.45,1.236,1.948,3.037,1.112,4s-2.69.774-4.14-.467-1.943-3.033-1.107-4S113.672,220.726,115.118,221.962Z" transform="translate(-77.093 -137.019)" fill="#dd7131"/>
        <path id="Path_44880" data-name="Path 44880" d="M116.434,222.274c1.116.952,1.494,2.33.854,3.082s-2.068.6-3.179-.356-1.494-2.33-.849-3.082S115.322,221.327,116.434,222.274Z" transform="translate(-78.409 -137.331)" fill="#b5632b"/>
        <path id="Path_44881" data-name="Path 44881" d="M131.035,168.742a14.141,14.141,0,0,1,4.042,5.741,19.308,19.308,0,0,1,1.134,7.737c-.191,4.14-1.459,7.613-2.223,8.533-1.636,1.917-13.9,7.644-22.2.556-6.941-5.923-8.249-15.777-2.926-22.007S124.1,162.819,131.035,168.742Z" transform="translate(-74.325 -105.686)" fill="#dd7131"/>
        <path id="Path_44882" data-name="Path 44882" d="M141.6,182.145a1.334,1.334,0,0,1-.32-.351,1.49,1.49,0,0,0,1.73-2.223,1.334,1.334,0,0,1,.445.222,1.5,1.5,0,0,1-1.832,2.37Z" transform="translate(-94.144 -114.077)" fill="#0b253f"/>
        <path id="Path_44883" data-name="Path 44883" d="M123.785,205.175a1.276,1.276,0,0,1-.325-.351,1.485,1.485,0,0,0,1.725-2.223,1.334,1.334,0,0,1,.422.227,1.492,1.492,0,0,1-1.823,2.361Z" transform="translate(-84.248 -126.866)" fill="#0b253f"/>
        <path id="Path_44884" data-name="Path 44884" d="M144.653,198.36a4.825,4.825,0,0,1-3.393,3.975S145.827,203.216,144.653,198.36Z" transform="translate(-94.133 -124.512)" fill="#0b253f"/>
        <path id="Path_44885" data-name="Path 44885" d="M135.528,180.5c-.72-.618-.6-.778.076-1.668a14.367,14.367,0,0,1,1.89-2.068c.347-.307,1.512-.7,1.672-.934l-3.371,4.891Z" transform="translate(-90.678 -112)" fill="#0b253f"/>
        <path id="Path_44886" data-name="Path 44886" d="M122.3,195.631c-.792-.671-.938-.516-1.779.369a15.725,15.725,0,0,0-1.912,2.392c-.267.445-.494,1.748-.72,1.965l4.7-4.478Z" transform="translate(-81.155 -122.765)" fill="#0b253f"/>
        <path id="Path_44887" data-name="Path 44887" d="M152.057,205.7c.738.382-2.45,4.754-3.157,4.131C148.878,209.823,151.292,205.319,152.057,205.7Z" transform="translate(-98.375 -128.576)" fill="#0b253f"/>
        <path id="Path_44888" data-name="Path 44888" d="M88.052,169.652a5.156,5.156,0,0,1-.347-.529c-.76-1.41-.32-3.139.138-4.674l1.014-3.384a2.908,2.908,0,0,0-1.4,1.779,8.515,8.515,0,0,1,.889-4.923,5.931,5.931,0,0,1,3.015-3.429c.863-.311,1.908-.307,2.535-.978a4.4,4.4,0,0,0-1.61-1.125,3.188,3.188,0,0,1,1.668-.467c.583.062,1.156.591,1.032,1.161a1.156,1.156,0,0,0-.076.445,10.326,10.326,0,0,1,5.078-2.877,22.235,22.235,0,0,1,5.848-.543,18.851,18.851,0,0,1,12.584,4.656c.147.133,1.894,2.094,1.97,2.072-1.57.445-.854,1.734-1.614,2.5s-2.477.329-3.326.12a38.459,38.459,0,0,1-7.626-2.739,19.366,19.366,0,0,1-8.342,12.233l.4-1.579a4.447,4.447,0,0,0-1.143,2.223,7.315,7.315,0,0,0,.027,2.019q.48,4.4.952,8.8c.107.969-.076,1.169-.738,1.547-.116.067-1.952,1.174-1.334,1.547-3.482-2.086-7.746-6.274-8.418-10.414a8.018,8.018,0,0,0-.556-2.459A7.585,7.585,0,0,0,88.052,169.652Z" transform="translate(-64.164 -97.707)" fill="#0b253f"/>
        <path id="Path_44889" data-name="Path 44889" d="M165.825,201.722s3.082-8.983,6.55-10c27.788-8.107,66.8,14.941,70.318,18.29,4.047,3.851-3.273,7.706-9.249,9.441s-73.59.787-74.938-1.525S166.016,204.319,165.825,201.722Z" transform="translate(-103.632 -119.874)" fill="#27488f"/>
        <path id="Path_44890" data-name="Path 44890" d="M194.182,194.49s13.007,7.079,13.007,9.392-11.464,3.709-13.007,5.843-10.792-9.441-9.636-11.949S190.713,193.717,194.182,194.49Z" transform="translate(-118.114 -122.252)" fill="#c8795c"/>
        <path id="Path_44891" data-name="Path 44891" d="M214,211.31s14.043,16.066,14.23,18.57-11.731,1.614-13.852-.889-11.944-14.065-11.944-14.065Z" transform="translate(-128.101 -131.703)" fill="#fccebc"/>
        <path id="Path_44892" data-name="Path 44892" d="M196.782,191.889s11.944,7.706,11.944,10.019-10.4,3.082-11.944,5.2-10.792-9.441-9.636-11.949S193.313,191.115,196.782,191.889Z" transform="translate(-119.558 -120.807)" fill="#df9271"/>
        <path id="Path_44893" data-name="Path 44893" d="M186.676,240.333s5.2,2.89,2.5,5.972-44.508.756-56.07-7.319l4.238-3.086s33.142,1.156,39.31,4.625Z" transform="translate(-89.607 -145.358)" fill="#dd7131"/>
        <path id="Path_44894" data-name="Path 44894" d="M139.16,261.043c2.668-1.992,6.274-2.268,9.636-3.113-5.461,3.264-8.6,9.178-9.867,15.768l-5.679.276C133.73,268.86,135.078,264.187,139.16,261.043Z" transform="translate(-89.685 -157.592)" fill="#d4c7e2"/>
        <path id="Path_44895" data-name="Path 44895" d="M168.21,255.491a18.1,18.1,0,0,1,4.554-1.921A13.812,13.812,0,0,1,168.21,255.491Z" transform="translate(-109.098 -155.171)" fill="#d4c7e2"/>
        <path id="Path_44896" data-name="Path 44896" d="M172.8,185.041a19.272,19.272,0,0,0-17.516,8.734c-1.1,1.694-2.223,3.513-3.26,5.381-4.336,7.8-13.967,17.916-20.522,19.748s-6.839,14.741-6.839,14.741,70.14-3.557,88.345-3.277,36.708,4.336,47.136,4.047,21.963,0,21.963,0,36.909,7.035,40.368,4.447,9.827-10.406,2.988-15.417c-14.163-1.734-18.788,0-24.569-4.625s-16.453-20.807-51.138-26.009C224.633,189.034,190.037,186.277,172.8,185.041Z" transform="translate(-84.914 -117.089)" fill="#cde0f4"/>
        <path id="Path_44897" data-name="Path 44897" d="M186.222,212.7c0,1.152-1.734,2.308-2.89,2.308a21.906,21.906,0,0,0-4.891.729,8.947,8.947,0,0,0,2-1.885c4.625-5.2,5.781-12.135,10.406-17.343a44.913,44.913,0,0,1,14-11.064l3.344.249c-3.766,2.9-7.946,5.283-11.562,8.5C190.251,198.252,187.956,205.189,186.222,212.7Z" transform="translate(-114.779 -117.343)" fill="#729ad1"/>
        <path id="Path_44898" data-name="Path 44898" d="M414.333,284.461c4.625,1.156,10.984,0,15.6-1.734,14.759-4.74,33.351,2.521,47.923-4.487a6.252,6.252,0,0,1,.445,3.077c-11.731,7.257-30.332-2.544-42.6,2.566a72.322,72.322,0,0,1-7.173,2.255c-4.211-.067-11.62-.129-18.521.062a115.478,115.478,0,0,1-15.43-1.165,27.232,27.232,0,0,1,19.753-.574Z" transform="translate(-234.806 -168.871)" fill="#d4c7e2"/>
        <path id="Path_44899" data-name="Path 44899" d="M153.606,239.21c24.573,5.545,50.311-.64,74.115,6.226-28.989,2.846-57.982,3.451-86.971,3.469C144.588,247.708,149.412,243.795,153.606,239.21Z" transform="translate(-93.849 -147.197)" fill="#c3d7ef" opacity="0.2" style="mix-blend-mode: multiply;isolation: isolate"/>
        <path id="Path_44900" data-name="Path 44900" d="M424.9,271.09,369.88,269l55.243.694Z" transform="translate(-221.09 -163.739)" fill="#a89dbc" opacity="0.2" style="mix-blend-mode: multiply;isolation: isolate"/>
        <path id="Path_44901" data-name="Path 44901" d="M268.71,114.633c-.569.031-1.143.044-1.712.093-1.1.089-2.2.2-3.3.289a1.362,1.362,0,0,1-.422-.036.382.382,0,0,1-.062-.716,3.352,3.352,0,0,1,.658-.147c1.165-.129,2.335-.258,3.5-.365a6.35,6.35,0,0,1,1.881,0,.676.676,0,0,1,.5,1.085,9.541,9.541,0,0,1-.938,1.227,26.344,26.344,0,0,1-3.26,3.037l-.129.107v.058a5.174,5.174,0,0,0,.587,0c1.156-.138,2.312-.289,3.473-.445.422-.053.845-.089,1.267-.111q.46,0,.494.32a.445.445,0,0,1-.391.543c-.382.085-.778.138-1.17.187-1.094.142-2.188.293-3.286.409a9.192,9.192,0,0,1-1.525,0,.663.663,0,0,1-.529-1.121,6.227,6.227,0,0,1,.978-1.018,25.881,25.881,0,0,0,3.291-3.219l.125-.16Z" transform="translate(-161.733 -77.489)" fill="#0b253f"/>
        <path id="Path_44902" data-name="Path 44902" d="M285.616,97.255c.289,0,.529.053.765.058l3.557.107,1.169.036a.511.511,0,0,1,.445.445.445.445,0,0,1-.378.445,7.7,7.7,0,0,1-1.014.04q-1.965-.053-3.927-.125a4.741,4.741,0,0,1-.889-.12.854.854,0,0,1-.471-1.485,18.232,18.232,0,0,1,2.428-2.223c.8-.64,1.556-1.334,2.33-2.006a1.552,1.552,0,0,0,.111-.129,2,2,0,0,0-.222-.031,27.321,27.321,0,0,0-3.815.147.476.476,0,0,1-.445-.16.369.369,0,0,1,.178-.631,6.79,6.79,0,0,1,1.3-.2c1.25-.027,2.5,0,3.753,0a.636.636,0,0,1,.445,1.121c-.583.556-1.165,1.121-1.779,1.645s-1.4,1.107-2.077,1.681c-.445.387-.889.818-1.334,1.232A1.771,1.771,0,0,0,285.616,97.255Z" transform="translate(-173.726 -65.122)" fill="#0b253f"/>
        <path id="Path_44903" data-name="Path 44903" d="M252.6,140.424c.218,0,.445.031.649.022l2.668-.129h.511a.791.791,0,0,1,.227.044.476.476,0,0,1,.342.5.418.418,0,0,1-.445.382c-.84.049-1.681.1-2.521.12-.623,0-1.245,0-1.868-.036a1.147,1.147,0,0,1-.569-.249.445.445,0,0,1-.147-.685,5.467,5.467,0,0,1,.471-.752c.814-1.1,1.636-2.188,2.455-3.282.058-.085.111-.178.165-.262h-1.174c-.6,0-1.2.04-1.8.062h-.276a.365.365,0,0,1-.378-.378.4.4,0,0,1,.351-.414c.3-.036.6-.067.889-.084.752-.049,1.507-.1,2.263-.129a2.428,2.428,0,0,1,.694.08.654.654,0,0,1,.422,1.089c-.889,1.236-1.779,2.459-2.695,3.682-.089.12-.173.24-.262.356Z" transform="translate(-155.023 -89.414)" fill="#0b253f"/>
        <path id="Path_44904" data-name="Path 44904" d="M236.458,157.064c.391,0,.72-.044,1.049-.049.574,0,1.147-.036,1.716,0a.863.863,0,0,1,.445.191.414.414,0,0,1,.111.489.4.4,0,0,1-.4.258l-3.331.116a1.626,1.626,0,0,0-.36,0,.6.6,0,0,1-.445-.889,6.849,6.849,0,0,1,.609-.818c.889-1.014,1.779-2.014,2.7-3.024.107-.116.209-.24.311-.365l-.027-.076h-.636l-2.521.187a2.933,2.933,0,0,1-.342,0,.382.382,0,0,1-.418-.311.391.391,0,0,1,.307-.445,6.4,6.4,0,0,1,.921-.151q1.432-.133,2.877-.231a1.1,1.1,0,0,1,.494.076.68.68,0,0,1,.414.952,3.558,3.558,0,0,1-.556.867c-.845.969-1.716,1.921-2.575,2.882A1.174,1.174,0,0,0,236.458,157.064Z" transform="translate(-146.143 -98.735)" fill="#0b253f"/>
        <path id="Path_44905" data-name="Path 44905" d="M228.447,169.775a1.17,1.17,0,0,1-.445.938.542.542,0,0,1-.351.111,1,1,0,0,1-.827-.7.889.889,0,0,1,.209-1.041.72.72,0,0,1,1.143.093A3.344,3.344,0,0,1,228.447,169.775Z" transform="translate(-141.6 -108.12)" fill="#0b253f"/>
        <path id="Path_44906" data-name="Path 44906" d="M218.893,175.107a.631.631,0,0,1-.445.614.5.5,0,0,1-.583-.32,2.156,2.156,0,0,1-.156-.694c0-.191.191-.351.445-.4a.445.445,0,0,1,.529.209A4.727,4.727,0,0,1,218.893,175.107Z" transform="translate(-136.587 -111.139)" fill="#0b253f"/>
      </g>
    </g>
  </g>
</svg>
