<svg xmlns="http://www.w3.org/2000/svg" width="16" height="16" viewBox="0 0 16 16">
  <path id="HealthiconsDoctor" d="M9.748,18.2a1.333,1.333,0,1,0,.871-.185q-.025-.089-.046-.18-.091-.412-.142-.831a7.567,7.567,0,0,1-.062-.851q0-.117.007-.234c.171-.049.342-.093.513-.132.2-.044.312.187.406.374l.038.075h5.222c.1-.193.332-.5.556-.449s.478.119.715.192h0s0,0,0,0a.666.666,0,0,1,.021.1,2.381,2.381,0,0,1,.022.278,6.551,6.551,0,0,1-.033.771,7.035,7.035,0,0,1-.111.749c-.01.047-.02.089-.029.127h-.584a.444.444,0,0,0-.4.246l-.444.889a.444.444,0,0,0-.047.2v.889a.444.444,0,0,0,.444.444h.889v-.889h-.444v-.34l.275-.549h1.228l.275.549v.34h-.444v.889h.889a.444.444,0,0,0,.444-.444v-.889a.444.444,0,0,0-.047-.2l-.444-.889a.444.444,0,0,0-.4-.246h-.283c.048-.237.087-.513.114-.791a7.274,7.274,0,0,0,.037-.881v-.012C20.529,17.064,22,18.3,22,19.587V22H6V19.587c0-1.348,1.6-2.631,3.48-3.368a8.663,8.663,0,0,0,.069.892c.041.327.1.652.158.919.013.057.027.113.041.167Zm.7,1.588A.451.451,0,1,0,10,19.333.448.448,0,0,0,10.444,19.784ZM14,14a3.556,3.556,0,1,0-3.556-3.556A3.556,3.556,0,0,0,14,14Zm0,.889a4.444,4.444,0,1,0-4.444-4.444A4.444,4.444,0,0,0,14,14.889Z" transform="translate(-6 -6)" fill="#fff" fill-rule="evenodd"/>
</svg>
