<svg xmlns="http://www.w3.org/2000/svg" width="55.099" height="29.407" viewBox="0 0 55.099 29.407">
  <g id="Group_5487" data-name="Group 5487" transform="translate(-129.032 -1114.394)">
    <g id="Untitled-2-01" transform="translate(129.208 1127.081)">
      <path id="Path_44882" data-name="Path 44882" d="M185.413,410.828a.522.522,0,0,1,.472-.541c3.25-.312,21.894-1.992,33.061-.477a31.024,31.024,0,0,1,9.4,2.6c4.862,2.234,5.322,2.562,5.322,2.562s1.875.854.985,1.84a3.831,3.831,0,0,1-5.354.492c-2.382-1.708-6.307-4.434-6.307-4.434a8.1,8.1,0,0,0-5.683-.887,15.063,15.063,0,0,0-3.449.986,15.992,15.992,0,0,1-7.918,1.147c-3.659-.177-17.229-.8-19.954-.931a.522.522,0,0,1-.5-.5Z" transform="translate(-180.174 -409.185)" fill="#214e8b"/>
      <path id="Path_44883" data-name="Path 44883" d="M101.842,413.238s.069-.914.629-.246a3.549,3.549,0,0,1,.668,1.731c.471,1.8,1.672,6.62,2.069,8.322.827,3.548,1.139,4.818-.306,4.884a.7.7,0,0,0,.613.526,1.941,1.941,0,0,0,1.642-1.117,32.608,32.608,0,0,0-.569-4.227l-.942-5.407s-.492-1.741.033-1.937a3.605,3.605,0,0,1,.662-.211l.306-.3-.2-2.132a5.229,5.229,0,0,1-2.026-.416C103.632,412.294,101.257,410.977,101.842,413.238Z" transform="translate(-101.741 -411.777)" fill="#aeb0af"/>
      <path id="Path_44884" data-name="Path 44884" d="M106.36,413.128a.37.37,0,0,0-.321-.345,10.513,10.513,0,0,1-2.161-.532c-1.312-.482-2.113-1.106-2.245.076a22.772,22.772,0,0,0,.712,7.062c1.007,3.9,2.1,7.621,2.1,7.621a1.116,1.116,0,0,0,1.621.92c1.4-.569.92-1.62.657-3.548s-1.149-6.482-1.27-7.577c-.1-.947-.416-1.466.663-1.491a.375.375,0,0,0,.361-.4Z" transform="translate(-101.593 -411.494)" fill="none" stroke="#214e8b" stroke-width="0.3"/>
    </g>
    <g id="Group_5486" data-name="Group 5486" transform="translate(126.955 1114.394)">
      <path id="keyboard_backspace_FILL0_wght300_GRAD0_opsz48" d="M147.846,368.312l-4.12-4.1a.6.6,0,0,1-.188-.441.6.6,0,0,1,.044-.234.645.645,0,0,1,.144-.205l4.128-4.128a.448.448,0,0,1,.334-.139.515.515,0,0,1,.522.5.488.488,0,0,1-.154.355l-3.356,3.357h12.743a.494.494,0,1,1,0,.988H145.2l3.365,3.357a.5.5,0,0,1,.135.336.437.437,0,0,1-.145.354.486.486,0,0,1-.708,0Z" transform="translate(-136.539 -359.05)" fill="#727271"/>
      <path id="keyboard_backspace_FILL0_wght300_GRAD0_opsz48-2" data-name="keyboard_backspace_FILL0_wght300_GRAD0_opsz48" d="M154.129,368.312l4.12-4.1a.6.6,0,0,0,.187-.441.6.6,0,0,0-.044-.234.645.645,0,0,0-.144-.205l-4.128-4.128a.449.449,0,0,0-.334-.139.515.515,0,0,0-.522.5.488.488,0,0,0,.154.355l3.356,3.357H144.033a.494.494,0,1,0,0,.988h12.743l-3.365,3.357a.5.5,0,0,0-.135.336.437.437,0,0,0,.145.354.486.486,0,0,0,.708,0Z" transform="translate(-101.261 -359.065)" fill="#727271"/>
      <path id="Path_44885" data-name="Path 44885" d="M33.185,1117.891h29.94" transform="translate(-19.148 -1113.191)" fill="none" stroke="#727271" stroke-width="1"/>
    </g>
  </g>
</svg>
