<svg xmlns="http://www.w3.org/2000/svg" width="36" height="36" viewBox="0 0 36 36">
  <g id="Group_5476" data-name="Group 5476" transform="translate(-14 -1424)">
    <circle id="Ellipse_198" data-name="Ellipse 198" cx="18" cy="18" r="18" transform="translate(14 1424)" fill="#e9e9e9" opacity="0.4"/>
    <g id="Group_5472" data-name="Group 5472">
      <path id="Path_44775" data-name="Path 44775" d="M11.41,8.22c0,.06-.08.07-.11,0Z" transform="translate(14.004 1423.958)" fill="#747171"/>
      <path id="Path_44776" data-name="Path 44776" d="M12.43,8.27a.09.09,0,0,1-.11,0Z" transform="translate(14.006 1423.958)" fill="#555252"/>
      <path id="Path_44777" data-name="Path 44777" d="M12.43,8.27h.11A.4.4,0,0,1,12.43,8.27Z" transform="translate(14.007 1423.958)" fill="#6a6767"/>
      <path id="Path_44778" data-name="Path 44778" d="M13.715,26.074c-.241.11-.341.08-.482-.141a3.957,3.957,0,0,1-.633-2.149V14.866a6.026,6.026,0,0,1,4.017-5.735,6.3,6.3,0,0,1,1.285-.3h.271a.06.06,0,0,0,.08,0h.633a.1.1,0,0,0,.07,0,.11.11,0,0,0,.08,0h.151a2.009,2.009,0,0,0,.492.09,6.026,6.026,0,0,1,4.861,4.65,6.578,6.578,0,0,1,.121,2.219,8.235,8.235,0,0,1-.763,2.923,13.608,13.608,0,0,1-1.5,2.34,15.517,15.517,0,0,0-1.567,2.44c-.271.582-.422,1.225-.643,1.828a4.881,4.881,0,0,1-.944,1.607,3.123,3.123,0,0,1-2.159,1,4.258,4.258,0,0,1-2.812-.783c-.221-.151-.241-.241-.121-.482a.291.291,0,0,1,.432,0c.161.1.311.211.472.291a3.625,3.625,0,0,0,2.631.281,2.511,2.511,0,0,0,1.537-1.265,1.627,1.627,0,0,0,.1-.181,6.809,6.809,0,0,0,.532-1.386,8.687,8.687,0,0,1,1-2.189c.512-.813,1.115-1.557,1.667-2.34a8.125,8.125,0,0,0,1.516-3.907,6.829,6.829,0,0,0-.151-2.591,5.4,5.4,0,0,0-9.1-2.37,4.881,4.881,0,0,0-1.065,1.557,5.021,5.021,0,0,0-.512,2.219v9.039a3.415,3.415,0,0,0,.5,1.727.763.763,0,0,1,.11.261A.231.231,0,0,1,13.715,26.074Z" transform="translate(13.994 1423.94)" fill="#8a8a89"/>
      <path id="Path_44779" data-name="Path 44779" d="M13.712,26.058a.362.362,0,0,0,0-.442,3.636,3.636,0,0,1-.562-2.009V14.92a5.534,5.534,0,0,1,.472-2.31l.07-.121c.08.07.06.151.05.241-.07.572-.1,1.145-.141,1.717v2.24a16.812,16.812,0,0,0,.854,5.132,6.789,6.789,0,0,0,1.366,2.38,4.248,4.248,0,0,0,2.852,1.416h.593a.221.221,0,0,1,.171.05,2.621,2.621,0,0,1-2.159,1.577,3.716,3.716,0,0,1-2.611-.663.341.341,0,0,0-.442,0,1.476,1.476,0,0,1-.512-.522Z" transform="translate(14.003 1423.951)" fill="#d4d6d8"/>
      <path id="Path_44780" data-name="Path 44780" d="M19.415,25.69a5.021,5.021,0,0,1-1.9-.271,4.067,4.067,0,0,1-1.336-.783,7.211,7.211,0,0,1-2.009-3.5,17.224,17.224,0,0,1-.472-2.36c-.06-.512-.09-1-.121-1.567-.05-.743,0-1.486,0-2.23a17.144,17.144,0,0,1,.181-2.27.813.813,0,0,0,0-.221,4.459,4.459,0,0,1,.753-1.2,5.473,5.473,0,0,1,2.481-1.677,5.363,5.363,0,0,1,3.947.191,5.453,5.453,0,0,1,3.013,3.334,5.7,5.7,0,0,1,.271,1.687,8.135,8.135,0,0,1-.643,3.344,11.278,11.278,0,0,1-1.356,2.24,23.21,23.21,0,0,0-1.406,2.009,12.213,12.213,0,0,0-1.1,2.651A3.365,3.365,0,0,1,19.415,25.69Z" transform="translate(13.998 1423.945)" fill="#e1e1e1"/>
      <path id="Path_44781" data-name="Path 44781" d="M14.861,17.706a5.564,5.564,0,0,1-.191-1.225v-.8c0-.1-.05-.131-.11-.171h0c.311-.05.341-.281.341-.522a3.636,3.636,0,0,1,.251-1.085.653.653,0,0,1,.492-.432,3.063,3.063,0,0,1,2.4.4,2.36,2.36,0,0,1,1.225,1.747,3.385,3.385,0,0,1-.131,1.516,1.557,1.557,0,0,0-.07.231c0,.131,0,.241.141.281a.231.231,0,0,0,.291-.151,4.087,4.087,0,0,0,.241-.914,3.184,3.184,0,0,0,0-1.2,2.842,2.842,0,0,0-1.055-1.667,3.716,3.716,0,0,0-2.36-.8h-.321c-.141,0-.161-.07-.07-.181a.522.522,0,0,1,.1-.11,3.7,3.7,0,0,1,2.109-.894,3.535,3.535,0,0,1,3.676,2.561.572.572,0,0,1,.07.291c-.07,0,0,.1,0,.141a5.021,5.021,0,0,1,0,.773c.07.09,0,.191,0,.281a6.086,6.086,0,0,1-.683,2.36c-.412.783-.944,1.5-1.426,2.23-.331.492-.6,1-.914,1.537a2.26,2.26,0,0,1-.9.914,1.607,1.607,0,0,1-2.26-1,1.557,1.557,0,0,1,.331-1.476,2.1,2.1,0,0,0,.472-.854,1.486,1.486,0,0,0-1.426-1.768C15,17.665,15,17.726,14.861,17.706Z" transform="translate(14.004 1423.956)" fill="#d4d6d8"/>
      <path id="Path_44782" data-name="Path 44782" d="M21.882,14.575a2.481,2.481,0,0,1-.221-.593,3.495,3.495,0,0,0-5.785-1.145.542.542,0,0,0,.251,0,3.636,3.636,0,0,1,3.194,1.537,3.093,3.093,0,0,1,.372,2.571,3.485,3.485,0,0,1-.131.462c-.08.251-.221.341-.4.271s-.211-.211-.131-.452a4.017,4.017,0,0,0,.2-1.245,2.26,2.26,0,0,0-.914-1.878,3.194,3.194,0,0,0-2.44-.673,1.537,1.537,0,0,0-.291.07.572.572,0,0,0-.392.352,4.218,4.218,0,0,0-.281,1.316c0,.281-.11.341-.382.321a.352.352,0,0,1-.181-.362,4.059,4.059,0,0,1,7.522-2.009,4.208,4.208,0,0,1,.452,1.075.3.3,0,0,1-.07.352A.291.291,0,0,1,21.882,14.575Z" transform="translate(14.003 1423.96)" fill="#8a8a89"/>
      <path id="Path_44783" data-name="Path 44783" d="M14.86,17.69a.813.813,0,0,1,.864.05,1.516,1.516,0,0,1,.492,2.41,1.727,1.727,0,0,0-.492,1.2,1.567,1.567,0,0,0,2.29,1.406,1.888,1.888,0,0,0,.834-.824c.643-1.215,1.466-2.31,2.189-3.475a6.166,6.166,0,0,0,.824-2.23,2.127,2.127,0,0,1,.09-.753.311.311,0,0,1,.382-.11c.151.07.151.2.151.352a6.819,6.819,0,0,1-1.2,3.4c-.653,1-1.326,1.948-1.888,3.013a3.013,3.013,0,0,1-.813.954A2.139,2.139,0,0,1,15.8,19.859a1,1,0,0,0-.271-1.587,1.667,1.667,0,0,0-.372-.09C14.82,18.112,14.74,18.011,14.86,17.69Z" transform="translate(14.004 1423.966)" fill="#8a8a89"/>
      <path id="Path_44784" data-name="Path 44784" d="M16.187,17.1a1,1,0,0,1-.944,1c-.552,0-.693-.442-.783-1s.141-1,.683-1a1,1,0,0,1,1.044,1Z" transform="translate(14.01 1423.975)" fill="#8a8a89"/>
      <path id="Path_44785" data-name="Path 44785" d="M16.91,9a5.835,5.835,0,0,1,3.676.07l-.11.161-1.707-.06Z" transform="translate(14.013 1423.959)" fill="#8a8a89"/>
      <path id="Path_44798" data-name="Path 44798" d="M23.521,8.27S29.8,10.2,26.264,17.58" transform="translate(14.027 1423.953)" fill="none" stroke="#8a8a89" stroke-linecap="round" stroke-width="1"/>
    </g>
  </g>
</svg>
