<svg xmlns="http://www.w3.org/2000/svg" xmlns:xlink="http://www.w3.org/1999/xlink" width="44" height="44" viewBox="0 0 44 44">
  <defs>
    <filter id="Ellipse_198" x="0" y="0" width="44" height="44" filterUnits="userSpaceOnUse">
      <feOffset dy="2" input="SourceAlpha"/>
      <feGaussianBlur stdDeviation="2" result="blur"/>
      <feFlood flood-color="#727271" flood-opacity="0.122"/>
      <feComposite operator="in" in2="blur"/>
      <feComposite in="SourceGraphic"/>
    </filter>
  </defs>
  <g id="ayush_icons-08" data-name="ayush icons-08" transform="translate(6.099 3.94)">
    <g transform="matrix(1, 0, 0, 1, -6.1, -3.94)" filter="url(#Ellipse_198)">
      <circle id="Ellipse_198-2" data-name="Ellipse 198" cx="16" cy="16" r="16" transform="translate(6 4)" fill="#fff"/>
    </g>
    <path id="Path_44775" data-name="Path 44775" d="M11.4,8.22c0,.053-.071.062-.1,0Z" transform="translate(-1.451 -0.963)" fill="#747171"/>
    <path id="Path_44776" data-name="Path 44776" d="M12.417,8.27a.08.08,0,0,1-.1,0Z" transform="translate(-1.572 -0.969)" fill="#555252"/>
    <path id="Path_44777" data-name="Path 44777" d="M12.43,8.27h.1A.352.352,0,0,1,12.43,8.27Z" transform="translate(-1.585 -0.969)" fill="#6a6767"/>
    <path id="sync_alt_FILL1_wght300_GRAD0_opsz48" d="M117.2,245.724a.449.449,0,0,1,0-.664l2.266-2.258H106.4a.471.471,0,1,1,0-.942h13.064l-2.3-2.307a.4.4,0,0,1-.126-.3.458.458,0,0,1,.147-.332.433.433,0,0,1,.324-.147.458.458,0,0,1,.332.147l2.994,2.994a.679.679,0,0,1,.141.2.535.535,0,0,1,.046.224.515.515,0,0,1-.046.216.679.679,0,0,1-.141.2l-3,3a.4.4,0,0,1-.3.126A.458.458,0,0,1,117.2,245.724Zm-8.581,6.9-2.973-2.973a.6.6,0,0,1-.137-.2.588.588,0,0,1-.042-.22.579.579,0,0,1,.042-.224.615.615,0,0,1,.137-.2l3.015-3.015a.423.423,0,0,1,.311-.126.458.458,0,0,1,.332.147.471.471,0,0,1,.139.332.458.458,0,0,1-.147.332l-2.279,2.279h13.064a.471.471,0,1,1,0,.942H107.013l2.287,2.287a.418.418,0,0,1,.126.307.47.47,0,0,1-.811.328Z" transform="translate(261.67 -97.181) rotate(90)" fill="#221f20"/>
  </g>
</svg>
