<svg xmlns="http://www.w3.org/2000/svg" width="36" height="36" viewBox="0 0 36 36">
  <g id="Group_5514" data-name="Group 5514" transform="translate(-95 -1721)">
    <circle id="Ellipse_217" data-name="Ellipse 217" cx="18" cy="18" r="18" transform="translate(95 1721)" fill="#e9e9e9" opacity="0.4"/>
    <path id="MaterialSymbolsWaterDropRounded" d="M11.338,20.375a7.355,7.355,0,0,1-5.125-2.029A7.081,7.081,0,0,1,4,12.854,8.823,8.823,0,0,1,5.651,8.13a28.1,28.1,0,0,1,5-5.5,1.1,1.1,0,0,1,.321-.183,1.013,1.013,0,0,1,.734,0,1.1,1.1,0,0,1,.321.183,28.1,28.1,0,0,1,5,5.5,8.822,8.822,0,0,1,1.651,4.724,7.086,7.086,0,0,1-2.213,5.492A7.348,7.348,0,0,1,11.338,20.375Zm.252-2.752a.732.732,0,0,0,.471-.218.637.637,0,0,0,.194-.47.678.678,0,0,0-.206-.516.66.66,0,0,0-.527-.172,3.574,3.574,0,0,1-1.995-.516A2.819,2.819,0,0,1,8.2,13.611a.675.675,0,0,0-.24-.413.683.683,0,0,0-.448-.161.663.663,0,0,0-.527.241.62.62,0,0,0-.138.561,4.2,4.2,0,0,0,1.834,2.981,4.881,4.881,0,0,0,2.912.8Z" transform="translate(101.663 1727.625)" fill="#adaeae"/>
  </g>
</svg>
