<svg xmlns="http://www.w3.org/2000/svg" width="36" height="36" viewBox="0 0 36 36">
  <g id="Group_5478" data-name="Group 5478" transform="translate(-14 -1528)">
    <circle id="Ellipse_199" data-name="Ellipse 199" cx="18" cy="18" r="18" transform="translate(14 1528)" fill="#e9e9e9" opacity="0.4"/>
    <g id="Group_5474" data-name="Group 5474">
      <path id="Path_44786" data-name="Path 44786" d="M17.376,10.007H15.871a.652.652,0,0,1-.732-.662c0-.12,0-.251,0-.371,0-1,.11-1.174,1.134-1.174h3.873c.6,0,.732.14.773.742.08,1.344,0,1.475-1.355,1.465h-.753c-.221.913,0,1.064.923,1.284a8.418,8.418,0,0,1,6.642,6.2A8.619,8.619,0,1,1,9.47,20.783a8.7,8.7,0,0,1,6.783-9.522l.311-.06C17.5,11.011,17.5,11.011,17.376,10.007Zm-6.371,9.652a7.024,7.024,0,1,0,7.1-6.943,7.024,7.024,0,0,0-7.1,6.943Z" transform="translate(13.972 1527.966)" fill="#adaeae"/>
      <path id="Path_44787" data-name="Path 44787" d="M23,11.431a1.736,1.736,0,0,1,2.579,2.247Z" transform="translate(14.017 1527.977)" fill="#adaeae"/>
      <path id="Path_44788" data-name="Path 44788" d="M12.95,11.411l-2.569,2.247c-.542-.452-.311-1.555.151-2.007a1.776,1.776,0,0,1,2.418-.241Z" transform="translate(13.974 1527.977)" fill="#adaeae"/>
      <path id="Path_44789" data-name="Path 44789" d="M13.534,23.331c-.171.12-.281.211-.4.281a.333.333,0,0,1-.492-.231c-.08-.522-.14-1.054-.191-1.575,0-.351.161-.452.462-.341s.753.321,1.124.482c.753.331.753.371.1,1a4.776,4.776,0,0,0,3.01,1.8A5.017,5.017,0,1,0,13,19.257c0,.291.12.8-.391.773s-.321-.552-.3-.853a5.7,5.7,0,1,1,1.214,4.154Z" transform="translate(13.981 1527.987)" fill="#8a8a89"/>
      <path id="Path_44790" data-name="Path 44790" d="M16.3,19.5h.542a1.9,1.9,0,0,0,.632-.1,1,1,0,0,0,.441-.291.913.913,0,0,0,.241-.492V18.5H16.15l.321-.492h1.615a.8.8,0,0,0-.441-.411,1.565,1.565,0,0,0-.371-.1,3.452,3.452,0,0,0-.562,0H16.12l.311-.482h3.462l-.321.492h-.933a1.1,1.1,0,0,1,.251.562h1l-.321.482h-.662a.762.762,0,0,1,0,.161,1.425,1.425,0,0,1-.441.732,2.117,2.117,0,0,1-.783.421,3.13,3.13,0,0,1-.522.08h0l2.1,2.6h-.953l-.662-.823L16.431,20.2a1.344,1.344,0,0,0-.13-.191v-.5Z" transform="translate(13.994 1527.997)" fill="#adaeae"/>
    </g>
  </g>
</svg>
